# Converted from FlakTurret.fbx
o FlakTurret
v 0.077931 -0.002145 -0.065247
v 0.077931 -0.002145 0.057256
v 0.077931 0.110653 -0.065247
v 0.077931 0.110653 0.057256
v 0.077931 0.110653 0.030928
v 0.040028 0.110653 -0.082095
v 0.040028 -0.002145 0.097596
v 0.040028 -0.002145 -0.082095
v 0.040028 0.110653 0.097596
v -0.077931 -0.002145 -0.065247
v -0.077931 -0.002145 0.057256
v -0.077931 0.110653 -0.065247
v -0.077931 0.110653 0.057256
v 0 0.110653 -0.082095
v 0 -0.002145 -0.082095
v 0 0.110653 0.097596
v 0 -0.002145 0.097596
v -0.077931 0.110653 0.030928
v -0.040028 0.110653 -0.082095
v -0.040028 -0.002145 0.097596
v -0.040028 -0.002145 -0.082095
v -0.040028 0.110653 0.097596
v 0 0.110653 0.030928
v -0.076878 0.173786 -0.070669
v -0.076878 0.173786 -0.113287
v -0.094937 0.173786 -0.113287
v -0.094937 0.173786 -0.070669
v -0.076878 0.231652 -0.070669
v -0.076878 0.231652 -0.113287
v -0.094937 0.231652 -0.113287
v -0.094937 0.231652 -0.070669
v -0.076878 0.184759 -0.058313
v -0.076878 0.220679 -0.058313
v -0.094937 0.220679 -0.058313
v -0.094937 0.184759 -0.058313
v -0.076878 0.220679 -0.125643
v -0.076878 0.184759 -0.125643
v -0.094937 0.220679 -0.125643
v -0.094937 0.184759 -0.125643
v 0.076878 0.173786 -0.070669
v 0.076878 0.173786 -0.113287
v 0.094937 0.173786 -0.113287
v 0.094937 0.173786 -0.070669
v 0.076878 0.231652 -0.070669
v 0.076878 0.231652 -0.113287
v 0.094937 0.231652 -0.113287
v 0.094937 0.231652 -0.070669
v 0.076878 0.184759 -0.058313
v 0.076878 0.220679 -0.058313
v 0.094937 0.220679 -0.058313
v 0.094937 0.184759 -0.058313
v 0.076878 0.220679 -0.125643
v 0.076878 0.184759 -0.125643
v 0.094937 0.220679 -0.125643
v 0.094937 0.184759 -0.125643
v 0.01889 0.23651 -0.116317
v 0.01889 0.143556 -0.008757
v 0.01889 0.287731 -0.100084
v 0.01889 0.287731 -0.056086
v 0.01889 0.269483 -0.116317
v 0.01889 0.236368 -0.008757
v 0.077931 0.110653 -0.065247
v 0.077931 0.110653 0.030928
v 0.040028 0.110653 -0.082095
v 0.077931 0.195363 -0.134196
v 0.077931 0.195363 -0.038022
v 0.077931 0.217271 -0.134196
v 0.077931 0.217271 -0.038022
v 0.077931 0.241266 -0.114294
v 0.077931 0.241266 -0.057924
v 0.040028 0.217271 -0.151045
v 0.040028 0.195363 -0.151045
v 0.040028 0.241266 -0.131143
v -0.01889 0.23651 -0.116317
v -0.01889 0.143556 -0.008757
v -0.01889 0.287731 -0.100084
v -0.01889 0.287731 -0.056086
v 0 0.287731 -0.100084
v 0 0.23651 -0.116317
v 0 0.287731 -0.056086
v 0 0.143556 -0.008757
v -0.01889 0.269483 -0.116317
v -0.01889 0.236368 -0.008757
v 0 0.269483 -0.116317
v 0 0.236369 -0.008757
v -0.077931 0.110653 -0.065247
v 0 0.110653 -0.082095
v -0.077931 0.110653 0.030928
v -0.040028 0.110653 -0.082095
v 0 0.110653 0.030928
v -0.077931 0.195363 -0.134196
v 0 0.195363 -0.151045
v -0.077931 0.195363 -0.038022
v -0.077931 0.217271 -0.134196
v 0 0.21727 -0.151045
v -0.077931 0.217271 -0.038022
v -0.077931 0.241266 -0.114294
v 0 0.241266 -0.131143
v -0.077931 0.241266 -0.057924
v -0.040028 0.217271 -0.151045
v -0.040028 0.195363 -0.151045
v 0 0.195363 -0.038022
v 0 0.21727 -0.038022
v -0.040028 0.241266 -0.131143
v 0 0.241266 -0.057924
vt 0.789235 0.799274
vt 0.773491 0.799289
vt 0.77345 0.756475
vt 0.789194 0.75646
vt 0.856703 0.756397
vt 0.871896 0.756383
vt 0.871936 0.799197
vt 0.856743 0.799211
vt 0.758257 0.756489
vt 0.77345 0.756475
vt 0.773491 0.799289
vt 0.758298 0.799304
vt 0.835693 0.756416
vt 0.856703 0.756397
vt 0.856743 0.799211
vt 0.835733 0.799231
vt 0.825699 0.756425
vt 0.835693 0.756416
vt 0.835733 0.799231
vt 0.835733 0.799231
vt 0.789235 0.799274
vt 0.789194 0.75646
vt 0.825699 0.756425
vt 0.856703 0.756397
vt 0.871873 0.731077
vt 0.871896 0.756383
vt 0.842302 0.741098
vt 0.842293 0.731104
vt 0.871873 0.731077
vt 0.856703 0.756397
vt 0.77345 0.756475
vt 0.773491 0.799289
vt 0.789235 0.799274
vt 0.789194 0.75646
vt 0.856703 0.756397
vt 0.856743 0.799211
vt 0.871936 0.799197
vt 0.871896 0.756383
vt 0.758257 0.756489
vt 0.758298 0.799304
vt 0.773491 0.799289
vt 0.77345 0.756475
vt 0.835693 0.756416
vt 0.835733 0.799231
vt 0.856743 0.799211
vt 0.856703 0.756397
vt 0.825699 0.756425
vt 0.835733 0.799231
vt 0.835693 0.756416
vt 0.789194 0.75646
vt 0.789235 0.799274
vt 0.835733 0.799231
vt 0.825699 0.756425
vt 0.856703 0.756397
vt 0.871896 0.756383
vt 0.871873 0.731077
vt 0.842302 0.741098
vt 0.856703 0.756397
vt 0.871873 0.731077
vt 0.842293 0.731104
vt 0.99539 0.142626
vt 0.995397 0.12591
vt 0.977126 0.125901
vt 0.977118 0.14262
vt 0.977133 0.291907
vt 0.97714 0.308631
vt 0.995417 0.308623
vt 0.995409 0.2919
vt 0.995417 0.082792
vt 0.977146 0.082784
vt 0.977126 0.125901
vt 0.995397 0.12591
vt 0.97711 0.238827
vt 0.995388 0.238822
vt 0.995378 0.195689
vt 0.977102 0.19569
vt 0.97711 0.238827
vt 0.977117 0.255554
vt 0.995394 0.255546
vt 0.995388 0.238822
vt 0.977117 0.255554
vt 0.977133 0.291907
vt 0.995409 0.2919
vt 0.995394 0.255546
vt 0.995378 0.195689
vt 0.995377 0.178969
vt 0.977105 0.178965
vt 0.977102 0.19569
vt 0.995377 0.178969
vt 0.99539 0.142626
vt 0.977118 0.14262
vt 0.977105 0.178965
vt 0.99539 0.142626
vt 0.977118 0.14262
vt 0.977126 0.125901
vt 0.995397 0.12591
vt 0.977133 0.291907
vt 0.995409 0.2919
vt 0.995417 0.308623
vt 0.97714 0.308631
vt 0.995417 0.082792
vt 0.995397 0.12591
vt 0.977126 0.125901
vt 0.977146 0.082784
vt 0.97711 0.238827
vt 0.977102 0.19569
vt 0.995378 0.195689
vt 0.995388 0.238822
vt 0.97711 0.238827
vt 0.995388 0.238822
vt 0.995394 0.255546
vt 0.977117 0.255554
vt 0.977117 0.255554
vt 0.995394 0.255546
vt 0.995409 0.2919
vt 0.977133 0.291907
vt 0.995378 0.195689
vt 0.977102 0.19569
vt 0.977105 0.178965
vt 0.995377 0.178969
vt 0.995377 0.178969
vt 0.977105 0.178965
vt 0.977118 0.14262
vt 0.99539 0.142626
vt 0.534962 0.602322
vt 0.534957 0.613173
vt 0.516019 0.613163
vt 0.516024 0.602313
vt 0.595397 0.675098
vt 0.61441 0.61321
vt 0.667802 0.613179
vt 0.614365 0.675087
vt 0.61441 0.61321
vt 0.614408 0.602349
vt 0.667794 0.602312
vt 0.667802 0.613179
vt 0.574262 0.613189
vt 0.548985 0.613178
vt 0.548989 0.602327
vt 0.574266 0.602334
vt 0.548989 0.602327
vt 0.548985 0.613178
vt 0.534957 0.613173
vt 0.534962 0.602322
vt 0.584894 0.665766
vt 0.584879 0.640455
vt 0.61441 0.61321
vt 0.595397 0.675098
vt 0.574262 0.613189
vt 0.574266 0.602334
vt 0.614408 0.602349
vt 0.61441 0.61321
vt 0.69236 0.723479
vt 0.692362 0.693899
vt 0.700678 0.6939
vt 0.700676 0.72348
vt 0.700676 0.72348
vt 0.700678 0.6939
vt 0.712511 0.693901
vt 0.712509 0.723481
vt 0.804121 0.930044
vt 0.782603 0.930044
vt 0.782603 0.918266
vt 0.804121 0.918266
vt 0.704958 0.676477
vt 0.741463 0.67648
vt 0.741462 0.684795
vt 0.704957 0.684792
vt 0.804121 0.918266
vt 0.782603 0.918266
vt 0.782603 0.901507
vt 0.804121 0.901507
vt 0.704957 0.684792
vt 0.741462 0.684795
vt 0.733907 0.693902
vt 0.712511 0.693901
vt 0.826419 0.930043
vt 0.804121 0.930044
vt 0.804121 0.918266
vt 0.826419 0.918266
vt 0.712511 0.693901
vt 0.733907 0.693902
vt 0.740301 0.70829
vt 0.712509 0.723481
vt 0.825656 0.912484
vt 0.804121 0.918266
vt 0.804121 0.901507
vt 0.825656 0.895725
vt 0.804121 0.98876
vt 0.782603 0.98876
vt 0.782603 0.930044
vt 0.804121 0.930044
vt 0.678789 0.644322
vt 0.715294 0.644325
vt 0.741463 0.67648
vt 0.704958 0.676477
vt 0.825674 0.994478
vt 0.804121 0.98876
vt 0.804121 0.930044
vt 0.825674 0.935761
vt 0.712509 0.723481
vt 0.740301 0.70829
vt 0.7403 0.723483
vt 0.650903 0.723476
vt 0.650905 0.693896
vt 0.692362 0.693899
vt 0.69236 0.723479
vt 0.534962 0.602322
vt 0.516024 0.602313
vt 0.516019 0.613163
vt 0.534957 0.613173
vt 0.595397 0.675098
vt 0.614365 0.675087
vt 0.667802 0.613179
vt 0.61441 0.61321
vt 0.61441 0.61321
vt 0.667802 0.613179
vt 0.667794 0.602312
vt 0.614408 0.602349
vt 0.574262 0.613189
vt 0.574266 0.602334
vt 0.548989 0.602327
vt 0.548985 0.613178
vt 0.548989 0.602327
vt 0.534962 0.602322
vt 0.534957 0.613173
vt 0.548985 0.613178
vt 0.584894 0.665766
vt 0.595397 0.675098
vt 0.61441 0.61321
vt 0.584879 0.640455
vt 0.574262 0.613189
vt 0.61441 0.61321
vt 0.614408 0.602349
vt 0.574266 0.602334
vt 0.69236 0.723479
vt 0.700676 0.72348
vt 0.700678 0.6939
vt 0.692362 0.693899
vt 0.700676 0.72348
vt 0.712509 0.723481
vt 0.712511 0.693901
vt 0.700678 0.6939
vt 0.804121 0.930044
vt 0.804121 0.918266
vt 0.782603 0.918266
vt 0.782603 0.930044
vt 0.704958 0.676477
vt 0.704957 0.684792
vt 0.741462 0.684795
vt 0.741463 0.67648
vt 0.804121 0.918266
vt 0.804121 0.901507
vt 0.782603 0.901507
vt 0.782603 0.918266
vt 0.704957 0.684792
vt 0.712511 0.693901
vt 0.733907 0.693902
vt 0.741462 0.684795
vt 0.826419 0.930043
vt 0.826419 0.918266
vt 0.804121 0.918266
vt 0.804121 0.930044
vt 0.712511 0.693901
vt 0.712509 0.723481
vt 0.740301 0.70829
vt 0.733907 0.693902
vt 0.825656 0.912484
vt 0.825656 0.895725
vt 0.804121 0.901507
vt 0.804121 0.918266
vt 0.804121 0.98876
vt 0.804121 0.930044
vt 0.782603 0.930044
vt 0.782603 0.98876
vt 0.678789 0.644322
vt 0.704958 0.676477
vt 0.741463 0.67648
vt 0.715294 0.644325
vt 0.825674 0.994478
vt 0.825674 0.935761
vt 0.804121 0.930044
vt 0.804121 0.98876
vt 0.712509 0.723481
vt 0.7403 0.723483
vt 0.740301 0.70829
vt 0.650903 0.723476
vt 0.69236 0.723479
vt 0.692362 0.693899
vt 0.650905 0.693896
f 1/1 8/2 6/3 3/4
f 9/5 16/6 17/7 7/8
f 14/9 6/10 8/11 15/12
f 4/13 9/14 7/15 2/16
f 5/17 4/18 2/19
f 2/20 1/21 3/22 5/23
f 9/24 23/25 16/26
f 4/27 5/28 23/29 9/30
f 19/31 21/32 10/33 12/34
f 22/35 20/36 17/37 16/38
f 14/39 15/40 21/41 19/42
f 13/43 11/44 20/45 22/46
f 18/47 11/48 13/49
f 12/50 10/51 11/52 18/53
f 22/54 16/55 23/56
f 13/57 22/58 23/59 18/60
f 37/61 25/62 26/63 39/64
f 35/65 27/66 24/67 32/68
f 24/69 27/70 26/71 25/72
f 31/73 28/74 29/75 30/76
f 31/77 34/78 33/79 28/80
f 34/81 35/82 32/83 33/84
f 29/85 36/86 38/87 30/88
f 36/89 37/90 39/91 38/92
f 53/93 55/94 42/95 41/96
f 51/97 48/98 40/99 43/100
f 40/101 41/102 42/103 43/104
f 47/105 46/106 45/107 44/108
f 47/109 44/110 49/111 50/112
f 50/113 49/114 48/115 51/116
f 45/117 46/118 54/119 52/120
f 52/121 54/122 55/123 53/124
f 84/125 60/126 56/127 79/128
f 60/129 61/130 57/131 56/132
f 61/133 85/134 81/135 57/136
f 59/137 58/138 78/139 80/140
f 78/141 58/142 60/143 84/144
f 58/145 59/146 61/147 60/148
f 59/149 80/150 85/151 61/152
f 102/153 66/154 68/155 103/156
f 103/157 68/158 70/159 105/160
f 72/161 92/162 95/163 71/164
f 66/165 65/166 67/167 68/168
f 71/169 95/170 98/171 73/172
f 68/173 67/174 69/175 70/176
f 65/177 72/178 71/179 67/180
f 70/181 69/182 73/183 105/184
f 67/185 71/186 73/187 69/188
f 64/189 87/190 92/191 72/192
f 63/193 62/194 65/195 66/196
f 62/197 64/198 72/199 65/200
f 105/201 73/202 98/203
f 90/204 63/205 66/206 102/207
f 84/208 79/209 74/210 82/211
f 82/212 74/213 75/214 83/215
f 83/216 75/217 81/218 85/219
f 77/220 80/221 78/222 76/223
f 78/224 84/225 82/226 76/227
f 76/228 82/229 83/230 77/231
f 77/232 83/233 85/234 80/235
f 102/236 103/237 96/238 93/239
f 103/240 105/241 99/242 96/243
f 101/244 100/245 95/246 92/247
f 93/248 96/249 94/250 91/251
f 100/252 104/253 98/254 95/255
f 96/256 99/257 97/258 94/259
f 91/260 94/261 100/262 101/263
f 99/264 105/265 104/266 97/267
f 94/268 97/269 104/270 100/271
f 89/272 101/273 92/274 87/275
f 88/276 93/277 91/278 86/279
f 86/280 91/281 101/282 89/283
f 105/284 98/285 104/286
f 90/287 102/288 93/289 88/290
