# Converted from LaserTurretBarrel.fbx
o LaserTurretBarrel
v 0.030086 -0.048633 -0.026755
v 0.030086 0.048633 -0.026755
v 0.060777 0.026274 -0.026755
v 0.060777 -0.026274 -0.026755
v 0.022893 -0.048633 0.476693
v 0.022893 0.048633 0.476693
v 0.046246 0.026274 0.476693
v 0.046246 -0.026274 0.476693
v 0.030086 -0.048633 0.54102
v 0.030086 0.048633 0.54102
v 0.060777 0.026274 0.54102
v 0.060777 -0.026274 0.54102
v 0.022893 -0.048633 0.54102
v 0.022893 0.048633 0.54102
v 0.046246 0.026274 0.54102
v 0.046246 -0.026274 0.54102
v 0.021938 -0.028004 0.476693
v 0.021938 0.028004 0.476693
v 0.034102 0.015129 0.476693
v 0.034102 -0.015129 0.476693
v 0.021938 -0.028004 0.390424
v 0.021938 0.028004 0.390424
v 0.034102 0.015129 0.390424
v 0.034102 -0.015129 0.390424
v -0.030086 -0.048633 -0.026755
v -0.030086 0.048633 -0.026755
v 0 0.048633 -0.026755
v 0 0.048633 0.476693
v 0 -0.048633 0.476693
v -0.060777 0.026274 -0.026755
v -0.060777 -0.026274 -0.026755
v 0 -0.028004 0.476693
v 0 0.028003 0.476693
v -0.022893 -0.048633 0.476693
v -0.022893 0.048633 0.476693
v 0 -0.048633 -0.026755
v -0.046246 0.026274 0.476693
v -0.046246 -0.026274 0.476693
v -0.030086 -0.048633 0.54102
v -0.030086 0.048633 0.54102
v -0.060777 0.026274 0.54102
v -0.060777 -0.026274 0.54102
v -0.022893 -0.048633 0.54102
v -0.022893 0.048633 0.54102
v -0.046246 0.026274 0.54102
v -0.046246 -0.026274 0.54102
v -0.021938 -0.028004 0.476693
v -0.021938 0.028004 0.476693
v -0.034102 0.015129 0.476693
v -0.034102 -0.015129 0.476693
v 0 -0.028004 0.390424
v 0 0.028003 0.390424
v -0.021938 -0.028004 0.390424
v -0.021938 0.028004 0.390424
v -0.034102 0.015129 0.390424
v -0.034102 -0.015129 0.390424
vt 0.040666 0.237176
vt 0.057541 0.253333
vt 0.048765 0.261386
vt 0.039976 0.252083
vt 0.024123 0.237176
vt 0.040666 0.237176
vt 0.039976 0.252083
vt 0.024124 0.252083
vt 0.057541 0.253333
vt 0.057541 0.291303
vt 0.048766 0.28325
vt 0.048765 0.261386
vt 0.057541 0.291303
vt 0.057541 0.253333
vt 0.104024 0.253333
vt 0.104024 0.291303
vt 0.311536 0.932618
vt 0.30602 0.932618
vt 0.297158 0.92413
vt 0.299888 0.924131
vt 0.299885 0.96105
vt 0.297155 0.96105
vt 0.306019 0.952563
vt 0.311535 0.952563
vt 0.311535 0.952563
vt 0.306019 0.952563
vt 0.30602 0.932618
vt 0.311536 0.932618
vt 0.057541 0.314665
vt 0.057541 0.291303
vt 0.104024 0.291303
vt 0.104024 0.314665
vt 0.057541 0.253333
vt 0.057541 0.229971
vt 0.104024 0.22997
vt 0.104024 0.253333
vt 0.057541 0.291303
vt 0.040667 0.307459
vt 0.039977 0.292553
vt 0.048766 0.28325
vt 0.040667 0.307459
vt 0.024125 0.307459
vt 0.024126 0.292552
vt 0.039977 0.292553
vt 0.882365 0.754894
vt 0.882365 0.743302
vt 0.927953 0.743302
vt 0.927952 0.754895
vt 0.882365 0.743302
vt 0.882366 0.733942
vt 0.927953 0.733942
vt 0.927953 0.743302
vt 0.882366 0.733942
vt 0.882366 0.717953
vt 0.927953 0.717953
vt 0.927953 0.733942
vt 0.882366 0.708594
vt 0.882366 0.697002
vt 0.927952 0.697001
vt 0.927953 0.708594
vt 0.882366 0.717953
vt 0.882366 0.708594
vt 0.927953 0.708594
vt 0.927953 0.717953
vt 0.311536 0.918205
vt 0.527044 0.918205
vt 0.527044 0.932618
vt 0.311536 0.932618
vt 0.33595 0.969706
vt 0.527044 0.978396
vt 0.33595 0.978396
vt 0.527044 0.966977
vt 0.311535 0.966976
vt 0.311535 0.952563
vt 0.527044 0.952564
vt 0.527044 0.952564
vt 0.311535 0.952563
vt 0.311536 0.932618
vt 0.527044 0.932618
vt 0.311535 0.966976
vt 0.33595 0.969706
vt 0.311534 0.969706
vt 0.311535 0.966976
vt 0.527044 0.966977
vt 0.527044 0.978396
vt 0.33595 0.969706
vt 0.335951 0.915475
vt 0.311536 0.918205
vt 0.311536 0.915475
vt 0.934756 0.736874
vt 0.950746 0.736874
vt 0.95755 0.754895
vt 0.927952 0.754895
vt 0.927953 0.743302
vt 0.934756 0.736874
vt 0.927952 0.754895
vt 0.950746 0.736874
vt 0.95755 0.743302
vt 0.95755 0.754895
vt 0.527044 0.932618
vt 0.538693 0.924131
vt 0.550112 0.924131
vt 0.550113 0.96105
vt 0.527044 0.952564
vt 0.527044 0.932618
vt 0.550112 0.924131
vt 0.527044 0.918205
vt 0.311536 0.918205
vt 0.335951 0.915475
vt 0.527044 0.906785
vt 0.550113 0.96105
vt 0.538693 0.96105
vt 0.527044 0.952564
vt 0.335951 0.906785
vt 0.527044 0.906785
vt 0.335951 0.915475
vt 0.040666 0.237176
vt 0.039976 0.252083
vt 0.048765 0.261386
vt 0.057541 0.253333
vt 0.024123 0.237176
vt 0.024124 0.252083
vt 0.039976 0.252083
vt 0.040666 0.237176
vt 0.057541 0.253333
vt 0.048765 0.261386
vt 0.048766 0.28325
vt 0.057541 0.291303
vt 0.057541 0.291303
vt 0.104024 0.291303
vt 0.104024 0.253333
vt 0.057541 0.253333
vt 0.311536 0.932618
vt 0.299888 0.924131
vt 0.297158 0.92413
vt 0.30602 0.932618
vt 0.299885 0.96105
vt 0.311535 0.952563
vt 0.306019 0.952563
vt 0.297155 0.96105
vt 0.311535 0.952563
vt 0.311536 0.932618
vt 0.30602 0.932618
vt 0.306019 0.952563
vt 0.057541 0.314665
vt 0.104024 0.314665
vt 0.104024 0.291303
vt 0.057541 0.291303
vt 0.057541 0.253333
vt 0.104024 0.253333
vt 0.104024 0.22997
vt 0.057541 0.229971
vt 0.057541 0.291303
vt 0.048766 0.28325
vt 0.039977 0.292553
vt 0.040667 0.307459
vt 0.040667 0.307459
vt 0.039977 0.292553
vt 0.024126 0.292552
vt 0.024125 0.307459
vt 0.882365 0.754894
vt 0.927952 0.754895
vt 0.927953 0.743302
vt 0.882365 0.743302
vt 0.882365 0.743302
vt 0.927953 0.743302
vt 0.927953 0.733942
vt 0.882366 0.733942
vt 0.882366 0.733942
vt 0.927953 0.733942
vt 0.927953 0.717953
vt 0.882366 0.717953
vt 0.882366 0.708594
vt 0.927953 0.708594
vt 0.927952 0.697001
vt 0.882366 0.697002
vt 0.882366 0.717953
vt 0.927953 0.717953
vt 0.927953 0.708594
vt 0.882366 0.708594
vt 0.527044 0.932618
vt 0.527044 0.918205
vt 0.311536 0.918205
vt 0.311536 0.932618
vt 0.33595 0.969706
vt 0.33595 0.978396
vt 0.527044 0.978396
vt 0.527044 0.966977
vt 0.527044 0.952564
vt 0.311535 0.952563
vt 0.311535 0.966976
vt 0.527044 0.952564
vt 0.527044 0.932618
vt 0.311536 0.932618
vt 0.311535 0.952563
vt 0.311535 0.966976
vt 0.311534 0.969706
vt 0.33595 0.969706
vt 0.311535 0.966976
vt 0.33595 0.969706
vt 0.527044 0.978396
vt 0.527044 0.966977
vt 0.335951 0.915475
vt 0.311536 0.915475
vt 0.311536 0.918205
vt 0.934756 0.736874
vt 0.927952 0.754895
vt 0.95755 0.754895
vt 0.950746 0.736874
vt 0.927953 0.743302
vt 0.927952 0.754895
vt 0.934756 0.736874
vt 0.950746 0.736874
vt 0.95755 0.754895
vt 0.95755 0.743302
vt 0.550112 0.924131
vt 0.538693 0.924131
vt 0.527044 0.932618
vt 0.550113 0.96105
vt 0.550112 0.924131
vt 0.527044 0.932618
vt 0.527044 0.952564
vt 0.335951 0.915475
vt 0.311536 0.918205
vt 0.527044 0.918205
vt 0.527044 0.906785
vt 0.550113 0.96105
vt 0.527044 0.952564
vt 0.538693 0.96105
vt 0.335951 0.906785
vt 0.335951 0.915475
vt 0.527044 0.906785
f 5/1 8/2 20/3 17/4
f 29/5 5/6 17/7 32/8
f 8/9 7/10 19/11 20/12
f 7/13 8/14 16/15 15/16
f 12/17 16/18 13/19 9/20
f 10/21 14/22 15/23 11/24
f 11/25 15/26 16/27 12/28
f 6/29 7/30 15/31 14/32
f 8/33 5/34 13/35 16/36
f 7/37 6/38 18/39 19/40
f 6/41 28/42 33/43 18/44
f 32/45 17/46 21/47 51/48
f 17/49 20/50 24/51 21/52
f 20/53 19/54 23/55 24/56
f 18/57 33/58 52/59 22/60
f 19/61 18/62 22/63 23/64
f 9/65 1/66 4/67 12/68
f 6/69 27/70 28/71
f 2/72 10/73 11/74 3/75
f 3/76 11/77 12/78 4/79
f 10/80 6/81 14/82
f 10/83 2/84 27/85 6/86
f 5/87 9/88 13/89
f 24/90 23/91 52/92 51/93
f 21/94 24/95 51/96
f 23/97 22/98 52/99
f 4/100 1/101 36/102
f 27/103 3/104 4/105 36/106
f 1/107 9/108 5/109 36/110
f 27/111 2/112 3/113
f 29/114 36/115 5/116
f 34/117 47/118 50/119 38/120
f 29/121 32/122 47/123 34/124
f 38/125 50/126 49/127 37/128
f 37/129 45/130 46/131 38/132
f 42/133 39/134 43/135 46/136
f 40/137 41/138 45/139 44/140
f 41/141 42/142 46/143 45/144
f 35/145 44/146 45/147 37/148
f 38/149 46/150 43/151 34/152
f 37/153 49/154 48/155 35/156
f 35/157 48/158 33/159 28/160
f 32/161 51/162 53/163 47/164
f 47/165 53/166 56/167 50/168
f 50/169 56/170 55/171 49/172
f 48/173 54/174 52/175 33/176
f 49/177 55/178 54/179 48/180
f 31/181 25/182 39/183 42/184
f 35/185 28/186 27/187
f 26/188 30/189 41/190 40/191
f 30/192 31/193 42/194 41/195
f 40/196 44/197 35/198
f 40/199 35/200 27/201 26/202
f 34/203 43/204 39/205
f 56/206 51/207 52/208 55/209
f 53/210 51/211 56/212
f 55/213 52/214 54/215
f 36/216 25/217 31/218
f 27/219 36/220 31/221 30/222
f 34/223 39/224 25/225 36/226
f 27/227 30/228 26/229
f 29/230 34/231 36/232
