# Converted from LaserTurret.fbx
o LaserTurret
v 0.112446 -0.000682 -0.073236
v 0.112446 -0.000682 0.073236
v 0.112446 0.120863 -0.073236
v 0.112446 0.120864 0.073236
v 0.056223 -0.000682 0.119608
v 0.056223 0.120864 0.119608
v 0.056223 0.120863 -0.119608
v 0.056223 -0.000682 -0.119608
v -0.112446 -0.000682 -0.073236
v -0.112446 -0.000682 0.073236
v -0.112446 0.120863 -0.073236
v -0.112446 0.120864 0.073236
v 0 0.120864 -0.119608
v 0 -0.000682 -0.119608
v 0 0.120864 0.119608
v 0 -0.000682 0.119608
v -0.056223 -0.000682 0.119608
v -0.056223 0.120864 0.119608
v -0.056223 0.120863 -0.119608
v -0.056223 -0.000682 -0.119608
v 0.120155 0.353438 -0.358715
v 0.120155 0.353438 -0.300779
v 0.120155 0.382384 -0.358715
v 0.120155 0.382384 -0.300779
v 0.114257 0.343775 -0.008268
v 0.140213 0.343775 -0.008268
v 0.114257 0.376602 -0.008268
v 0.114257 0.397754 -0.427389
v 0.140213 0.397754 -0.427389
v 0.140213 0.376602 -0.008268
v 0.114257 0.433361 -0.254004
v 0.140213 0.433361 -0.254004
v 0.140213 0.343775 -0.427389
v 0.114257 0.433361 -0.379064
v 0.114257 0.343775 -0.427389
v 0.140213 0.433361 -0.379064
v 0.133812 0.182284 -0.331461
v 0.133812 0.183435 0.263172
v 0.133812 0.222025 -0.331461
v 0.133812 0.222025 0.263172
v 0.133812 0.11356 0.160986
v 0.133812 0.11356 -0.169825
v 0.133812 0.198054 -0.331461
v 0.133812 0.198749 0.263172
v 0.133812 0.156602 0.160986
v 0.133812 0.156602 -0.169825
v 0.191508 0.222025 -0.224291
v 0.191508 0.222025 0.16388
v 0.191508 0.198054 -0.224291
v 0.191508 0.198749 0.16388
v 0.191508 0.156602 0.061694
v 0.191508 0.156602 -0.062654
v -0.120155 0.353438 -0.358715
v -0.120155 0.353438 -0.300779
v -0.120155 0.382384 -0.358715
v -0.120155 0.382384 -0.300779
v 0 0.382384 -0.358715
v 0 0.353438 -0.358715
v 0 0.382384 -0.300779
v 0 0.353438 -0.300779
v -0.114257 0.343775 -0.008268
v -0.140213 0.343775 -0.008268
v -0.114257 0.376602 -0.008268
v -0.114257 0.397754 -0.427389
v -0.140213 0.397754 -0.427389
v -0.140213 0.376602 -0.008268
v -0.114257 0.433361 -0.254004
v -0.140213 0.433361 -0.254004
v -0.140213 0.343775 -0.427389
v -0.114257 0.433361 -0.379064
v -0.114257 0.343775 -0.427389
v -0.140213 0.433361 -0.379064
v -0.133812 0.182284 -0.331461
v -0.133812 0.183435 0.263172
v -0.133812 0.222025 -0.331461
v -0.133812 0.222025 0.263172
v 0 0.182284 -0.331461
v 0 0.222025 0.263172
v 0 0.183435 0.263172
v -0.133812 0.11356 0.160986
v 0 0.11356 0.160987
v -0.133812 0.11356 -0.169825
v 0 0.11356 -0.169825
v -0.133812 0.198054 -0.331461
v -0.133812 0.198749 0.263172
v 0 0.222025 -0.331461
v -0.133812 0.156602 0.160986
v -0.133812 0.156602 -0.169825
v -0.191508 0.222025 -0.224291
v -0.191508 0.222025 0.16388
v -0.191508 0.198054 -0.224291
v -0.191508 0.198749 0.16388
v -0.191508 0.156602 0.061694
v -0.191508 0.156602 -0.062654
v 0.224024 0.208841 -0.469446
v 0.224024 0.208841 0.156607
v 0.224024 0.358749 -0.469446
v 0.224024 0.358749 0.156607
v 0.313977 0.254158 -0.469446
v 0.313977 0.254158 0.156607
v 0.313977 0.313432 -0.469446
v 0.313977 0.313432 0.156607
v 0.10942 0.208841 0.332453
v 0.10942 0.358749 0.332453
v 0.188866 0.248152 -0.53682
v 0.188866 0.319438 -0.53682
v 0.23164 0.269702 -0.53682
v 0.23164 0.297888 -0.53682
v 0.060169 0.208841 0.332453
v 0.060169 0.358749 0.332453
v 0.10942 0.208841 0.410351
v 0.10942 0.358749 0.410351
v 0.060169 0.208841 0.410351
v 0.060169 0.358749 0.410351
v 0.10942 0.25452 0.453509
v 0.10942 0.31307 0.453509
v 0.060169 0.25452 0.453509
v 0.060169 0.31307 0.453509
v -0.224024 0.208841 -0.469446
v -0.224024 0.208841 0.156607
v -0.224024 0.358749 -0.469446
v -0.224024 0.358749 0.156607
v -0.313977 0.254158 -0.469446
v -0.313977 0.254158 0.156607
v -0.313977 0.313432 -0.469446
v -0.313977 0.313432 0.156607
v -0.10942 0.208841 0.332453
v -0.10942 0.358749 0.332453
v 0 0.358749 0.332453
v 0 0.208841 0.332453
v -0.188866 0.248152 -0.53682
v -0.188866 0.319438 -0.53682
v 0 0.248152 -0.53682
v -0.23164 0.269702 -0.53682
v -0.23164 0.297888 -0.53682
v 0 0.358749 -0.469446
v 0 0.208841 -0.469446
v 0 0.319438 -0.53682
v -0.060169 0.208841 0.332453
v -0.060169 0.358749 0.332453
v -0.10942 0.208841 0.410351
v -0.10942 0.358749 0.410351
v -0.060169 0.208841 0.410351
v -0.060169 0.358749 0.410351
v -0.10942 0.25452 0.453509
v -0.10942 0.31307 0.453509
v -0.060169 0.25452 0.453509
v -0.060169 0.31307 0.453509
vt 0.946443 0.888123
vt 0.974106 0.888123
vt 0.974106 0.934257
vt 0.946444 0.934257
vt 0.890848 0.888124
vt 0.946443 0.888123
vt 0.946444 0.934257
vt 0.890849 0.934258
vt 0.863187 0.934259
vt 0.841846 0.93426
vt 0.841845 0.888125
vt 0.863185 0.888124
vt 0.890849 0.934258
vt 0.863187 0.934259
vt 0.863185 0.888124
vt 0.890848 0.888124
vt 0.995447 0.934257
vt 0.974106 0.934257
vt 0.974106 0.888123
vt 0.995447 0.888123
vt 0.974106 0.934257
vt 0.974106 0.888123
vt 0.946443 0.888123
vt 0.946444 0.934257
vt 0.946444 0.934257
vt 0.946443 0.888123
vt 0.890848 0.888124
vt 0.890849 0.934258
vt 0.863187 0.934259
vt 0.863185 0.888124
vt 0.841845 0.888125
vt 0.841846 0.93426
vt 0.890849 0.934258
vt 0.890848 0.888124
vt 0.863185 0.888124
vt 0.863187 0.934259
vt 0.995447 0.934257
vt 0.995447 0.888123
vt 0.974106 0.888123
vt 0.974106 0.934257
vt 0.011146 0.066705
vt 0.089471 0.066732
vt 0.089465 0.085601
vt 0.01114 0.085574
vt 0.089484 0.028966
vt 0.011159 0.028939
vt 0.011166 0.01007
vt 0.089491 0.010097
vt 0.089484 0.028966
vt 0.089471 0.066732
vt 0.011146 0.066705
vt 0.011159 0.028939
vt 0.865514 0.389322
vt 0.772252 0.36778
vt 0.772252 0.355322
vt 0.931321 0.355322
vt 0.769759 0.389319
vt 0.769759 0.399174
vt 0.757295 0.399174
vt 0.757295 0.389319
vt 0.912981 0.389323
vt 0.935771 0.389319
vt 0.935772 0.399174
vt 0.912982 0.399176
vt 0.769759 0.389319
vt 0.865514 0.389322
vt 0.865514 0.399176
vt 0.769759 0.399174
vt 0.865514 0.389322
vt 0.912981 0.389323
vt 0.912982 0.399176
vt 0.865514 0.399176
vt 0.912982 0.399176
vt 0.931325 0.412692
vt 0.931325 0.43318
vt 0.935772 0.399174
vt 0.935771 0.389319
vt 0.956266 0.389317
vt 0.956267 0.399172
vt 0.77224 0.420719
vt 0.865514 0.399176
vt 0.931325 0.43318
vt 0.77224 0.433179
vt 0.912981 0.389323
vt 0.865514 0.389322
vt 0.931321 0.355322
vt 0.865514 0.399176
vt 0.912982 0.399176
vt 0.931325 0.43318
vt 0.931321 0.375808
vt 0.912981 0.389323
vt 0.931321 0.355322
vt 0.733445 0.523754
vt 0.724347 0.574545
vt 0.718361 0.574545
vt 0.718361 0.523754
vt 0.526129 0.590882
vt 0.487343 0.60688
vt 0.487342 0.601068
vt 0.526128 0.574545
vt 0.651693 0.523754
vt 0.718361 0.523754
vt 0.718361 0.574545
vt 0.651693 0.574545
vt 0.651693 0.590882
vt 0.526129 0.590882
vt 0.526128 0.574545
vt 0.651693 0.574545
vt 0.479141 0.523754
vt 0.526128 0.523754
vt 0.526128 0.574545
vt 0.479141 0.574545
vt 0.526128 0.523754
vt 0.651693 0.523754
vt 0.651693 0.574545
vt 0.526128 0.574545
vt 0.713045 0.606616
vt 0.651693 0.590882
vt 0.651693 0.574545
vt 0.713045 0.600631
vt 0.984319 0.530934
vt 0.993419 0.530933
vt 0.993425 0.577139
vt 0.984326 0.57714
vt 0.464493 0.574545
vt 0.464493 0.523754
vt 0.473328 0.574545
vt 0.973656 0.766664
vt 0.957662 0.727879
vt 0.968594 0.685687
vt 0.984588 0.724472
vt 0.955021 0.594332
vt 0.970751 0.532987
vt 0.984326 0.57714
vt 0.968594 0.638489
vt 0.733445 0.523754
vt 0.733445 0.574545
vt 0.724347 0.574545
vt 0.946695 0.723373
vt 0.946695 0.597812
vt 0.968594 0.638489
vt 0.968594 0.685687
vt 0.473328 0.574545
vt 0.464493 0.523754
vt 0.479141 0.523754
vt 0.479141 0.574545
vt 0.993426 0.724474
vt 0.984588 0.724472
vt 0.968594 0.685687
vt 0.993425 0.577139
vt 0.993426 0.724474
vt 0.968594 0.685687
vt 0.968594 0.638489
vt 0.993425 0.577139
vt 0.968594 0.638489
vt 0.984326 0.57714
vt 0.993409 0.768096
vt 0.984568 0.768092
vt 0.984588 0.724472
vt 0.993426 0.724474
vt 0.011146 0.066705
vt 0.01114 0.085574
vt 0.089465 0.085601
vt 0.089471 0.066732
vt 0.089484 0.028966
vt 0.089491 0.010097
vt 0.011166 0.01007
vt 0.011159 0.028939
vt 0.089484 0.028966
vt 0.011159 0.028939
vt 0.011146 0.066705
vt 0.089471 0.066732
vt 0.865514 0.389322
vt 0.931321 0.355322
vt 0.772252 0.355322
vt 0.772252 0.36778
vt 0.769759 0.389319
vt 0.757295 0.389319
vt 0.757295 0.399174
vt 0.769759 0.399174
vt 0.912981 0.389323
vt 0.912982 0.399176
vt 0.935772 0.399174
vt 0.935771 0.389319
vt 0.769759 0.389319
vt 0.769759 0.399174
vt 0.865514 0.399176
vt 0.865514 0.389322
vt 0.865514 0.389322
vt 0.865514 0.399176
vt 0.912982 0.399176
vt 0.912981 0.389323
vt 0.912982 0.399176
vt 0.931325 0.43318
vt 0.931325 0.412692
vt 0.935772 0.399174
vt 0.956267 0.399172
vt 0.956266 0.389317
vt 0.935771 0.389319
vt 0.77224 0.420719
vt 0.77224 0.433179
vt 0.931325 0.43318
vt 0.865514 0.399176
vt 0.912981 0.389323
vt 0.931321 0.355322
vt 0.865514 0.389322
vt 0.865514 0.399176
vt 0.931325 0.43318
vt 0.912982 0.399176
vt 0.931321 0.375808
vt 0.931321 0.355322
vt 0.912981 0.389323
vt 0.733445 0.523754
vt 0.718361 0.523754
vt 0.718361 0.574545
vt 0.724347 0.574545
vt 0.526129 0.590882
vt 0.526128 0.574545
vt 0.487342 0.601068
vt 0.487343 0.60688
vt 0.651693 0.523754
vt 0.651693 0.574545
vt 0.718361 0.574545
vt 0.718361 0.523754
vt 0.651693 0.590882
vt 0.651693 0.574545
vt 0.526128 0.574545
vt 0.526129 0.590882
vt 0.479141 0.523754
vt 0.479141 0.574545
vt 0.526128 0.574545
vt 0.526128 0.523754
vt 0.526128 0.523754
vt 0.526128 0.574545
vt 0.651693 0.574545
vt 0.651693 0.523754
vt 0.713045 0.606616
vt 0.713045 0.600631
vt 0.651693 0.574545
vt 0.651693 0.590882
vt 0.984319 0.530934
vt 0.984326 0.57714
vt 0.993425 0.577139
vt 0.993419 0.530933
vt 0.464493 0.574545
vt 0.473328 0.574545
vt 0.464493 0.523754
vt 0.973656 0.766664
vt 0.984588 0.724472
vt 0.968594 0.685687
vt 0.957662 0.727879
vt 0.955021 0.594332
vt 0.968594 0.638489
vt 0.984326 0.57714
vt 0.970751 0.532987
vt 0.733445 0.523754
vt 0.724347 0.574545
vt 0.733445 0.574545
vt 0.946695 0.723373
vt 0.968594 0.685687
vt 0.968594 0.638489
vt 0.946695 0.597812
vt 0.473328 0.574545
vt 0.479141 0.574545
vt 0.479141 0.523754
vt 0.464493 0.523754
vt 0.993426 0.724474
vt 0.968594 0.685687
vt 0.984588 0.724472
vt 0.993425 0.577139
vt 0.968594 0.638489
vt 0.968594 0.685687
vt 0.993426 0.724474
vt 0.993425 0.577139
vt 0.984326 0.57714
vt 0.968594 0.638489
vt 0.993409 0.768096
vt 0.993426 0.724474
vt 0.984588 0.724472
vt 0.984568 0.768092
vt 0.357494 0.504675
vt 0.357494 0.466443
vt 0.389551 0.4917
vt 0.389551 0.509881
vt 0.085723 0.483631
vt 0.085729 0.426745
vt 0.119862 0.443943
vt 0.119861 0.466439
vt 0.085729 0.426745
vt 0.085723 0.483631
vt 0.006075 0.483622
vt 0.006081 0.426736
vt 0.357494 0.466443
vt 0.119861 0.466439
vt 0.119862 0.443943
vt 0.357495 0.443943
vt 0.119862 0.405711
vt 0.357494 0.40571
vt 0.357495 0.443943
vt 0.119862 0.443943
vt 0.357494 0.504675
vt 0.11986 0.504671
vt 0.119861 0.466439
vt 0.357494 0.466443
vt 0.81025 0.683259
vt 0.787412 0.683259
vt 0.787412 0.626359
vt 0.810251 0.62636
vt 0.517025 0.303886
vt 0.489968 0.303886
vt 0.498147 0.28765
vt 0.508846 0.28765
vt 0.492243 0.247268
vt 0.514742 0.247266
vt 0.508846 0.28765
vt 0.498147 0.28765
vt 0.357495 0.443943
vt 0.357494 0.40571
vt 0.389553 0.400504
vt 0.389554 0.418685
vt 0.357492 0.589709
vt 0.357494 0.504675
vt 0.387102 0.518021
vt 0.3871 0.58971
vt 0.856197 0.590282
vt 0.87489 0.590281
vt 0.874892 0.619847
vt 0.856198 0.619848
vt 0.891277 0.626362
vt 0.891273 0.683266
vt 0.874892 0.665925
vt 0.874893 0.6437
vt 0.874885 0.719344
vt 0.856192 0.719342
vt 0.856196 0.689775
vt 0.874889 0.689778
vt 0.81025 0.683259
vt 0.810251 0.62636
vt 0.839818 0.626361
vt 0.839816 0.683261
vt 0.920846 0.626365
vt 0.920841 0.683268
vt 0.891273 0.683266
vt 0.891277 0.626362
vt 0.874892 0.665925
vt 0.856198 0.665923
vt 0.856199 0.6437
vt 0.874893 0.6437
vt 0.856198 0.619848
vt 0.874892 0.619847
vt 0.874893 0.6437
vt 0.856199 0.6437
vt 0.874889 0.689778
vt 0.856196 0.689775
vt 0.856198 0.665923
vt 0.874892 0.665925
vt 0.839816 0.683261
vt 0.839818 0.626361
vt 0.856199 0.6437
vt 0.856198 0.665923
vt 0.053115 0.343516
vt 0.357494 0.320677
vt 0.357494 0.40571
vt 0.119862 0.405711
vt 0.053111 0.566865
vt 0.357492 0.589709
vt 0.053111 0.589704
vt 0.053115 0.343516
vt 0.119862 0.405711
vt 0.053115 0.36221
vt 0.489968 0.375572
vt 0.489968 0.303886
vt 0.517025 0.303886
vt 0.517025 0.375572
vt 0.053115 0.320677
vt 0.357494 0.320677
vt 0.053115 0.343516
vt 0.11986 0.504671
vt 0.357494 0.504675
vt 0.357492 0.589709
vt 0.053111 0.566865
vt 0.357494 0.40571
vt 0.357494 0.320677
vt 0.387102 0.320677
vt 0.387102 0.392365
vt 0.11986 0.504671
vt 0.053111 0.566865
vt 0.053112 0.54817
vt 0.357494 0.504675
vt 0.389551 0.509881
vt 0.389551 0.4917
vt 0.357494 0.466443
vt 0.085723 0.483631
vt 0.119861 0.466439
vt 0.119862 0.443943
vt 0.085729 0.426745
vt 0.085729 0.426745
vt 0.006081 0.426736
vt 0.006075 0.483622
vt 0.085723 0.483631
vt 0.357494 0.466443
vt 0.357495 0.443943
vt 0.119862 0.443943
vt 0.119861 0.466439
vt 0.119862 0.405711
vt 0.119862 0.443943
vt 0.357495 0.443943
vt 0.357494 0.40571
vt 0.357494 0.504675
vt 0.357494 0.466443
vt 0.119861 0.466439
vt 0.11986 0.504671
vt 0.81025 0.683259
vt 0.810251 0.62636
vt 0.787412 0.626359
vt 0.787412 0.683259
vt 0.517025 0.303886
vt 0.508846 0.28765
vt 0.498147 0.28765
vt 0.489968 0.303886
vt 0.492243 0.247268
vt 0.498147 0.28765
vt 0.508846 0.28765
vt 0.514742 0.247266
vt 0.357495 0.443943
vt 0.389554 0.418685
vt 0.389553 0.400504
vt 0.357494 0.40571
vt 0.357492 0.589709
vt 0.3871 0.58971
vt 0.387102 0.518021
vt 0.357494 0.504675
vt 0.856197 0.590282
vt 0.856198 0.619848
vt 0.874892 0.619847
vt 0.87489 0.590281
vt 0.891277 0.626362
vt 0.874893 0.6437
vt 0.874892 0.665925
vt 0.891273 0.683266
vt 0.874885 0.719344
vt 0.874889 0.689778
vt 0.856196 0.689775
vt 0.856192 0.719342
vt 0.81025 0.683259
vt 0.839816 0.683261
vt 0.839818 0.626361
vt 0.810251 0.62636
vt 0.920846 0.626365
vt 0.891277 0.626362
vt 0.891273 0.683266
vt 0.920841 0.683268
vt 0.874892 0.665925
vt 0.874893 0.6437
vt 0.856199 0.6437
vt 0.856198 0.665923
vt 0.856198 0.619848
vt 0.856199 0.6437
vt 0.874893 0.6437
vt 0.874892 0.619847
vt 0.874889 0.689778
vt 0.874892 0.665925
vt 0.856198 0.665923
vt 0.856196 0.689775
vt 0.839816 0.683261
vt 0.856198 0.665923
vt 0.856199 0.6437
vt 0.839818 0.626361
vt 0.053115 0.343516
vt 0.119862 0.405711
vt 0.357494 0.40571
vt 0.357494 0.320677
vt 0.053111 0.566865
vt 0.053111 0.589704
vt 0.357492 0.589709
vt 0.053115 0.343516
vt 0.053115 0.36221
vt 0.119862 0.405711
vt 0.489968 0.375572
vt 0.517025 0.375572
vt 0.517025 0.303886
vt 0.489968 0.303886
vt 0.053115 0.320677
vt 0.053115 0.343516
vt 0.357494 0.320677
vt 0.11986 0.504671
vt 0.053111 0.566865
vt 0.357492 0.589709
vt 0.357494 0.504675
vt 0.357494 0.40571
vt 0.387102 0.392365
vt 0.387102 0.320677
vt 0.357494 0.320677
vt 0.11986 0.504671
vt 0.053112 0.54817
vt 0.053111 0.566865
f 1/1 8/2 7/3 3/4
f 2/5 1/6 3/7 4/8
f 6/9 15/10 16/11 5/12
f 4/13 6/14 5/15 2/16
f 13/17 7/18 8/19 14/20
f 19/21 20/22 9/23 11/24
f 11/25 9/26 10/27 12/28
f 18/29 17/30 16/31 15/32
f 12/33 10/34 17/35 18/36
f 13/37 14/38 20/39 19/40
f 57/41 23/42 21/43 58/44
f 24/45 59/46 60/47 22/48
f 24/49 23/50 57/51 59/52
f 32/53 30/54 26/55 33/56
f 30/57 27/58 25/59 26/60
f 36/61 29/62 28/63 34/64
f 30/65 32/66 31/67 27/68
f 32/69 36/70 34/71 31/72
f 34/73 28/74 35/75
f 28/76 29/77 33/78 35/79
f 27/80 31/81 35/82 25/83
f 36/84 32/85 33/86
f 31/87 34/88 35/89
f 29/90 36/91 33/92
f 86/93 43/94 37/95 77/96
f 45/97 44/98 38/99 41/100
f 83/101 77/102 37/103 42/104
f 46/105 45/106 41/107 42/108
f 79/109 81/110 41/111 38/112
f 81/113 83/114 42/115 41/116
f 43/117 46/118 42/119 37/120
f 43/121 39/122 47/123 49/124
f 40/125 78/126 44/127
f 44/128 45/129 51/130 50/131
f 46/132 43/133 49/134 52/135
f 86/136 39/137 43/138
f 45/139 46/140 52/141 51/142
f 44/143 78/144 79/145 38/146
f 48/147 50/148 51/149
f 47/150 48/151 51/152 52/153
f 47/154 52/155 49/156
f 40/157 44/158 50/159 48/160
f 57/161 58/162 53/163 55/164
f 56/165 54/166 60/167 59/168
f 56/169 59/170 57/171 55/172
f 68/173 69/174 62/175 66/176
f 66/177 62/178 61/179 63/180
f 72/181 70/182 64/183 65/184
f 66/185 63/186 67/187 68/188
f 68/189 67/190 70/191 72/192
f 70/193 71/194 64/195
f 64/196 71/197 69/198 65/199
f 63/200 61/201 71/202 67/203
f 72/204 69/205 68/206
f 67/207 71/208 70/209
f 65/210 69/211 72/212
f 86/213 77/214 73/215 84/216
f 87/217 80/218 74/219 85/220
f 83/221 82/222 73/223 77/224
f 88/225 82/226 80/227 87/228
f 79/229 74/230 80/231 81/232
f 81/233 80/234 82/235 83/236
f 84/237 73/238 82/239 88/240
f 84/241 91/242 89/243 75/244
f 76/245 85/246 78/247
f 85/248 92/249 93/250 87/251
f 88/252 94/253 91/254 84/255
f 86/256 84/257 75/258
f 87/259 93/260 94/261 88/262
f 85/263 74/264 79/265 78/266
f 90/267 93/268 92/269
f 89/270 94/271 93/272 90/273
f 89/274 91/275 94/276
f 76/277 90/278 92/279 85/280
f 97/281 101/282 108/283 106/284
f 98/285 96/286 100/287 102/288
f 96/289 98/290 104/291 103/292
f 101/293 102/294 100/295 99/296
f 96/297 95/298 99/299 100/300
f 97/301 98/302 102/303 101/304
f 110/305 129/306 130/307 109/308
f 105/309 106/310 108/311 107/312
f 101/313 99/314 107/315 108/316
f 99/317 95/318 105/319 107/320
f 136/321 97/322 106/323 138/324
f 109/325 103/326 111/327 113/328
f 111/329 112/330 116/331 115/332
f 104/333 110/334 114/335 112/336
f 110/337 109/338 113/339 114/340
f 103/341 104/342 112/343 111/344
f 116/345 118/346 117/347 115/348
f 113/349 111/350 115/351 117/352
f 112/353 114/354 118/355 116/356
f 114/357 113/358 117/359 118/360
f 109/361 137/362 95/363 96/364
f 110/365 136/366 129/367
f 109/368 96/369 103/370
f 138/371 106/372 105/373 133/374
f 130/375 137/376 109/377
f 98/378 97/379 136/380 110/381
f 95/382 137/383 133/384 105/385
f 98/386 110/387 104/388
f 121/389 132/390 135/391 125/392
f 122/393 126/394 124/395 120/396
f 120/397 127/398 128/399 122/400
f 125/401 123/402 124/403 126/404
f 120/405 124/406 123/407 119/408
f 121/409 125/410 126/411 122/412
f 140/413 139/414 130/415 129/416
f 131/417 134/418 135/419 132/420
f 125/421 135/422 134/423 123/424
f 123/425 134/426 131/427 119/428
f 136/429 138/430 132/431 121/432
f 139/433 143/434 141/435 127/436
f 141/437 145/438 146/439 142/440
f 128/441 142/442 144/443 140/444
f 140/445 144/446 143/447 139/448
f 127/449 141/450 142/451 128/452
f 146/453 145/454 147/455 148/456
f 143/457 147/458 145/459 141/460
f 142/461 146/462 148/463 144/464
f 144/465 148/466 147/467 143/468
f 139/469 120/470 119/471 137/472
f 140/473 129/474 136/475
f 139/476 127/477 120/478
f 138/479 133/480 131/481 132/482
f 130/483 139/484 137/485
f 122/486 140/487 136/488 121/489
f 119/490 131/491 133/492 137/493
f 122/494 128/495 140/496
