# Converted from MissileMountLeft.fbx
o MissileMountLeft
v -0.001327 -0.168243 0.39672
v -0.001327 -0.168243 -0.31627
v 0.206306 -0.168243 -0.31627
v 0.206306 -0.168243 0.39672
v -0.001327 0.168243 0.39672
v -0.001327 0.168243 -0.31627
v 0.206306 0.168243 -0.31627
v 0.206306 0.168243 0.39672
v 0.273256 -0.101226 -0.31627
v 0.273256 -0.101226 0.39672
v 0.273256 0.101226 -0.31627
v 0.273256 0.101226 0.39672
v 0.067475 -0.129234 0.39672
v 0.194845 -0.129234 0.39672
v 0.067475 0.129234 0.39672
v 0.194845 0.129234 0.39672
v 0.246271 -0.077756 0.39672
v 0.246271 0.077756 0.39672
v 0.067475 -0.129234 0.355485
v 0.194845 -0.129234 0.355485
v 0.067475 0.129234 0.355485
v 0.194845 0.129234 0.355485
v 0.246271 -0.077756 0.355485
v 0.246271 0.077756 0.355485
v -0.001351 -0.10708 -0.39672
v 0.180734 -0.10708 -0.39672
v -0.001351 0.10708 -0.39672
v 0.180734 0.10708 -0.39672
v 0.223345 -0.064426 -0.39672
v 0.223345 0.064426 -0.39672
vt 0.502993 0.20078
vt 0.433893 0.200773
vt 0.433901 0.119499
vt 0.503001 0.119508
vt 0.381795 0.121709
vt 0.381797 0.085753
vt 0.420192 0.095319
vt 0.42019 0.118204
vt 0.085752 0.223987
vt 0.006939 0.223991
vt 0.033054 0.209183
vt 0.081401 0.20918
vt 0.111163 0.198548
vt 0.085752 0.223987
vt 0.081401 0.20918
vt 0.10092 0.189639
vt 0.111165 0.006932
vt 0.381799 0.00694
vt 0.381797 0.085753
vt 0.111163 0.085745
vt 0.111164 0.234504
vt 0.381791 0.234508
vt 0.38179 0.313318
vt 0.111164 0.313314
vt 0.381791 0.198552
vt 0.111163 0.198548
vt 0.111163 0.121702
vt 0.381795 0.121709
vt 0.381797 0.085753
vt 0.381799 0.00694
vt 0.42016 0.006932
vt 0.420157 0.076048
vt 0.111163 0.085745
vt 0.381797 0.085753
vt 0.381795 0.121709
vt 0.111163 0.121702
vt 0.381791 0.234508
vt 0.111164 0.234504
vt 0.111163 0.198548
vt 0.381791 0.198552
vt 0.006939 0.223991
vt 0.006932 0.096267
vt 0.033049 0.111073
vt 0.033054 0.209183
vt 0.085747 0.096263
vt 0.111163 0.121702
vt 0.100919 0.130611
vt 0.081397 0.111071
vt 0.006932 0.096267
vt 0.085747 0.096263
vt 0.081397 0.111071
vt 0.033049 0.111073
vt 0.111163 0.121702
vt 0.111163 0.198548
vt 0.10092 0.189639
vt 0.100919 0.130611
vt 0.950319 0.550649
vt 0.930798 0.570188
vt 0.919726 0.559126
vt 0.939246 0.539587
vt 0.919726 0.574778
vt 0.87138 0.574777
vt 0.871381 0.559126
vt 0.919726 0.559126
vt 0.930798 0.449958
vt 0.950318 0.469497
vt 0.939246 0.480559
vt 0.919726 0.46102
vt 0.954897 0.480559
vt 0.954897 0.539587
vt 0.939246 0.539587
vt 0.939246 0.480559
vt 0.855729 0.559126
vt 0.85573 0.46102
vt 0.871382 0.46102
vt 0.871381 0.559126
vt 0.871381 0.445369
vt 0.919726 0.445369
vt 0.919726 0.46102
vt 0.871382 0.46102
vt 0.871382 0.46102
vt 0.919726 0.46102
vt 0.919726 0.559126
vt 0.871381 0.559126
vt 0.939246 0.539587
vt 0.919726 0.559126
vt 0.919726 0.46102
vt 0.939246 0.480559
vt 0.433901 0.119499
vt 0.433893 0.200773
vt 0.417725 0.184585
vt 0.417729 0.135682
vt 0.381791 0.198552
vt 0.381795 0.121709
vt 0.417729 0.135682
vt 0.417725 0.184585
vt 0.381791 0.234508
vt 0.381791 0.198552
vt 0.420186 0.20206
vt 0.420185 0.224944
vt 0.38179 0.313318
vt 0.381791 0.234508
vt 0.420149 0.244214
vt 0.420149 0.313328
f 27/1 28/2 26/3 25/4
f 9/5 3/6 26/7 29/8
f 8/9 5/10 15/11 16/12
f 12/13 8/14 16/15 18/16
f 1/17 2/18 3/19 4/20
f 8/21 7/22 6/23 5/24
f 11/25 12/26 10/27 9/28
f 3/29 2/30 25/31 26/32
f 4/33 3/34 9/35 10/36
f 7/37 8/38 12/39 11/40
f 5/41 1/42 13/43 15/44
f 4/45 10/46 17/47 14/48
f 1/49 4/50 14/51 13/52
f 10/53 12/54 18/55 17/56
f 18/57 16/58 22/59 24/60
f 16/61 15/62 21/63 22/64
f 14/65 17/66 23/67 20/68
f 17/69 18/70 24/71 23/72
f 15/73 13/74 19/75 21/76
f 13/77 14/78 20/79 19/80
f 19/81 20/82 22/83 21/84
f 24/85 22/86 20/87 23/88
f 26/89 28/90 30/91 29/92
f 11/93 9/94 29/95 30/96
f 7/97 11/98 30/99 28/100
f 6/101 7/102 28/103 27/104
