# Converted from MissileMountRight.fbx
o MissileMountRight
v 0.002563 -0.168243 0.39672
v 0.002563 -0.168243 -0.31627
v -0.20507 -0.168243 -0.31627
v -0.20507 -0.168243 0.39672
v 0.002563 0.168243 0.39672
v 0.002563 0.168243 -0.31627
v -0.20507 0.168243 -0.31627
v -0.20507 0.168243 0.39672
v -0.27202 -0.101226 -0.31627
v -0.27202 -0.101226 0.39672
v -0.27202 0.101226 -0.31627
v -0.27202 0.101226 0.39672
v -0.066239 -0.129234 0.39672
v -0.193609 -0.129234 0.39672
v -0.066239 0.129234 0.39672
v -0.193609 0.129234 0.39672
v -0.245035 -0.077756 0.39672
v -0.245035 0.077756 0.39672
v -0.066239 -0.129234 0.355485
v -0.193609 -0.129234 0.355485
v -0.066239 0.129234 0.355485
v -0.193609 0.129234 0.355485
v -0.245035 -0.077756 0.355485
v -0.245035 0.077756 0.355485
v 0.002587 -0.10708 -0.39672
v -0.179498 -0.10708 -0.39672
v 0.002587 0.10708 -0.39672
v -0.179498 0.10708 -0.39672
v -0.222109 -0.064426 -0.39672
v -0.222109 0.064426 -0.39672
vt 0.502993 0.20078
vt 0.503001 0.119508
vt 0.433901 0.119499
vt 0.433893 0.200773
vt 0.381795 0.121709
vt 0.42019 0.118204
vt 0.420192 0.095319
vt 0.381797 0.085753
vt 0.085752 0.223987
vt 0.081401 0.20918
vt 0.033054 0.209183
vt 0.006939 0.223991
vt 0.111163 0.198548
vt 0.10092 0.189639
vt 0.081401 0.20918
vt 0.085752 0.223987
vt 0.111165 0.006932
vt 0.111163 0.085745
vt 0.381797 0.085753
vt 0.381799 0.00694
vt 0.111164 0.234504
vt 0.111164 0.313314
vt 0.38179 0.313318
vt 0.381791 0.234508
vt 0.381791 0.198552
vt 0.381795 0.121709
vt 0.111163 0.121702
vt 0.111163 0.198548
vt 0.381797 0.085753
vt 0.420157 0.076048
vt 0.42016 0.006932
vt 0.381799 0.00694
vt 0.111163 0.085745
vt 0.111163 0.121702
vt 0.381795 0.121709
vt 0.381797 0.085753
vt 0.381791 0.234508
vt 0.381791 0.198552
vt 0.111163 0.198548
vt 0.111164 0.234504
vt 0.033049 0.111073
vt 0.006932 0.096267
vt 0.006939 0.223991
vt 0.033054 0.209183
vt 0.085747 0.096263
vt 0.081397 0.111071
vt 0.100919 0.130611
vt 0.111163 0.121702
vt 0.006932 0.096267
vt 0.033049 0.111073
vt 0.081397 0.111071
vt 0.085747 0.096263
vt 0.111163 0.121702
vt 0.100919 0.130611
vt 0.10092 0.189639
vt 0.111163 0.198548
vt 0.950319 0.550649
vt 0.939246 0.539587
vt 0.919726 0.559126
vt 0.930798 0.570188
vt 0.919726 0.574778
vt 0.919726 0.559126
vt 0.871381 0.559126
vt 0.87138 0.574777
vt 0.930798 0.449958
vt 0.919726 0.46102
vt 0.939246 0.480559
vt 0.950318 0.469497
vt 0.954897 0.480559
vt 0.939246 0.480559
vt 0.939246 0.539587
vt 0.954897 0.539587
vt 0.855729 0.559126
vt 0.871381 0.559126
vt 0.871382 0.46102
vt 0.85573 0.46102
vt 0.871381 0.445369
vt 0.871382 0.46102
vt 0.919726 0.46102
vt 0.919726 0.445369
vt 0.871382 0.46102
vt 0.871381 0.559126
vt 0.919726 0.559126
vt 0.919726 0.46102
vt 0.939246 0.539587
vt 0.939246 0.480559
vt 0.919726 0.46102
vt 0.919726 0.559126
vt 0.433901 0.119499
vt 0.417729 0.135682
vt 0.417725 0.184585
vt 0.433893 0.200773
vt 0.381791 0.198552
vt 0.417725 0.184585
vt 0.417729 0.135682
vt 0.381795 0.121709
vt 0.381791 0.234508
vt 0.420185 0.224944
vt 0.420186 0.20206
vt 0.381791 0.198552
vt 0.38179 0.313318
vt 0.420149 0.313328
vt 0.420149 0.244214
vt 0.381791 0.234508
f 27/1 25/2 26/3 28/4
f 9/5 29/6 26/7 3/8
f 8/9 16/10 15/11 5/12
f 12/13 18/14 16/15 8/16
f 1/17 4/18 3/19 2/20
f 8/21 5/22 6/23 7/24
f 11/25 9/26 10/27 12/28
f 3/29 26/30 25/31 2/32
f 4/33 10/34 9/35 3/36
f 7/37 11/38 12/39 8/40
f 13/41 1/42 5/43 15/44
f 4/45 14/46 17/47 10/48
f 1/49 13/50 14/51 4/52
f 10/53 17/54 18/55 12/56
f 18/57 24/58 22/59 16/60
f 16/61 22/62 21/63 15/64
f 14/65 20/66 23/67 17/68
f 17/69 23/70 24/71 18/72
f 15/73 21/74 19/75 13/76
f 13/77 19/78 20/79 14/80
f 19/81 21/82 22/83 20/84
f 24/85 23/86 20/87 22/88
f 26/89 29/90 30/91 28/92
f 11/93 30/94 29/95 9/96
f 7/97 28/98 30/99 11/100
f 6/101 27/102 28/103 7/104
