# Converted from DestroyerHeavyTorpedoTube.fbx
o DestroyerHeavyTorpedoTube
v -0.33528 -0.104963 0.473084
v -0.407485 -0.127568 -0.019668
v 0.407485 -0.127568 -0.019668
v 0.335279 -0.104963 0.473084
v -0.33528 0.104963 0.473084
v -0.407485 0.127568 -0.019668
v 0.407485 0.127568 -0.019668
v 0.335279 0.104963 0.473084
v -0.269747 0.246377 -0.019668
v 0.269747 0.246377 -0.019668
v 0.269747 -0.246377 -0.019668
v -0.269747 -0.246377 -0.019668
v 0.221948 0.202721 0.473084
v -0.221949 0.202721 0.473084
v -0.221949 -0.20272 0.473084
v 0.221948 -0.20272 0.473084
v -0.262773 -0.077932 0.473084
v 0.262773 -0.077932 0.473084
v -0.262773 0.077932 0.473084
v 0.262773 0.077932 0.473084
v 0.173949 0.150515 0.473084
v -0.17395 0.150515 0.473084
v -0.17395 -0.150514 0.473084
v 0.173949 -0.150514 0.473084
v -0.262773 -0.077932 0.253968
v 0.262773 -0.077932 0.253968
v -0.262773 0.077932 0.253968
v 0.262773 0.077932 0.253968
v 0.173949 0.150515 0.253968
v -0.17395 0.150515 0.253968
v -0.17395 -0.150514 0.253968
v 0.173949 -0.150514 0.253968
vt 0.494459 0.669182
vt 0.475128 0.671621
vt 0.47208 0.633671
vt 0.487986 0.631665
vt 0.400206 0.62455
vt 0.403754 0.619824
vt 0.41517 0.623197
vt 0.415581 0.629092
vt 0.507915 0.665732
vt 0.494459 0.669182
vt 0.487986 0.631665
vt 0.499057 0.628826
vt 0.420171 0.668292
vt 0.406461 0.666055
vt 0.415581 0.629092
vt 0.426861 0.630933
vt 0.427903 0.625618
vt 0.426861 0.630933
vt 0.415581 0.629092
vt 0.419223 0.624438
vt 0.389736 0.619965
vt 0.400206 0.62455
vt 0.387775 0.660535
vt 0.37505 0.654963
vt 0.499057 0.628826
vt 0.531107 0.61778
vt 0.546867 0.652308
vt 0.507915 0.665732
vt 0.46065 0.633671
vt 0.47208 0.633671
vt 0.475128 0.671621
vt 0.461237 0.671621
vt 0.426861 0.630933
vt 0.46065 0.633671
vt 0.461237 0.671621
vt 0.420171 0.668292
vt 0.46065 0.633671
vt 0.460479 0.628258
vt 0.469236 0.628492
vt 0.47208 0.633671
vt 0.485245 0.626429
vt 0.487986 0.631665
vt 0.47208 0.633671
vt 0.473435 0.627919
vt 0.399678 0.618664
vt 0.400206 0.62455
vt 0.389736 0.619965
vt 0.39175 0.614938
vt 0.497879 0.62354
vt 0.499057 0.628826
vt 0.487986 0.631665
vt 0.489455 0.625941
vt 0.56756 0.694469
vt 0.584293 0.694469
vt 0.584293 0.703229
vt 0.56756 0.703229
vt 0.56756 0.626575
vt 0.584293 0.626575
vt 0.584293 0.638478
vt 0.56756 0.638478
vt 0.56756 0.647238
vt 0.584293 0.647238
vt 0.584293 0.673806
vt 0.56756 0.673806
vt 0.56756 0.673806
vt 0.584293 0.673806
vt 0.584293 0.682566
vt 0.56756 0.682566
vt 0.56756 0.682566
vt 0.584293 0.682566
vt 0.584293 0.694469
vt 0.56756 0.694469
vt 0.56756 0.638478
vt 0.584293 0.638478
vt 0.584293 0.647238
vt 0.56756 0.647238
vt 0.56756 0.617815
vt 0.584293 0.617815
vt 0.584293 0.626575
vt 0.56756 0.626575
vt 0.56756 0.703229
vt 0.584293 0.703229
vt 0.584294 0.729798
vt 0.56756 0.729798
vt 0.550113 0.696446
vt 0.562017 0.696446
vt 0.562017 0.736581
vt 0.550114 0.736581
vt 0.426861 0.630933
vt 0.430837 0.627255
vt 0.457319 0.629401
vt 0.46065 0.633671
vt 0.56756 0.703229
vt 0.56756 0.729798
vt 0.562017 0.736581
vt 0.562017 0.696446
vt 0.544571 0.729798
vt 0.54457 0.703229
vt 0.550113 0.696446
vt 0.550114 0.736581
vt 0.499057 0.628826
vt 0.501224 0.623862
vt 0.526343 0.615206
vt 0.531107 0.61778
vt 0.400206 0.62455
vt 0.415581 0.629092
vt 0.406461 0.666055
vt 0.387775 0.660535
f 3/1 7/2 8/3 4/4
f 1/5 17/6 19/7 5/8
f 11/9 3/10 4/11 16/12
f 9/13 6/14 5/15 14/16
f 22/17 14/18 5/19 19/20
f 15/21 1/22 2/23 12/24
f 16/25 15/26 12/27 11/28
f 13/29 8/30 7/31 10/32
f 14/33 13/34 10/35 9/36
f 13/37 21/38 20/39 8/40
f 18/41 4/42 8/43 20/44
f 17/45 1/46 15/47 23/48
f 24/49 16/50 4/51 18/52
f 28/53 20/54 21/55 29/56
f 27/57 19/58 17/59 25/60
f 31/61 23/62 24/63 32/64
f 32/65 24/66 18/67 26/68
f 26/69 18/70 20/71 28/72
f 25/73 17/74 23/75 31/76
f 30/77 22/78 19/79 27/80
f 29/81 21/82 22/83 30/84
f 26/85 28/86 27/87 25/88
f 14/89 22/90 21/91 13/92
f 29/93 30/94 27/95 28/96
f 31/97 32/98 26/99 25/100
f 16/101 24/102 23/103 15/104
f 1/105 5/106 6/107 2/108
