# Converted from DestroyerFlakTurretBarrel.fbx
o DestroyerFlakTurretBarrel
v 0.04613 -0.057258 0.36669
v 0.04613 -0.059309 0.197273
v 0.071335 -0.059309 0.197273
v 0.071335 -0.057258 0.36669
v 0.04613 -0.052435 0.197273
v 0.04613 -0.082479 0.24897
v 0.071335 -0.052435 0.197273
v 0.071335 -0.082479 0.24897
v 0.04613 -0.082479 0.338102
v 0.071335 -0.034245 0.36669
v 0.04613 -0.034245 0.36669
v 0.071335 -0.082479 0.338102
v 0.040737 -0.052989 0.329216
v 0.040737 -0.052989 -0.020952
v 0.076083 -0.052989 -0.020952
v 0.076083 -0.052989 0.329216
v 0.040737 0.054685 0.329216
v 0.040737 0.054685 -0.020952
v 0.076083 0.054685 -0.020952
v 0.076083 0.054685 0.329216
v 0.023519 0.031525 -0.020952
v 0.023519 -0.029829 -0.020952
v 0.023519 -0.029829 0.329216
v 0.023519 0.031525 0.329216
v 0.093301 0.031525 -0.020952
v 0.093301 -0.029829 -0.020952
v 0.093301 0.031525 0.329216
v 0.093301 -0.029829 0.329216
v 0.045975 -0.037034 0.385353
v 0.070846 -0.037034 0.385353
v 0.045975 0.03873 0.385353
v 0.070846 0.03873 0.385353
v 0.033859 -0.020737 0.385353
v 0.033859 0.022434 0.385353
v 0.082961 0.022434 0.385353
v 0.082961 -0.020737 0.385353
v 0.049054 -0.028957 0.385353
v 0.067766 -0.028957 0.385353
v 0.049054 0.030653 0.385353
v 0.067766 0.030653 0.385353
v 0.039939 -0.016135 0.385353
v 0.039939 0.017831 0.385353
v 0.076882 0.017831 0.385353
v 0.076882 -0.016135 0.385353
v 0.049054 -0.028957 0.344658
v 0.067766 -0.028957 0.344658
v 0.049054 0.030653 0.344658
v 0.067766 0.030653 0.344658
v 0.039939 -0.016135 0.344658
v 0.039939 0.017831 0.344658
v 0.076882 0.017831 0.344658
v 0.076882 -0.016135 0.344658
v -0.04613 -0.057258 0.36669
v -0.04613 -0.059309 0.197273
v -0.071335 -0.059309 0.197273
v -0.071335 -0.057258 0.36669
v -0.04613 -0.052435 0.197273
v -0.04613 -0.082479 0.24897
v -0.071335 -0.052435 0.197273
v -0.071335 -0.082479 0.24897
v -0.04613 -0.082479 0.338102
v -0.071335 -0.034245 0.36669
v -0.04613 -0.034245 0.36669
v -0.071335 -0.082479 0.338102
v -0.040737 -0.052989 0.329216
v -0.040737 -0.052989 -0.020952
v -0.076083 -0.052989 -0.020952
v -0.076083 -0.052989 0.329216
v -0.040737 0.054685 0.329216
v -0.040737 0.054685 -0.020952
v -0.076083 0.054685 -0.020952
v -0.076083 0.054685 0.329216
v -0.023519 0.031525 -0.020952
v -0.023519 -0.029829 -0.020952
v -0.023519 -0.029829 0.329216
v -0.023519 0.031525 0.329216
v -0.093301 0.031525 -0.020952
v -0.093301 -0.029829 -0.020952
v -0.093301 0.031525 0.329216
v -0.093301 -0.029829 0.329216
v -0.045975 -0.037034 0.385353
v -0.070846 -0.037034 0.385353
v -0.045975 0.03873 0.385353
v -0.070846 0.03873 0.385353
v -0.033859 -0.020737 0.385353
v -0.033859 0.022434 0.385353
v -0.082961 0.022434 0.385353
v -0.082961 -0.020737 0.385353
v -0.049054 -0.028957 0.385353
v -0.067766 -0.028957 0.385353
v -0.049054 0.030653 0.385353
v -0.067766 0.030653 0.385353
v -0.039939 -0.016135 0.385353
v -0.039939 0.017831 0.385353
v -0.076882 0.017831 0.385353
v -0.076882 -0.016135 0.385353
v -0.049054 -0.028957 0.344658
v -0.067766 -0.028957 0.344658
v -0.049054 0.030653 0.344658
v -0.067766 0.030653 0.344658
v -0.039939 -0.016135 0.344658
v -0.039939 0.017831 0.344658
v -0.076882 0.017831 0.344658
v -0.076882 -0.016135 0.344658
vt 0.597179 0.902792
vt 0.59718 0.8894
vt 0.603138 0.8894
vt 0.603137 0.902792
vt 0.585776 0.93062
vt 0.590077 0.890571
vt 0.597179 0.902792
vt 0.597178 0.923861
vt 0.597178 0.923861
vt 0.597179 0.902792
vt 0.603137 0.902792
vt 0.603136 0.923862
vt 0.610239 0.890572
vt 0.614538 0.93062
vt 0.603136 0.923862
vt 0.603137 0.902792
vt 0.597178 0.932873
vt 0.597178 0.923861
vt 0.603136 0.923862
vt 0.603136 0.932873
vt 0.590077 0.890571
vt 0.591702 0.890571
vt 0.597179 0.902792
vt 0.59718 0.887775
vt 0.603138 0.887776
vt 0.603138 0.8894
vt 0.59718 0.8894
vt 0.614538 0.93062
vt 0.609098 0.930619
vt 0.603136 0.923862
vt 0.597178 0.932873
vt 0.603136 0.932873
vt 0.603136 0.938313
vt 0.597178 0.938313
vt 0.610239 0.890572
vt 0.603137 0.902792
vt 0.608614 0.890572
vt 0.597178 0.923861
vt 0.591216 0.93062
vt 0.585776 0.93062
vt 0.123497 0.050698
vt 0.123497 0.003387
vt 0.127396 0.003387
vt 0.127396 0.050698
vt 0.094345 0.003387
vt 0.094344 0.050697
vt 0.090445 0.050697
vt 0.090446 0.003387
vt 0.090445 0.050697
vt 0.094344 0.050697
vt 0.094497 0.058505
vt 0.091753 0.058505
vt 0.08567 0.050697
vt 0.08567 0.003387
vt 0.090446 0.003387
vt 0.090445 0.050697
vt 0.106533 0.050697
vt 0.106533 0.003387
vt 0.111309 0.003387
vt 0.111308 0.050697
vt 0.111308 0.050697
vt 0.111309 0.003387
vt 0.115208 0.003386
vt 0.115207 0.050697
vt 0.115207 0.050697
vt 0.115208 0.003386
vt 0.123497 0.003387
vt 0.123497 0.050698
vt 0.106533 0.003387
vt 0.106533 0.050697
vt 0.102634 0.050697
vt 0.102634 0.003387
vt 0.102634 0.003387
vt 0.102634 0.050697
vt 0.094344 0.050697
vt 0.094345 0.003387
vt 0.115207 0.050697
vt 0.123497 0.050698
vt 0.122268 0.05841
vt 0.116435 0.05841
vt 0.094344 0.050697
vt 0.102634 0.050697
vt 0.101406 0.058409
vt 0.095573 0.058409
vt 0.102634 0.050697
vt 0.106533 0.050697
vt 0.105224 0.058503
vt 0.102481 0.058503
vt 0.08567 0.050697
vt 0.090445 0.050697
vt 0.089738 0.058582
vt 0.086377 0.058582
vt 0.123497 0.050698
vt 0.127396 0.050698
vt 0.126088 0.058506
vt 0.123344 0.058506
vt 0.106533 0.050697
vt 0.111308 0.050697
vt 0.1106 0.058582
vt 0.10724 0.058582
vt 0.111308 0.050697
vt 0.115207 0.050697
vt 0.115359 0.058505
vt 0.112616 0.058505
vt 0.102481 0.058503
vt 0.105224 0.058503
vt 0.104597 0.059488
vt 0.102472 0.059533
vt 0.10724 0.058582
vt 0.1106 0.058582
vt 0.110184 0.059674
vt 0.107656 0.059674
vt 0.116435 0.05841
vt 0.122268 0.05841
vt 0.121647 0.059231
vt 0.117057 0.059231
vt 0.112616 0.058505
vt 0.115359 0.058505
vt 0.115368 0.059535
vt 0.113243 0.05949
vt 0.123344 0.058506
vt 0.126088 0.058506
vt 0.12546 0.059491
vt 0.123335 0.059536
vt 0.095573 0.058409
vt 0.101406 0.058409
vt 0.100784 0.059231
vt 0.096195 0.059231
vt 0.091753 0.058505
vt 0.094497 0.058505
vt 0.094506 0.059535
vt 0.092381 0.05949
vt 0.086377 0.058582
vt 0.089738 0.058582
vt 0.089322 0.059674
vt 0.086793 0.059673
vt 0.586496 0.849524
vt 0.586503 0.840675
vt 0.597105 0.840683
vt 0.597099 0.849532
vt 0.586493 0.853623
vt 0.586496 0.849524
vt 0.597099 0.849532
vt 0.597095 0.853632
vt 0.586489 0.858498
vt 0.586493 0.853623
vt 0.597095 0.853632
vt 0.597091 0.858507
vt 0.586503 0.840675
vt 0.586506 0.836577
vt 0.597108 0.836584
vt 0.597105 0.840683
vt 0.586468 0.880421
vt 0.586473 0.875545
vt 0.597076 0.875555
vt 0.597071 0.880431
vt 0.586477 0.871446
vt 0.586485 0.862597
vt 0.597088 0.862606
vt 0.59708 0.871456
vt 0.586473 0.875545
vt 0.586477 0.871446
vt 0.59708 0.871456
vt 0.597076 0.875555
vt 0.586485 0.862597
vt 0.586489 0.858498
vt 0.597091 0.858507
vt 0.597088 0.862606
vt 0.60926 0.882819
vt 0.60927 0.873193
vt 0.612609 0.875572
vt 0.612604 0.880448
vt 0.60041 0.88281
vt 0.600419 0.873184
vt 0.60927 0.873193
vt 0.60926 0.882819
vt 0.600419 0.873184
vt 0.60041 0.88281
vt 0.597071 0.880431
vt 0.597076 0.875555
vt 0.597179 0.902792
vt 0.603137 0.902792
vt 0.603138 0.8894
vt 0.59718 0.8894
vt 0.585776 0.93062
vt 0.597178 0.923861
vt 0.597179 0.902792
vt 0.590077 0.890571
vt 0.597178 0.923861
vt 0.603136 0.923862
vt 0.603137 0.902792
vt 0.597179 0.902792
vt 0.610239 0.890572
vt 0.603137 0.902792
vt 0.603136 0.923862
vt 0.614538 0.93062
vt 0.597178 0.932873
vt 0.603136 0.932873
vt 0.603136 0.923862
vt 0.597178 0.923861
vt 0.590077 0.890571
vt 0.597179 0.902792
vt 0.591702 0.890571
vt 0.59718 0.887775
vt 0.59718 0.8894
vt 0.603138 0.8894
vt 0.603138 0.887776
vt 0.614538 0.93062
vt 0.603136 0.923862
vt 0.609098 0.930619
vt 0.603136 0.938313
vt 0.603136 0.932873
vt 0.597178 0.932873
vt 0.597178 0.938313
vt 0.610239 0.890572
vt 0.608614 0.890572
vt 0.603137 0.902792
vt 0.585776 0.93062
vt 0.591216 0.93062
vt 0.597178 0.923861
vt 0.123497 0.050698
vt 0.127396 0.050698
vt 0.127396 0.003387
vt 0.123497 0.003387
vt 0.094345 0.003387
vt 0.090446 0.003387
vt 0.090445 0.050697
vt 0.094344 0.050697
vt 0.090445 0.050697
vt 0.091753 0.058505
vt 0.094497 0.058505
vt 0.094344 0.050697
vt 0.08567 0.050697
vt 0.090445 0.050697
vt 0.090446 0.003387
vt 0.08567 0.003387
vt 0.106533 0.050697
vt 0.111308 0.050697
vt 0.111309 0.003387
vt 0.106533 0.003387
vt 0.111308 0.050697
vt 0.115207 0.050697
vt 0.115208 0.003386
vt 0.111309 0.003387
vt 0.115207 0.050697
vt 0.123497 0.050698
vt 0.123497 0.003387
vt 0.115208 0.003386
vt 0.106533 0.003387
vt 0.102634 0.003387
vt 0.102634 0.050697
vt 0.106533 0.050697
vt 0.102634 0.003387
vt 0.094345 0.003387
vt 0.094344 0.050697
vt 0.102634 0.050697
vt 0.115207 0.050697
vt 0.116435 0.05841
vt 0.122268 0.05841
vt 0.123497 0.050698
vt 0.094344 0.050697
vt 0.095573 0.058409
vt 0.101406 0.058409
vt 0.102634 0.050697
vt 0.102634 0.050697
vt 0.102481 0.058503
vt 0.105224 0.058503
vt 0.106533 0.050697
vt 0.08567 0.050697
vt 0.086377 0.058582
vt 0.089738 0.058582
vt 0.090445 0.050697
vt 0.123497 0.050698
vt 0.123344 0.058506
vt 0.126088 0.058506
vt 0.127396 0.050698
vt 0.106533 0.050697
vt 0.10724 0.058582
vt 0.1106 0.058582
vt 0.111308 0.050697
vt 0.111308 0.050697
vt 0.112616 0.058505
vt 0.115359 0.058505
vt 0.115207 0.050697
vt 0.102481 0.058503
vt 0.102472 0.059533
vt 0.104597 0.059488
vt 0.105224 0.058503
vt 0.10724 0.058582
vt 0.107656 0.059674
vt 0.110184 0.059674
vt 0.1106 0.058582
vt 0.116435 0.05841
vt 0.117057 0.059231
vt 0.121647 0.059231
vt 0.122268 0.05841
vt 0.112616 0.058505
vt 0.113243 0.05949
vt 0.115368 0.059535
vt 0.115359 0.058505
vt 0.123344 0.058506
vt 0.123335 0.059536
vt 0.12546 0.059491
vt 0.126088 0.058506
vt 0.095573 0.058409
vt 0.096195 0.059231
vt 0.100784 0.059231
vt 0.101406 0.058409
vt 0.091753 0.058505
vt 0.092381 0.05949
vt 0.094506 0.059535
vt 0.094497 0.058505
vt 0.086377 0.058582
vt 0.086793 0.059673
vt 0.089322 0.059674
vt 0.089738 0.058582
vt 0.586496 0.849524
vt 0.597099 0.849532
vt 0.597105 0.840683
vt 0.586503 0.840675
vt 0.586493 0.853623
vt 0.597095 0.853632
vt 0.597099 0.849532
vt 0.586496 0.849524
vt 0.586489 0.858498
vt 0.597091 0.858507
vt 0.597095 0.853632
vt 0.586493 0.853623
vt 0.586503 0.840675
vt 0.597105 0.840683
vt 0.597108 0.836584
vt 0.586506 0.836577
vt 0.586468 0.880421
vt 0.597071 0.880431
vt 0.597076 0.875555
vt 0.586473 0.875545
vt 0.586477 0.871446
vt 0.59708 0.871456
vt 0.597088 0.862606
vt 0.586485 0.862597
vt 0.586473 0.875545
vt 0.597076 0.875555
vt 0.59708 0.871456
vt 0.586477 0.871446
vt 0.586485 0.862597
vt 0.597088 0.862606
vt 0.597091 0.858507
vt 0.586489 0.858498
vt 0.60926 0.882819
vt 0.612604 0.880448
vt 0.612609 0.875572
vt 0.60927 0.873193
vt 0.60041 0.88281
vt 0.60926 0.882819
vt 0.60927 0.873193
vt 0.600419 0.873184
vt 0.600419 0.873184
vt 0.597076 0.875555
vt 0.597071 0.880431
vt 0.60041 0.88281
f 6/1 2/2 3/3 8/4
f 11/5 5/6 6/7 9/8
f 9/9 6/10 8/11 12/12
f 7/13 10/14 12/15 8/16
f 1/17 9/18 12/19 4/20
f 5/21 2/22 6/23
f 5/24 7/25 3/26 2/27
f 10/28 4/29 12/30
f 1/31 4/32 10/33 11/34
f 7/35 8/36 3/37
f 9/38 1/39 11/40
f 23/41 22/42 14/43 13/44
f 26/45 28/46 16/47 15/48
f 16/49 28/50 36/51 30/52
f 13/53 14/54 15/55 16/56
f 20/57 19/58 18/59 17/60
f 17/61 18/62 21/63 24/64
f 24/65 21/66 22/67 23/68
f 19/69 20/70 27/71 25/72
f 25/73 27/74 28/75 26/76
f 24/77 23/78 33/79 34/80
f 28/81 27/82 35/83 36/84
f 27/85 20/86 32/87 35/88
f 13/89 16/90 30/91 29/92
f 23/93 13/94 29/95 33/96
f 20/97 17/98 31/99 32/100
f 17/101 24/102 34/103 31/104
f 35/105 32/106 40/107 43/108
f 32/109 31/110 39/111 40/112
f 34/113 33/114 41/115 42/116
f 31/117 34/118 42/119 39/120
f 33/121 29/122 37/123 41/124
f 36/125 35/126 43/127 44/128
f 30/129 36/130 44/131 38/132
f 29/133 30/134 38/135 37/136
f 44/137 43/138 51/139 52/140
f 38/141 44/142 52/143 46/144
f 37/145 38/146 46/147 45/148
f 43/149 40/150 48/151 51/152
f 40/153 39/154 47/155 48/156
f 42/157 41/158 49/159 50/160
f 39/161 42/162 50/163 47/164
f 41/165 37/166 45/167 49/168
f 52/169 49/170 45/171 46/172
f 51/173 50/174 49/175 52/176
f 50/177 51/178 48/179 47/180
f 58/181 60/182 55/183 54/184
f 63/185 61/186 58/187 57/188
f 61/189 64/190 60/191 58/192
f 59/193 60/194 64/195 62/196
f 53/197 56/198 64/199 61/200
f 57/201 58/202 54/203
f 57/204 54/205 55/206 59/207
f 62/208 64/209 56/210
f 62/211 56/212 53/213 63/214
f 59/215 55/216 60/217
f 63/218 53/219 61/220
f 75/221 65/222 66/223 74/224
f 78/225 67/226 68/227 80/228
f 68/229 82/230 88/231 80/232
f 65/233 68/234 67/235 66/236
f 72/237 69/238 70/239 71/240
f 69/241 76/242 73/243 70/244
f 76/245 75/246 74/247 73/248
f 71/249 77/250 79/251 72/252
f 77/253 78/254 80/255 79/256
f 76/257 86/258 85/259 75/260
f 80/261 88/262 87/263 79/264
f 79/265 87/266 84/267 72/268
f 65/269 81/270 82/271 68/272
f 75/273 85/274 81/275 65/276
f 72/277 84/278 83/279 69/280
f 69/281 83/282 86/283 76/284
f 87/285 95/286 92/287 84/288
f 84/289 92/290 91/291 83/292
f 86/293 94/294 93/295 85/296
f 83/297 91/298 94/299 86/300
f 85/301 93/302 89/303 81/304
f 88/305 96/306 95/307 87/308
f 82/309 90/310 96/311 88/312
f 81/313 89/314 90/315 82/316
f 96/317 104/318 103/319 95/320
f 90/321 98/322 104/323 96/324
f 89/325 97/326 98/327 90/328
f 95/329 103/330 100/331 92/332
f 92/333 100/334 99/335 91/336
f 94/337 102/338 101/339 93/340
f 91/341 99/342 102/343 94/344
f 93/345 101/346 97/347 89/348
f 104/349 98/350 97/351 101/352
f 103/353 104/354 101/355 102/356
f 102/357 99/358 100/359 103/360
