# Converted from DestroyerFlakTurretBody.fbx
o DestroyerFlakTurretBody
v 0.17458 -0.006774 -0.104345
v 0.17458 -0.006774 0.104345
v 0.17458 0.125379 -0.104345
v 0.17458 0.125379 0.104345
v -0.17458 -0.006774 -0.104345
v -0.17458 -0.006774 0.104345
v -0.17458 0.125379 -0.104345
v -0.17458 0.125379 0.104345
v 0 0.125379 -0.191046
v 0 -0.006774 -0.191046
v 0 0.125379 0.191046
v 0 -0.006774 0.191046
v 0.036042 0.25601 -0.3824
v 0.036042 0.212409 -0.022355
v 0.036042 0.390393 -0.3824
v 0.036042 0.408484 -0.022355
v 0.036042 0.433993 -0.14015
v 0.036042 0.212409 -0.317953
v 0.036042 0.433993 -0.317953
v 0.086303 0.104841 -0.305423
v 0.058413 0.39241 -0.305423
v 0.167897 0.39241 0.305255
v 0.233109 0.39241 0.217396
v 0.260999 0.104841 0.217396
v 0.234201 0.156741 0.305255
v 0.299413 0.156741 -0.084867
v 0.299413 0.156741 0.217396
v 0.234201 0.310816 0.305255
v 0.299413 0.310816 -0.084867
v 0.299413 0.310816 0.217396
v 0.195787 0.104841 0.305255
v 0.124361 0.39241 0.267718
v 0.260999 0.104841 -0.084867
v 0.233109 0.39241 -0.084867
v 0.124717 0.156741 -0.305423
v 0.124357 0.170595 0.381816
v 0.124717 0.310816 -0.305423
v 0.124357 0.310816 0.343974
v 0.167897 0.39241 0.365748
v 0.234201 0.156741 0.403544
v 0.234201 0.310816 0.365748
v 0.195787 0.104841 0.350207
v 0.124361 0.39241 0.365748
v 0.124357 0.156741 0.403544
v 0.124357 0.310816 0.365748
v -0.036042 0.25601 -0.3824
v -0.036042 0.212409 -0.022355
v -0.036042 0.390393 -0.3824
v -0.036042 0.408484 -0.022355
v 0 0.390392 -0.3824
v 0 0.256009 -0.3824
v 0 0.408484 -0.022349
v 0 0.212409 -0.022355
v -0.036042 0.433993 -0.14015
v 0 0.433992 -0.140148
v -0.036042 0.212409 -0.317953
v -0.036042 0.433993 -0.317953
v 0 0.212409 -0.317951
v 0 0.433992 -0.317951
v -0.086303 0.104841 -0.305423
v -0.058413 0.39241 -0.305423
v -0.167897 0.39241 0.305255
v 0 0.39241 -0.305423
v 0 0.104841 -0.305423
v 0 0.39241 0.267721
v 0 0.39241 -0.084861
v -0.233109 0.39241 0.217396
v -0.260999 0.104841 0.217396
v -0.234201 0.156741 0.305255
v 0 0.170595 0.381813
v -0.299413 0.156741 -0.084867
v -0.299413 0.156741 0.217396
v -0.234201 0.310816 0.305255
v 0 0.310816 0.343972
v -0.299413 0.310816 -0.084867
v -0.299413 0.310816 0.217396
v -0.195787 0.104841 0.305255
v -0.124361 0.39241 0.267718
v -0.260999 0.104841 -0.084867
v -0.233109 0.39241 -0.084867
v -0.124717 0.156741 -0.305423
v -0.124357 0.170595 0.381816
v -0.124717 0.310816 -0.305423
v -0.124357 0.310816 0.343974
v -0.167897 0.39241 0.365748
v 0 0.104841 0.350205
v -0.234201 0.156741 0.403544
v 0 0.156741 0.403543
v -0.234201 0.310816 0.365748
v -0.195787 0.104841 0.350207
v -0.124361 0.39241 0.365748
v -0.124357 0.156741 0.403544
v -0.124357 0.310816 0.365748
vt 0.538488 0.773999
vt 0.538488 0.746728
vt 0.556977 0.746728
vt 0.556977 0.773999
vt 0.538488 0.803196
vt 0.538488 0.773999
vt 0.556977 0.773999
vt 0.556977 0.803196
vt 0.556977 0.803196
vt 0.556977 0.830467
vt 0.538488 0.830467
vt 0.538488 0.803196
vt 0.556977 0.746728
vt 0.538488 0.746728
vt 0.538488 0.773999
vt 0.556977 0.773999
vt 0.556977 0.773999
vt 0.538488 0.773999
vt 0.538488 0.803196
vt 0.556977 0.803196
vt 0.556977 0.803196
vt 0.538488 0.803196
vt 0.538488 0.830467
vt 0.556977 0.830467
vt 0.366629 0.689469
vt 0.363199 0.68947
vt 0.363197 0.676682
vt 0.366626 0.676682
vt 0.366625 0.669279
vt 0.366626 0.676682
vt 0.363197 0.676682
vt 0.363196 0.669279
vt 0.363194 0.725252
vt 0.366623 0.725254
vt 0.366615 0.743905
vt 0.363186 0.743903
vt 0.363199 0.696873
vt 0.363199 0.68947
vt 0.366629 0.689469
vt 0.366629 0.696873
vt 0.363194 0.725252
vt 0.363198 0.713788
vt 0.366626 0.713789
vt 0.366623 0.725254
vt 0.363198 0.713788
vt 0.363199 0.696873
vt 0.366629 0.696873
vt 0.366626 0.713789
vt 0.346266 0.675409
vt 0.342118 0.669279
vt 0.363196 0.669279
vt 0.359049 0.675409
vt 0.342118 0.652366
vt 0.344545 0.64116
vt 0.363196 0.641161
vt 0.342118 0.669279
vt 0.342118 0.652366
vt 0.363196 0.641161
vt 0.363196 0.669279
vt 0.366625 0.64116
vt 0.366625 0.669279
vt 0.363196 0.669279
vt 0.363196 0.641161
vt 0.427428 0.902169
vt 0.422939 0.883808
vt 0.438298 0.892706
vt 0.413179 0.69416
vt 0.413047 0.730971
vt 0.405208 0.727823
vt 0.40534 0.691011
vt 0.433066 0.770589
vt 0.433015 0.784905
vt 0.412857 0.784833
vt 0.412907 0.770518
vt 0.034627 0.046844
vt 0.004124 0.046844
vt 0.004124 0.01122
vt 0.034627 0.01122
vt 0.433206 0.731043
vt 0.433066 0.770589
vt 0.412907 0.770518
vt 0.413047 0.730971
vt 0.445794 0.775805
vt 0.445744 0.79012
vt 0.433015 0.784905
vt 0.433066 0.770589
vt 0.034628 0.074237
vt 0.004124 0.074237
vt 0.004124 0.046844
vt 0.034627 0.046844
vt 0.446013 0.688891
vt 0.445882 0.725702
vt 0.433206 0.731043
vt 0.433337 0.694232
vt 0.413047 0.730971
vt 0.412907 0.770518
vt 0.404459 0.770488
vt 0.404599 0.730941
vt 0.400903 0.919063
vt 0.382811 0.91905
vt 0.382818 0.90864
vt 0.400911 0.908654
vt 0.37025 0.787744
vt 0.395887 0.781953
vt 0.395866 0.787834
vt 0.433337 0.694232
vt 0.433206 0.731043
vt 0.413047 0.730971
vt 0.413179 0.69416
vt 0.44407 0.677954
vt 0.444043 0.685597
vt 0.433337 0.694232
vt 0.44407 0.677954
vt 0.433337 0.694232
vt 0.413179 0.69416
vt 0.406448 0.677819
vt 0.37025 0.787744
vt 0.370553 0.701963
vt 0.404599 0.730941
vt 0.404459 0.770488
vt 0.034627 0.01122
vt 0.004124 0.01122
vt 0.004124 0.004899
vt 0.034627 0.004899
vt 0.406448 0.677819
vt 0.413179 0.69416
vt 0.406407 0.68911
vt 0.975835 0.626322
vt 0.964589 0.667731
vt 0.958162 0.671813
vt 0.969401 0.626312
vt 0.422939 0.883808
vt 0.417856 0.863021
vt 0.430295 0.859979
vt 0.438298 0.892706
vt 0.400911 0.908654
vt 0.396421 0.890293
vt 0.422939 0.883808
vt 0.427428 0.902169
vt 0.384562 0.900906
vt 0.382782 0.893629
vt 0.396421 0.890293
vt 0.400911 0.908654
vt 0.998401 0.602245
vt 0.975835 0.626322
vt 0.969401 0.626312
vt 0.969436 0.602204
vt 0.370553 0.701963
vt 0.381845 0.702003
vt 0.404599 0.730941
vt 0.455313 0.782164
vt 0.461027 0.777273
vt 0.460982 0.7901
vt 0.455285 0.79008
vt 0.427416 0.919083
vt 0.400903 0.919063
vt 0.400911 0.908654
vt 0.427428 0.902169
vt 0.446961 0.731091
vt 0.469921 0.702315
vt 0.477563 0.702342
vt 0.477461 0.7312
vt 0.461027 0.777273
vt 0.446961 0.731091
vt 0.477461 0.7312
vt 0.477298 0.777331
vt 0.438527 0.919091
vt 0.427416 0.919083
vt 0.427428 0.902169
vt 0.438533 0.911355
vt 0.412907 0.770518
vt 0.412857 0.784833
vt 0.404947 0.787801
vt 0.404998 0.773485
vt 0.446961 0.731091
vt 0.446822 0.770638
vt 0.433066 0.770589
vt 0.433206 0.731043
vt 0.446822 0.770638
vt 0.446961 0.731091
vt 0.461027 0.777273
vt 0.455313 0.782164
vt 0.446822 0.770638
vt 0.461027 0.777273
vt 0.37025 0.787744
vt 0.404459 0.770488
vt 0.395887 0.781953
vt 0.366629 0.689469
vt 0.366626 0.676682
vt 0.363197 0.676682
vt 0.363199 0.68947
vt 0.366625 0.669279
vt 0.363196 0.669279
vt 0.363197 0.676682
vt 0.366626 0.676682
vt 0.363194 0.725252
vt 0.363186 0.743903
vt 0.366615 0.743905
vt 0.366623 0.725254
vt 0.363199 0.696873
vt 0.366629 0.696873
vt 0.366629 0.689469
vt 0.363199 0.68947
vt 0.363194 0.725252
vt 0.366623 0.725254
vt 0.366626 0.713789
vt 0.363198 0.713788
vt 0.363198 0.713788
vt 0.366626 0.713789
vt 0.366629 0.696873
vt 0.363199 0.696873
vt 0.346266 0.675409
vt 0.359049 0.675409
vt 0.363196 0.669279
vt 0.342118 0.669279
vt 0.342118 0.652366
vt 0.363196 0.641161
vt 0.344545 0.64116
vt 0.342118 0.669279
vt 0.363196 0.669279
vt 0.363196 0.641161
vt 0.342118 0.652366
vt 0.366625 0.64116
vt 0.363196 0.641161
vt 0.363196 0.669279
vt 0.366625 0.669279
vt 0.427428 0.902169
vt 0.438298 0.892706
vt 0.422939 0.883808
vt 0.413179 0.69416
vt 0.40534 0.691011
vt 0.405208 0.727823
vt 0.413047 0.730971
vt 0.433066 0.770589
vt 0.412907 0.770518
vt 0.412857 0.784833
vt 0.433015 0.784905
vt 0.034627 0.046844
vt 0.034627 0.01122
vt 0.004124 0.01122
vt 0.004124 0.046844
vt 0.433206 0.731043
vt 0.413047 0.730971
vt 0.412907 0.770518
vt 0.433066 0.770589
vt 0.445794 0.775805
vt 0.433066 0.770589
vt 0.433015 0.784905
vt 0.445744 0.79012
vt 0.034628 0.074237
vt 0.034627 0.046844
vt 0.004124 0.046844
vt 0.004124 0.074237
vt 0.446013 0.688891
vt 0.433337 0.694232
vt 0.433206 0.731043
vt 0.445882 0.725702
vt 0.413047 0.730971
vt 0.404599 0.730941
vt 0.404459 0.770488
vt 0.412907 0.770518
vt 0.400903 0.919063
vt 0.400911 0.908654
vt 0.382818 0.90864
vt 0.382811 0.91905
vt 0.37025 0.787744
vt 0.395866 0.787834
vt 0.395887 0.781953
vt 0.433337 0.694232
vt 0.413179 0.69416
vt 0.413047 0.730971
vt 0.433206 0.731043
vt 0.44407 0.677954
vt 0.433337 0.694232
vt 0.444043 0.685597
vt 0.44407 0.677954
vt 0.406448 0.677819
vt 0.413179 0.69416
vt 0.433337 0.694232
vt 0.37025 0.787744
vt 0.404459 0.770488
vt 0.404599 0.730941
vt 0.370553 0.701963
vt 0.034627 0.01122
vt 0.034627 0.004899
vt 0.004124 0.004899
vt 0.004124 0.01122
vt 0.406448 0.677819
vt 0.406407 0.68911
vt 0.413179 0.69416
vt 0.975835 0.626322
vt 0.969401 0.626312
vt 0.958162 0.671813
vt 0.964589 0.667731
vt 0.422939 0.883808
vt 0.438298 0.892706
vt 0.430295 0.859979
vt 0.417856 0.863021
vt 0.400911 0.908654
vt 0.427428 0.902169
vt 0.422939 0.883808
vt 0.396421 0.890293
vt 0.384562 0.900906
vt 0.400911 0.908654
vt 0.396421 0.890293
vt 0.382782 0.893629
vt 0.998401 0.602245
vt 0.969436 0.602204
vt 0.969401 0.626312
vt 0.975835 0.626322
vt 0.370553 0.701963
vt 0.404599 0.730941
vt 0.381845 0.702003
vt 0.455313 0.782164
vt 0.455285 0.79008
vt 0.460982 0.7901
vt 0.461027 0.777273
vt 0.427416 0.919083
vt 0.427428 0.902169
vt 0.400911 0.908654
vt 0.400903 0.919063
vt 0.446961 0.731091
vt 0.477461 0.7312
vt 0.477563 0.702342
vt 0.469921 0.702315
vt 0.461027 0.777273
vt 0.477298 0.777331
vt 0.477461 0.7312
vt 0.446961 0.731091
vt 0.438527 0.919091
vt 0.438533 0.911355
vt 0.427428 0.902169
vt 0.427416 0.919083
vt 0.412907 0.770518
vt 0.404998 0.773485
vt 0.404947 0.787801
vt 0.412857 0.784833
vt 0.446961 0.731091
vt 0.433206 0.731043
vt 0.433066 0.770589
vt 0.446822 0.770638
vt 0.446822 0.770638
vt 0.461027 0.777273
vt 0.446961 0.731091
vt 0.455313 0.782164
vt 0.461027 0.777273
vt 0.446822 0.770638
vt 0.37025 0.787744
vt 0.395887 0.781953
vt 0.404459 0.770488
f 1/1 10/2 9/3 3/4
f 2/5 1/6 3/7 4/8
f 4/9 11/10 12/11 2/12
f 9/13 10/14 5/15 7/16
f 7/17 5/18 6/19 8/20
f 8/21 6/22 12/23 11/24
f 50/25 15/26 13/27 51/28
f 58/29 51/30 13/31 18/32
f 16/33 52/34 53/35 14/36
f 19/37 15/38 50/39 59/40
f 16/41 17/42 55/43 52/44
f 17/45 19/46 59/47 55/48
f 15/49 19/50 18/51 13/52
f 17/53 16/54 14/55
f 19/56 17/57 14/58 18/59
f 53/60 58/61 18/62 14/63
f 40/64 44/65 42/66
f 35/67 26/68 33/69 20/70
f 30/71 28/72 25/73 27/74
f 38/75 74/76 70/77 36/78
f 29/79 30/80 27/81 26/82
f 23/83 22/84 28/85 30/86
f 32/87 65/88 74/89 38/90
f 21/91 34/92 29/93 37/94
f 26/95 27/96 24/97 33/98
f 28/99 22/100 39/101 41/102
f 86/103 31/104 42/105
f 37/106 29/107 26/108 35/109
f 63/110 21/111 37/112
f 63/113 37/114 35/115 64/116
f 86/117 64/118 33/119 24/120
f 36/121 70/122 88/123 44/124
f 64/125 35/126 20/127
f 38/128 36/129 44/130 45/131
f 44/132 88/133 86/134 42/135
f 41/136 45/137 44/138 40/139
f 39/140 43/141 45/142 41/143
f 32/144 38/145 45/146 43/147
f 64/148 20/149 33/150
f 22/151 32/152 43/153 39/154
f 25/155 28/156 41/157 40/158
f 34/159 21/160 63/161 66/162
f 32/163 34/164 66/165 65/166
f 31/167 25/168 40/169 42/170
f 27/171 25/172 31/173 24/174
f 34/175 23/176 30/177 29/178
f 23/179 34/180 32/181
f 22/182 23/183 32/184
f 86/185 24/186 31/187
f 50/188 51/189 46/190 48/191
f 58/192 56/193 46/194 51/195
f 49/196 47/197 53/198 52/199
f 57/200 59/201 50/202 48/203
f 49/204 52/205 55/206 54/207
f 54/208 55/209 59/210 57/211
f 48/212 46/213 56/214 57/215
f 54/216 47/217 49/218
f 57/219 56/220 47/221 54/222
f 53/223 47/224 56/225 58/226
f 87/227 90/228 92/229
f 81/230 60/231 79/232 71/233
f 76/234 72/235 69/236 73/237
f 84/238 82/239 70/240 74/241
f 75/242 71/243 72/244 76/245
f 67/246 76/247 73/248 62/249
f 78/250 84/251 74/252 65/253
f 61/254 83/255 75/256 80/257
f 71/258 79/259 68/260 72/261
f 73/262 89/263 85/264 62/265
f 86/266 90/267 77/268
f 83/269 81/270 71/271 75/272
f 63/273 83/274 61/275
f 63/276 64/277 81/278 83/279
f 86/280 68/281 79/282 64/283
f 82/284 92/285 88/286 70/287
f 64/288 60/289 81/290
f 84/291 93/292 92/293 82/294
f 92/295 90/296 86/297 88/298
f 89/299 87/300 92/301 93/302
f 85/303 89/304 93/305 91/306
f 78/307 91/308 93/309 84/310
f 64/311 79/312 60/313
f 62/314 85/315 91/316 78/317
f 69/318 87/319 89/320 73/321
f 80/322 66/323 63/324 61/325
f 78/326 65/327 66/328 80/329
f 77/330 90/331 87/332 69/333
f 72/334 68/335 77/336 69/337
f 80/338 75/339 76/340 67/341
f 67/342 78/343 80/344
f 62/345 78/346 67/347
f 86/348 77/349 68/350
