# Converted from DestroyerMediumTurretBody.fbx
o DestroyerMediumTurretBody
v 0.626802 -0.025095 -0.374636
v 0.626802 -0.025095 0.374636
v 0.626802 0.449377 -0.374636
v 0.626802 0.449377 0.374636
v -0.626802 -0.025095 -0.374636
v -0.626802 -0.025095 0.374636
v -0.626802 0.449377 -0.374636
v -0.626802 0.449377 0.374636
v 0 0.449377 -0.685919
v 0 -0.025095 -0.685919
v 0 0.449377 0.685919
v 0 -0.025095 0.685919
v 0.977797 1.40683 0.393092
v 1.229038 1.40683 0.393092
v 1.229038 1.40683 0.638814
v 0.977797 1.40683 0.638814
v 0.76192 1.652552 0.393092
v 1.229038 1.510358 0.393092
v 1.229038 1.510358 0.638814
v 0.76192 1.652551 0.638814
v 0.459001 1.718276 0.365069
v 0.459001 1.718276 0.430848
v 0.459001 1.874549 0.365069
v 0.459001 1.874549 0.430848
v 0.41941 1.69464 0.603669
v 0.41941 1.69464 -0.740788
v 0.65431 1.69464 -0.740788
v 0.65431 1.69464 0.603669
v 0.41941 2.02105 0.50653
v 0.41941 2.021051 -0.098538
v 0.499743 2.021051 -0.098538
v 0.499743 2.02105 0.50653
v 0.650943 1.229334 -0.98913
v 0.650943 1.229334 -1.377001
v 0.405221 1.229334 -1.377001
v 0.405221 1.229334 -0.98913
v 0.650943 0.983612 -0.98913
v 0.650943 1.125806 -1.377001
v 0.405221 1.125806 -1.377001
v 0.405221 0.983612 -0.98913
v 0.405221 1.344099 -0.98913
v 0.405221 1.344099 -1.377001
v 0.650943 1.344099 -1.377001
v 0.650943 1.344099 -0.98913
v 0.405221 1.589821 -0.98913
v 0.405221 1.447627 -1.377001
v 0.650943 1.447627 -1.377001
v 0.650943 1.589821 -0.98913
v 0.901362 1.185886 -1.478167
v 1.134819 1.185886 -0.942339
v 0.901362 1.382236 -1.478167
v 1.134819 1.382236 -0.942339
v 0.240797 1.382236 -1.478167
v 0.240797 1.185886 -1.478167
v 0.844427 0.358254 -0.819329
v 1 1.075476 -1.011055
v 1 1.075475 0.988944
v 1 1.448342 -1.011055
v 1 1.448341 0.988944
v 1.425646 1.323716 -1.011055
v 1.425646 1.323716 0.706861
v 1.425646 1.448342 -1.011055
v 1.425646 1.448341 0.706861
v 0.6872 1.736668 -1.011057
v 0.568186 1.075475 1.26739
v 0.568187 1.448342 0.988944
v 0.568579 1.736668 0.690315
v 0.844427 0.358253 1.125152
v 1 1.075475 1.357213
v 1 1.448341 1.357213
v 0.6872 1.736667 1.05091
v 0.568186 1.054095 1.357213
v 0.568186 1.448342 1.357213
v 0.568579 1.736668 1.05091
v 0.94012 0.78618 -1.011055
v 0.94012 0.786178 1.357213
v 0.977797 1.40683 -0.854393
v 1.229038 1.40683 -0.854393
v 1.229038 1.40683 -0.608671
v 0.977797 1.40683 -0.608671
v 0.76192 1.652552 -0.854393
v 1.229038 1.510358 -0.854393
v 1.229038 1.510358 -0.608671
v 0.76192 1.652552 -0.608671
v 0.459001 1.718276 -0.060105
v 0.459001 1.718276 0.005674
v 0.459001 1.874549 -0.060105
v 0.459001 1.874549 0.005674
v -0.977797 1.40683 0.393092
v -1.229038 1.40683 0.393092
v -1.229038 1.40683 0.638814
v -0.977797 1.40683 0.638814
v -0.76192 1.652552 0.393092
v -1.229038 1.510358 0.393092
v -1.229038 1.510358 0.638814
v -0.76192 1.652551 0.638814
v -0.459001 1.718276 0.365069
v -0.459001 1.718276 0.430848
v -0.459001 1.874549 0.365069
v -0.459001 1.874549 0.430848
v 0 1.874549 0.365069
v 0 1.718276 0.365069
v 0 1.874549 0.430848
v 0 1.718276 0.430848
v -0.41941 1.69464 0.603669
v -0.41941 1.69464 -0.740788
v -0.65431 1.69464 -0.740788
v -0.65431 1.69464 0.603669
v -0.41941 2.02105 0.50653
v -0.41941 2.021051 -0.098538
v -0.499743 2.021051 -0.098538
v -0.499743 2.02105 0.50653
v -0.650943 1.229334 -0.98913
v -0.650943 1.229334 -1.377001
v -0.405221 1.229334 -1.377001
v -0.405221 1.229334 -0.98913
v -0.650943 0.983612 -0.98913
v -0.650943 1.125806 -1.377001
v -0.405221 1.125806 -1.377001
v -0.405221 0.983612 -0.98913
v -0.405221 1.344099 -0.98913
v -0.405221 1.344099 -1.377001
v -0.650943 1.344099 -1.377001
v -0.650943 1.344099 -0.98913
v -0.405221 1.589821 -0.98913
v -0.405221 1.447627 -1.377001
v -0.650943 1.447627 -1.377001
v -0.650943 1.589821 -0.98913
v -0.901362 1.185886 -1.478167
v -1.134819 1.185886 -0.942339
v -0.901362 1.382236 -1.478167
v -1.134819 1.382236 -0.942339
v 0 1.382236 -1.218741
v 0 1.185886 -1.218741
v 0 1.382236 -0.942339
v -0.240797 1.382236 -1.478167
v 0 1.185886 -0.942339
v -0.240797 1.185886 -1.478167
v -0.844427 0.358254 -0.819329
v -1 1.075476 -1.011055
v -1 1.075475 0.988944
v 0 0.358254 -0.819329
v -0 1.075477 1.26739
v -1 1.448342 -1.011055
v -1 1.448341 0.988944
v 0 1.736668 -1.011055
v 0 1.448343 0.988944
v -1.425646 1.323716 -1.011055
v -1.425646 1.323716 0.706861
v -1.425646 1.448342 -1.011055
v -1.425646 1.448341 0.706861
v -0.6872 1.736668 -1.011057
v 0 1.73667 0.690314
v 0 0.799417 -1.011055
v -0.568186 1.075475 1.26739
v -0.568187 1.448342 0.988944
v -0.568579 1.736668 0.690315
v -0.844427 0.358253 1.125152
v -1 1.075475 1.357213
v -0 1.054098 1.357212
v -0 0.358256 1.125152
v -1 1.448341 1.357213
v -0.6872 1.736667 1.05091
v -0.568186 1.054095 1.357213
v -0.568186 1.448342 1.357213
v -0.568579 1.736668 1.05091
v -0.94012 0.78618 -1.011055
v -0.94012 0.786178 1.357213
v -0 0.78627 1.357212
v -0.977797 1.40683 -0.854393
v -1.229038 1.40683 -0.854393
v -1.229038 1.40683 -0.608671
v -0.977797 1.40683 -0.608671
v -0.76192 1.652552 -0.854393
v -1.229038 1.510358 -0.854393
v -1.229038 1.510358 -0.608671
v -0.76192 1.652552 -0.608671
v -0.459001 1.718276 -0.060105
v -0.459001 1.718276 0.005674
v -0.459001 1.874549 -0.060105
v -0.459001 1.874549 0.005674
v 0 1.874549 -0.060105
v 0 1.718276 -0.060105
v 0 1.874549 0.005674
v 0 1.718276 0.005674
vt 0.147736 0.59766
vt 0.147736 0.544214
vt 0.183971 0.544214
vt 0.183971 0.59766
vt 0.147736 0.654881
vt 0.147736 0.59766
vt 0.183971 0.59766
vt 0.18397 0.654881
vt 0.18397 0.654881
vt 0.18397 0.708326
vt 0.147736 0.708326
vt 0.147736 0.654881
vt 0.183971 0.544214
vt 0.147736 0.544214
vt 0.147736 0.59766
vt 0.183971 0.59766
vt 0.183971 0.59766
vt 0.147736 0.59766
vt 0.147736 0.654881
vt 0.18397 0.654881
vt 0.18397 0.654881
vt 0.147736 0.654881
vt 0.147736 0.708326
vt 0.18397 0.708326
vt 0.333911 0.873712
vt 0.385765 0.873712
vt 0.388967 0.884229
vt 0.363442 0.891999
vt 0.385765 0.873712
vt 0.385765 0.847617
vt 0.39676 0.847617
vt 0.39676 0.873712
vt 0.385765 0.847617
vt 0.333911 0.847616
vt 0.363442 0.829329
vt 0.388967 0.837099
vt 0.333911 0.847616
vt 0.385765 0.847617
vt 0.385765 0.873712
vt 0.333911 0.873712
vt 0.822617 0.995477
vt 0.822618 0.943882
vt 0.840184 0.943882
vt 0.840184 0.995476
vt 0.815223 0.943882
vt 0.815223 0.995476
vt 0.797657 0.995476
vt 0.797657 0.943882
vt 0.815223 0.943882
vt 0.822618 0.943882
vt 0.822617 0.995477
vt 0.815223 0.995476
vt 0.35733 0.609967
vt 0.357327 0.563758
vt 0.382252 0.514708
vt 0.382258 0.617384
vt 0.357327 0.563758
vt 0.351192 0.563759
vt 0.339385 0.508751
vt 0.357321 0.508749
vt 0.351192 0.563759
vt 0.351195 0.609968
vt 0.323613 0.617388
vt 0.323608 0.514711
vt 0.351195 0.609968
vt 0.35733 0.609967
vt 0.357332 0.635975
vt 0.339393 0.635977
vt 0.351195 0.609968
vt 0.351192 0.563759
vt 0.357327 0.563758
vt 0.35733 0.609967
vt 0.406595 0.790926
vt 0.406595 0.833551
vt 0.396565 0.837229
vt 0.38279 0.799653
vt 0.406595 0.833551
vt 0.431949 0.833552
vt 0.431949 0.844234
vt 0.406595 0.844234
vt 0.431949 0.833552
vt 0.431949 0.790926
vt 0.455753 0.799653
vt 0.441978 0.837228
vt 0.431949 0.790926
vt 0.431949 0.833552
vt 0.406595 0.833551
vt 0.406595 0.790926
vt 0.525818 0.780886
vt 0.494269 0.780886
vt 0.491548 0.773463
vt 0.519359 0.763267
vt 0.494269 0.780886
vt 0.494269 0.799651
vt 0.486363 0.799651
vt 0.486363 0.780885
vt 0.494269 0.799651
vt 0.525818 0.799651
vt 0.519359 0.817269
vt 0.491548 0.807074
vt 0.525818 0.799651
vt 0.494269 0.799651
vt 0.494269 0.780886
vt 0.525818 0.780886
vt 0.160412 0.837242
vt 0.160413 0.786797
vt 0.175408 0.786797
vt 0.175406 0.837244
vt 0.160413 0.786797
vt 0.160412 0.74216
vt 0.175408 0.74216
vt 0.175408 0.786797
vt 0.216326 0.855636
vt 0.175406 0.837244
vt 0.175408 0.786797
vt 0.216331 0.76897
vt 0.160408 0.864272
vt 0.160412 0.837242
vt 0.175406 0.837244
vt 0.175403 0.864274
vt 0.119493 0.855631
vt 0.160412 0.837242
vt 0.1406 0.855631
vt 0.216326 0.855636
vt 0.195216 0.855636
vt 0.175406 0.837244
vt 0.119493 0.768969
vt 0.160413 0.786797
vt 0.160412 0.837242
vt 0.119493 0.855631
vt 0.270763 0.568254
vt 0.270761 0.720987
vt 0.233131 0.720986
vt 0.233134 0.589795
vt 0.233134 0.589795
vt 0.233131 0.720986
vt 0.223614 0.720986
vt 0.223614 0.589796
vt 0.19111 0.720986
vt 0.19111 0.568255
vt 0.223614 0.589796
vt 0.223614 0.720986
vt 0.223604 0.550784
vt 0.252091 0.550777
vt 0.233134 0.589795
vt 0.223614 0.589796
vt 0.921248 0.946206
vt 0.921272 0.974679
vt 0.888768 0.974707
vt 0.88876 0.965191
vt 0.514061 0.893301
vt 0.503466 0.83297
vt 0.509524 0.822434
vt 0.547299 0.858016
vt 0.733497 0.095461
vt 0.733512 0.05207
vt 0.769051 0.052082
vt 0.769036 0.095473
vt 0.769036 0.095473
vt 0.769051 0.052082
vt 0.800752 0.052063
vt 0.800737 0.095484
vt 0.954279 0.682174
vt 0.921302 0.680531
vt 0.92131 0.652056
vt 0.954288 0.652066
vt 0.954288 0.652066
vt 0.92131 0.652056
vt 0.945208 0.619938
vt 0.954267 0.61994
vt 0.445644 0.591681
vt 0.474119 0.591681
vt 0.474118 0.619805
vt 0.445644 0.619805
vt 0.925868 0.702626
vt 0.997665 0.702641
vt 0.997654 0.739824
vt 0.933165 0.739804
vt 0.997654 0.739824
vt 0.997609 0.888324
vt 0.933121 0.888304
vt 0.933165 0.739804
vt 0.514733 0.947936
vt 0.514061 0.893301
vt 0.547299 0.858016
vt 0.547279 0.913387
vt 0.733512 0.05207
vt 0.733497 0.095461
vt 0.726446 0.095459
vt 0.726461 0.052067
vt 0.921302 0.680531
vt 0.954279 0.682174
vt 0.997665 0.702641
vt 0.925868 0.702626
vt 0.445641 0.438946
vt 0.445644 0.591681
vt 0.423083 0.619805
vt 0.42308 0.438946
vt 0.423083 0.619805
vt 0.445644 0.591681
vt 0.445644 0.619805
vt 0.42308 0.438946
vt 0.423083 0.619805
vt 0.389596 0.602084
vt 0.389593 0.453589
vt 0.921248 0.946206
vt 0.997596 0.925059
vt 0.997657 0.996633
vt 0.921272 0.974679
vt 0.954279 0.682174
vt 0.997671 0.682187
vt 0.997665 0.702641
vt 0.50661 0.438944
vt 0.515666 0.568876
vt 0.515666 0.596414
vt 0.506607 0.596414
vt 0.474119 0.591681
vt 0.474121 0.438943
vt 0.50661 0.438944
vt 0.474119 0.591681
vt 0.50661 0.438944
vt 0.506607 0.596414
vt 0.474118 0.619805
vt 0.997596 0.925059
vt 0.925801 0.92411
vt 0.933121 0.888304
vt 0.997609 0.888324
vt 0.515666 0.568876
vt 0.559091 0.438945
vt 0.559088 0.568877
vt 0.921272 0.974679
vt 0.997657 0.996633
vt 0.945178 0.996678
vt 0.50661 0.438944
vt 0.559091 0.438945
vt 0.515666 0.568876
vt 0.997596 0.925059
vt 0.921248 0.946206
vt 0.925801 0.92411
vt 0.333911 0.873712
vt 0.385765 0.873712
vt 0.388967 0.884229
vt 0.363442 0.891999
vt 0.385765 0.873712
vt 0.385765 0.847617
vt 0.39676 0.847617
vt 0.39676 0.873712
vt 0.385765 0.847617
vt 0.333911 0.847616
vt 0.363442 0.829329
vt 0.388967 0.837099
vt 0.333911 0.847616
vt 0.385765 0.847617
vt 0.385765 0.873712
vt 0.333911 0.873712
vt 0.822617 0.995477
vt 0.822618 0.943882
vt 0.840184 0.943882
vt 0.840184 0.995476
vt 0.815223 0.943882
vt 0.815223 0.995476
vt 0.797657 0.995476
vt 0.797657 0.943882
vt 0.815223 0.943882
vt 0.822618 0.943882
vt 0.822617 0.995477
vt 0.815223 0.995476
vt 0.333911 0.873712
vt 0.363442 0.891999
vt 0.388967 0.884229
vt 0.385765 0.873712
vt 0.385765 0.873712
vt 0.39676 0.873712
vt 0.39676 0.847617
vt 0.385765 0.847617
vt 0.385765 0.847617
vt 0.388967 0.837099
vt 0.363442 0.829329
vt 0.333911 0.847616
vt 0.333911 0.847616
vt 0.333911 0.873712
vt 0.385765 0.873712
vt 0.385765 0.847617
vt 0.822617 0.995477
vt 0.840184 0.995476
vt 0.840184 0.943882
vt 0.822618 0.943882
vt 0.815223 0.943882
vt 0.797657 0.943882
vt 0.797657 0.995476
vt 0.815223 0.995476
vt 0.815223 0.943882
vt 0.815223 0.995476
vt 0.822617 0.995477
vt 0.822618 0.943882
vt 0.35733 0.609967
vt 0.382258 0.617384
vt 0.382252 0.514708
vt 0.357327 0.563758
vt 0.357327 0.563758
vt 0.357321 0.508749
vt 0.339385 0.508751
vt 0.351192 0.563759
vt 0.351192 0.563759
vt 0.323608 0.514711
vt 0.323613 0.617388
vt 0.351195 0.609968
vt 0.351195 0.609968
vt 0.339393 0.635977
vt 0.357332 0.635975
vt 0.35733 0.609967
vt 0.351195 0.609968
vt 0.35733 0.609967
vt 0.357327 0.563758
vt 0.351192 0.563759
vt 0.406595 0.790926
vt 0.38279 0.799653
vt 0.396565 0.837229
vt 0.406595 0.833551
vt 0.406595 0.833551
vt 0.406595 0.844234
vt 0.431949 0.844234
vt 0.431949 0.833552
vt 0.431949 0.833552
vt 0.441978 0.837228
vt 0.455753 0.799653
vt 0.431949 0.790926
vt 0.431949 0.790926
vt 0.406595 0.790926
vt 0.406595 0.833551
vt 0.431949 0.833552
vt 0.525818 0.780886
vt 0.519359 0.763267
vt 0.491548 0.773463
vt 0.494269 0.780886
vt 0.494269 0.780886
vt 0.486363 0.780885
vt 0.486363 0.799651
vt 0.494269 0.799651
vt 0.494269 0.799651
vt 0.491548 0.807074
vt 0.519359 0.817269
vt 0.525818 0.799651
vt 0.525818 0.799651
vt 0.525818 0.780886
vt 0.494269 0.780886
vt 0.494269 0.799651
vt 0.160412 0.837242
vt 0.175406 0.837244
vt 0.175408 0.786797
vt 0.160413 0.786797
vt 0.160413 0.786797
vt 0.175408 0.786797
vt 0.175408 0.74216
vt 0.160412 0.74216
vt 0.216326 0.855636
vt 0.216331 0.76897
vt 0.175408 0.786797
vt 0.175406 0.837244
vt 0.160408 0.864272
vt 0.175403 0.864274
vt 0.175406 0.837244
vt 0.160412 0.837242
vt 0.119493 0.855631
vt 0.1406 0.855631
vt 0.160412 0.837242
vt 0.216326 0.855636
vt 0.175406 0.837244
vt 0.195216 0.855636
vt 0.119493 0.768969
vt 0.119493 0.855631
vt 0.160412 0.837242
vt 0.160413 0.786797
vt 0.270763 0.568254
vt 0.233134 0.589795
vt 0.233131 0.720986
vt 0.270761 0.720987
vt 0.233134 0.589795
vt 0.223614 0.589796
vt 0.223614 0.720986
vt 0.233131 0.720986
vt 0.19111 0.720986
vt 0.223614 0.720986
vt 0.223614 0.589796
vt 0.19111 0.568255
vt 0.223604 0.550784
vt 0.223614 0.589796
vt 0.233134 0.589795
vt 0.252091 0.550777
vt 0.921248 0.946206
vt 0.88876 0.965191
vt 0.888768 0.974707
vt 0.921272 0.974679
vt 0.514061 0.893301
vt 0.547299 0.858016
vt 0.509524 0.822434
vt 0.503466 0.83297
vt 0.733497 0.095461
vt 0.769036 0.095473
vt 0.769051 0.052082
vt 0.733512 0.05207
vt 0.769036 0.095473
vt 0.800737 0.095484
vt 0.800752 0.052063
vt 0.769051 0.052082
vt 0.954279 0.682174
vt 0.954288 0.652066
vt 0.92131 0.652056
vt 0.921302 0.680531
vt 0.954288 0.652066
vt 0.954267 0.61994
vt 0.945208 0.619938
vt 0.92131 0.652056
vt 0.445644 0.591681
vt 0.445644 0.619805
vt 0.474118 0.619805
vt 0.474119 0.591681
vt 0.925868 0.702626
vt 0.933165 0.739804
vt 0.997654 0.739824
vt 0.997665 0.702641
vt 0.997654 0.739824
vt 0.933165 0.739804
vt 0.933121 0.888304
vt 0.997609 0.888324
vt 0.514733 0.947936
vt 0.547279 0.913387
vt 0.547299 0.858016
vt 0.514061 0.893301
vt 0.733512 0.05207
vt 0.726461 0.052067
vt 0.726446 0.095459
vt 0.733497 0.095461
vt 0.921302 0.680531
vt 0.925868 0.702626
vt 0.997665 0.702641
vt 0.954279 0.682174
vt 0.445641 0.438946
vt 0.42308 0.438946
vt 0.423083 0.619805
vt 0.445644 0.591681
vt 0.423083 0.619805
vt 0.445644 0.619805
vt 0.445644 0.591681
vt 0.42308 0.438946
vt 0.389593 0.453589
vt 0.389596 0.602084
vt 0.423083 0.619805
vt 0.921248 0.946206
vt 0.921272 0.974679
vt 0.997657 0.996633
vt 0.997596 0.925059
vt 0.954279 0.682174
vt 0.997665 0.702641
vt 0.997671 0.682187
vt 0.50661 0.438944
vt 0.506607 0.596414
vt 0.515666 0.596414
vt 0.515666 0.568876
vt 0.474119 0.591681
vt 0.50661 0.438944
vt 0.474121 0.438943
vt 0.474119 0.591681
vt 0.474118 0.619805
vt 0.506607 0.596414
vt 0.50661 0.438944
vt 0.997596 0.925059
vt 0.997609 0.888324
vt 0.933121 0.888304
vt 0.925801 0.92411
vt 0.515666 0.568876
vt 0.559088 0.568877
vt 0.559091 0.438945
vt 0.921272 0.974679
vt 0.945178 0.996678
vt 0.997657 0.996633
vt 0.50661 0.438944
vt 0.515666 0.568876
vt 0.559091 0.438945
vt 0.997596 0.925059
vt 0.925801 0.92411
vt 0.921248 0.946206
vt 0.333911 0.873712
vt 0.363442 0.891999
vt 0.388967 0.884229
vt 0.385765 0.873712
vt 0.385765 0.873712
vt 0.39676 0.873712
vt 0.39676 0.847617
vt 0.385765 0.847617
vt 0.385765 0.847617
vt 0.388967 0.837099
vt 0.363442 0.829329
vt 0.333911 0.847616
vt 0.333911 0.847616
vt 0.333911 0.873712
vt 0.385765 0.873712
vt 0.385765 0.847617
vt 0.822617 0.995477
vt 0.840184 0.995476
vt 0.840184 0.943882
vt 0.822618 0.943882
vt 0.815223 0.943882
vt 0.797657 0.943882
vt 0.797657 0.995476
vt 0.815223 0.995476
vt 0.815223 0.943882
vt 0.815223 0.995476
vt 0.822617 0.995477
vt 0.822618 0.943882
f 1/1 10/2 9/3 3/4
f 2/5 1/6 3/7 4/8
f 4/9 11/10 12/11 2/12
f 9/13 10/14 5/15 7/16
f 7/17 5/18 6/19 8/20
f 8/21 6/22 12/23 11/24
f 17/25 18/26 14/27 13/28
f 18/29 19/30 15/31 14/32
f 19/33 20/34 16/35 15/36
f 20/37 19/38 18/39 17/40
f 101/41 23/42 21/43 102/44
f 24/45 103/46 104/47 22/48
f 24/49 23/50 101/51 103/52
f 29/53 30/54 26/55 25/56
f 30/57 31/58 27/59 26/60
f 31/61 32/62 28/63 27/64
f 32/65 29/66 25/67 28/68
f 32/69 31/70 30/71 29/72
f 37/73 38/74 34/75 33/76
f 38/77 39/78 35/79 34/80
f 39/81 40/82 36/83 35/84
f 40/85 39/86 38/87 37/88
f 45/89 46/90 42/91 41/92
f 46/93 47/94 43/95 42/96
f 47/97 48/98 44/99 43/100
f 48/101 47/102 46/103 45/104
f 53/105 51/106 49/107 54/108
f 51/109 52/110 50/111 49/112
f 137/113 54/114 49/115 50/116
f 133/117 53/118 54/119 134/120
f 135/121 53/122 133/123
f 137/124 134/125 54/126
f 52/127 51/128 53/129 135/130
f 57/131 56/132 60/133 61/134
f 61/135 60/136 62/137 63/138
f 58/139 59/140 63/141 62/142
f 59/143 57/144 61/145 63/146
f 56/147 58/148 62/149 60/150
f 66/151 65/152 72/153 73/154
f 143/155 65/156 66/157 147/158
f 147/159 66/160 67/161 153/162
f 72/163 69/164 70/165 73/166
f 73/167 70/168 71/169 74/170
f 57/171 59/172 70/173 69/174
f 76/175 169/176 161/177 68/178
f 161/179 142/180 55/181 68/182
f 67/183 66/184 73/185 74/186
f 65/187 143/188 160/189 72/190
f 69/191 72/192 169/193 76/194
f 56/195 57/196 76/197 75/198
f 76/199 57/200 69/201
f 75/202 76/203 68/204 55/205
f 56/206 154/207 146/208 58/209
f 72/210 160/211 169/212
f 64/213 67/214 74/215 71/216
f 59/217 58/218 64/219
f 59/220 64/221 71/222 70/223
f 154/224 75/225 55/226 142/227
f 67/228 146/229 153/230
f 58/231 146/232 64/233
f 64/234 146/235 67/236
f 154/237 56/238 75/239
f 81/240 82/241 78/242 77/243
f 82/244 83/245 79/246 78/247
f 83/248 84/249 80/250 79/251
f 84/252 83/253 82/254 81/255
f 182/256 87/257 85/258 183/259
f 88/260 184/261 185/262 86/263
f 88/264 87/265 182/266 184/267
f 93/268 89/269 90/270 94/271
f 94/272 90/273 91/274 95/275
f 95/276 91/277 92/278 96/279
f 96/280 93/281 94/282 95/283
f 101/284 102/285 97/286 99/287
f 100/288 98/289 104/290 103/291
f 100/292 103/293 101/294 99/295
f 109/296 105/297 106/298 110/299
f 110/300 106/301 107/302 111/303
f 111/304 107/305 108/306 112/307
f 112/308 108/309 105/310 109/311
f 112/312 109/313 110/314 111/315
f 117/316 113/317 114/318 118/319
f 118/320 114/321 115/322 119/323
f 119/324 115/325 116/326 120/327
f 120/328 117/329 118/330 119/331
f 125/332 121/333 122/334 126/335
f 126/336 122/337 123/338 127/339
f 127/340 123/341 124/342 128/343
f 128/344 125/345 126/346 127/347
f 136/348 138/349 129/350 131/351
f 131/352 129/353 130/354 132/355
f 137/356 130/357 129/358 138/359
f 133/360 134/361 138/362 136/363
f 135/364 133/365 136/366
f 137/367 138/368 134/369
f 132/370 135/371 136/372 131/373
f 141/374 149/375 148/376 140/377
f 149/378 151/379 150/380 148/381
f 144/382 150/383 151/384 145/385
f 145/386 151/387 149/388 141/389
f 140/390 148/391 150/392 144/393
f 156/394 165/395 164/396 155/397
f 143/398 147/399 156/400 155/401
f 147/402 153/403 157/404 156/405
f 164/406 165/407 162/408 159/409
f 165/410 166/411 163/412 162/413
f 141/414 159/415 162/416 145/417
f 168/418 158/419 161/420 169/421
f 161/422 158/423 139/424 142/425
f 157/426 166/427 165/428 156/429
f 155/430 164/431 160/432 143/433
f 159/434 168/435 169/436 164/437
f 140/438 167/439 168/440 141/441
f 168/442 159/443 141/444
f 167/445 139/446 158/447 168/448
f 140/449 144/450 146/451 154/452
f 164/453 169/454 160/455
f 152/456 163/457 166/458 157/459
f 145/460 152/461 144/462
f 145/463 162/464 163/465 152/466
f 154/467 142/468 139/469 167/470
f 157/471 153/472 146/473
f 144/474 152/475 146/476
f 152/477 157/478 146/479
f 154/480 167/481 140/482
f 174/483 170/484 171/485 175/486
f 175/487 171/488 172/489 176/490
f 176/491 172/492 173/493 177/494
f 177/495 174/496 175/497 176/498
f 182/499 183/500 178/501 180/502
f 181/503 179/504 185/505 184/506
f 181/507 184/508 182/509 180/510
