# Converted from DestroyerMediumTurretBarrel.fbx
o DestroyerMediumTurretBarrel
v 0.445132 -0.05044 -0.058796
v 0.445132 -0.05044 2.280722
v 0.445132 0.050441 -0.058796
v 0.445132 0.050441 2.280722
v 0.124803 0.140392 -0.058796
v 0.124803 -0.140392 2.033882
v 0.124803 -0.140391 -0.058796
v 0.124803 0.140391 2.033882
v 0.400951 -0.036931 2.033882
v 0.400951 0.03693 2.033882
v 0.125842 -0.102788 2.033882
v 0.125842 0.102786 2.033882
v 0.400951 -0.036931 1.767188
v 0.400951 0.03693 1.767188
v 0.125746 -0.102788 1.767188
v 0.125746 0.102786 1.767188
v 0.217329 -0.118823 2.280722
v 0.217329 0.118822 2.280722
v 0.400951 -0.036931 2.280722
v 0.400951 0.03693 2.280722
v 0.218369 -0.102788 2.280722
v 0.218369 0.102786 2.280722
v -0.445132 -0.05044 -0.058796
v -0.445132 -0.05044 2.280722
v -0.445132 0.050441 -0.058796
v -0.445132 0.050441 2.280722
v 0 0.140392 -0.058796
v 0 -0.140391 -0.058796
v 0 0.140391 2.033882
v 0 -0.140392 2.033882
v -0.124803 0.140392 -0.058796
v -0.124803 -0.140392 2.033882
v -0.124803 -0.140391 -0.058796
v -0.124803 0.140391 2.033882
v -0.400951 -0.036931 2.033882
v -0.400951 0.03693 2.033882
v 0 0.102783 2.033882
v 0 -0.102791 2.033882
v -0.125842 -0.102788 2.033882
v -0.125842 0.102786 2.033882
v -0.400951 -0.036931 1.767188
v -0.400951 0.03693 1.767188
v 0 0.102783 1.767188
v -0.125746 -0.102788 1.767188
v -0.125746 0.102786 1.767188
v 0 -0.102792 1.767188
v -0.217329 -0.118823 2.280722
v -0.217329 0.118822 2.280722
v -0.400951 -0.036931 2.280722
v -0.400951 0.03693 2.280722
v -0.218369 -0.102788 2.280722
v -0.218369 0.102786 2.280722
vt 0.046781 0.817123
vt 0.04678 0.995782
vt 0.039076 0.995782
vt 0.039076 0.817123
vt 0.04678 0.995782
vt 0.046781 0.817123
vt 0.072189 0.835973
vt 0.072188 0.995782
vt 0.131268 0.03018
vt 0.145868 0.030153
vt 0.145997 0.034551
vt 0.131276 0.034579
vt 0.013668 0.835973
vt 0.013668 0.995783
vt 0.004137 0.995783
vt 0.004137 0.835973
vt 0.08172 0.835973
vt 0.081719 0.995782
vt 0.072188 0.995782
vt 0.072189 0.835973
vt 0.220891 0.03455
vt 0.18778 0.034472
vt 0.187755 0.005579
vt 0.210448 0.005539
vt 0.039076 0.817123
vt 0.039076 0.995782
vt 0.013668 0.995783
vt 0.013668 0.835973
vt 0.17911 0.034472
vt 0.145997 0.034551
vt 0.156441 0.005539
vt 0.179135 0.005579
vt 0.221021 0.030153
vt 0.235618 0.030179
vt 0.23561 0.034577
vt 0.220891 0.03455
vt 0.18778 0.034472
vt 0.220891 0.03455
vt 0.220849 0.065742
vt 0.187756 0.065686
vt 0.145997 0.034551
vt 0.17911 0.034472
vt 0.179137 0.065687
vt 0.146042 0.065747
vt 0.17911 0.034472
vt 0.18778 0.034472
vt 0.187756 0.065686
vt 0.179137 0.065687
vt 0.220891 0.03455
vt 0.23561 0.034577
vt 0.235554 0.065771
vt 0.220849 0.065742
vt 0.033011 0.779447
vt 0.035894 0.779592
vt 0.035072 0.7998
vt 0.033844 0.799722
vt 0.049921 0.779588
vt 0.052802 0.779438
vt 0.052005 0.799704
vt 0.050777 0.799784
vt 0.18778 0.034472
vt 0.17911 0.034472
vt 0.179135 0.005579
vt 0.187755 0.005579
vt 0.072189 0.835973
vt 0.046781 0.817123
vt 0.064944 0.817119
vt 0.131276 0.034579
vt 0.145997 0.034551
vt 0.146042 0.065747
vt 0.131334 0.065777
vt 0.052005 0.799704
vt 0.046781 0.817123
vt 0.045748 0.813746
vt 0.050777 0.799784
vt 0.039076 0.817123
vt 0.033844 0.799722
vt 0.035072 0.7998
vt 0.040107 0.813748
vt 0.188632 0.082002
vt 0.188652 0.073366
vt 0.235554 0.065771
vt 0.2355 0.089811
vt 0.188652 0.073366
vt 0.220849 0.065742
vt 0.235554 0.065771
vt 0.220796 0.089777
vt 0.188632 0.082002
vt 0.2355 0.089811
vt 0.046781 0.817123
vt 0.039076 0.817123
vt 0.040107 0.813748
vt 0.045748 0.813746
vt 0.039076 0.817123
vt 0.013668 0.835973
vt 0.020913 0.817119
vt 0.039076 0.995782
vt 0.04678 0.995782
vt 0.046781 0.817123
vt 0.039076 0.817123
vt 0.072189 0.835973
vt 0.046781 0.817123
vt 0.04678 0.995782
vt 0.072188 0.995782
vt 0.131268 0.03018
vt 0.131276 0.034579
vt 0.145997 0.034551
vt 0.145868 0.030153
vt 0.013668 0.835973
vt 0.004137 0.835973
vt 0.004137 0.995783
vt 0.013668 0.995783
vt 0.08172 0.835973
vt 0.072189 0.835973
vt 0.072188 0.995782
vt 0.081719 0.995782
vt 0.220891 0.03455
vt 0.210448 0.005539
vt 0.187755 0.005579
vt 0.18778 0.034472
vt 0.039076 0.817123
vt 0.013668 0.835973
vt 0.013668 0.995783
vt 0.039076 0.995782
vt 0.17911 0.034472
vt 0.179135 0.005579
vt 0.156441 0.005539
vt 0.145997 0.034551
vt 0.221021 0.030153
vt 0.220891 0.03455
vt 0.23561 0.034577
vt 0.235618 0.030179
vt 0.18778 0.034472
vt 0.187756 0.065686
vt 0.220849 0.065742
vt 0.220891 0.03455
vt 0.145997 0.034551
vt 0.146042 0.065747
vt 0.179137 0.065687
vt 0.17911 0.034472
vt 0.17911 0.034472
vt 0.179137 0.065687
vt 0.187756 0.065686
vt 0.18778 0.034472
vt 0.220891 0.03455
vt 0.220849 0.065742
vt 0.235554 0.065771
vt 0.23561 0.034577
vt 0.033011 0.779447
vt 0.033844 0.799722
vt 0.035072 0.7998
vt 0.035894 0.779592
vt 0.049921 0.779588
vt 0.050777 0.799784
vt 0.052005 0.799704
vt 0.052802 0.779438
vt 0.18778 0.034472
vt 0.187755 0.005579
vt 0.179135 0.005579
vt 0.17911 0.034472
vt 0.072189 0.835973
vt 0.064944 0.817119
vt 0.046781 0.817123
vt 0.131276 0.034579
vt 0.131334 0.065777
vt 0.146042 0.065747
vt 0.145997 0.034551
vt 0.052005 0.799704
vt 0.050777 0.799784
vt 0.045748 0.813746
vt 0.046781 0.817123
vt 0.039076 0.817123
vt 0.040107 0.813748
vt 0.035072 0.7998
vt 0.033844 0.799722
vt 0.188632 0.082002
vt 0.2355 0.089811
vt 0.235554 0.065771
vt 0.188652 0.073366
vt 0.188652 0.073366
vt 0.235554 0.065771
vt 0.220849 0.065742
vt 0.220796 0.089777
vt 0.2355 0.089811
vt 0.188632 0.082002
vt 0.046781 0.817123
vt 0.045748 0.813746
vt 0.040107 0.813748
vt 0.039076 0.817123
vt 0.039076 0.817123
vt 0.020913 0.817119
vt 0.013668 0.835973
f 2/1 1/2 3/3 4/4
f 1/5 2/6 6/7 7/8
f 30/9 6/10 11/11 38/12
f 8/13 5/14 27/15 29/16
f 30/17 28/18 7/19 6/20
f 12/21 10/22 20/23 22/24
f 4/25 3/26 5/27 8/28
f 9/29 11/30 21/31 19/32
f 8/33 29/34 37/35 12/36
f 10/37 12/38 16/39 14/40
f 11/41 9/42 13/43 15/44
f 9/45 10/46 14/47 13/48
f 12/49 37/50 43/51 16/52
f 8/53 12/54 22/55 18/56
f 11/57 6/58 17/59 21/60
f 10/61 9/62 19/63 20/64
f 6/65 2/66 17/67
f 38/68 11/69 15/70 46/71
f 17/72 2/73 19/74 21/75
f 4/76 18/77 22/78 20/79
f 13/80 14/81 43/82 46/83
f 14/84 16/85 43/86
f 15/87 13/88 46/89
f 2/90 4/91 20/92 19/93
f 4/94 8/95 18/96
f 25/97 23/98 24/99 26/100
f 32/101 24/102 23/103 33/104
f 30/105 38/106 39/107 32/108
f 34/109 29/110 27/111 31/112
f 30/113 32/114 33/115 28/116
f 40/117 52/118 50/119 36/120
f 26/121 34/122 31/123 25/124
f 35/125 49/126 51/127 39/128
f 34/129 40/130 37/131 29/132
f 36/133 42/134 45/135 40/136
f 39/137 44/138 41/139 35/140
f 35/141 41/142 42/143 36/144
f 40/145 45/146 43/147 37/148
f 34/149 48/150 52/151 40/152
f 39/153 51/154 47/155 32/156
f 36/157 50/158 49/159 35/160
f 32/161 47/162 24/163
f 38/164 46/165 44/166 39/167
f 47/168 51/169 49/170 24/171
f 26/172 50/173 52/174 48/175
f 41/176 46/177 43/178 42/179
f 42/180 43/181 45/182
f 44/183 46/184 41/185
f 24/186 49/187 50/188 26/189
f 26/190 48/191 34/192
