# Converted from DestroyerHeavyTurretBody.fbx
o DestroyerHeavyTurretBody
v 1.292505 -0.018772 -0.77252
v 1.292505 -0.018773 0.772524
v 1.292505 0.959619 -0.77252
v 1.292505 0.959618 0.772524
v -1.292505 -0.018772 -0.77252
v -1.292505 -0.018773 0.772524
v -1.292505 0.959619 -0.77252
v -1.292505 0.959618 0.772524
v 0 0.959619 -1.414408
v 0 -0.018772 -1.414408
v 0 0.959618 1.414408
v 0 -0.018773 1.414408
v 0.671139 2.941858 -0.179221
v 0.671139 2.941858 -0.064959
v 0.671139 3.171468 -0.179221
v 0.671139 3.171468 -0.064959
v 0.640274 2.931771 -2.533946
v 0.869665 2.931771 -2.533946
v 0.640274 3.543121 0.796601
v 0.640274 3.203907 -2.204841
v 0.869665 3.203907 -2.204841
v 0.869665 3.543121 0.796601
v 0.640274 3.543121 0.280709
v 0.640274 2.931771 1.004624
v 0.869665 3.543121 0.280709
v 0.869665 2.931771 1.004624
v 0.965437 1.281731 2.771417
v 0.965437 1.281731 2.437184
v 2.187639 1.460004 2.437184
v 2.187639 1.460004 2.54139
v 0.965437 1.97872 2.771417
v 0.965437 1.97872 2.437184
v 2.187639 1.800447 2.437184
v 2.187639 1.800447 2.54139
v 0.944268 2.119685 1.179742
v 0.944268 2.119685 0.578252
v 1.472264 2.119685 0.578252
v 1.472264 2.119685 1.179742
v 0.944268 2.444058 1.179742
v 0.944268 2.444058 0.578252
v 1.472264 2.267095 0.578252
v 1.472264 2.267095 1.179742
v 1 1.206206 -2.885676
v 1 2.746277 -2.885676
v 1.000006 2.367131 2.861135
v 1 2.976242 -2.657943
v 1 0.976242 -2.657943
v 0.523007 2.976242 0.1237
v 0.523011 0.976242 1.813272
v 0.523011 2.367131 1.100797
v 1 2.976242 1.171563
v 1.000006 1.225698 2.861135
v 0.523007 2.976242 1.171567
v 0.523011 1.225698 2.861138
v 1.000006 0.976242 2.644559
v 0.523011 2.367131 2.861142
v 0.523011 0.976242 2.644563
v 2.364853 1.151097 -2.54951
v 2.364853 1.151097 2.459867
v 2.364853 1.854273 -2.54951
v 2.364853 1.854273 2.459867
v 1.527949 2.186874 -2.54951
v 1.527949 0.818496 2.459867
v 1.527949 0.818497 -2.54951
v 1.527949 2.186873 2.459867
v 2.230682 1.263829 -2.54951
v 2.230682 1.741542 -2.54951
v 1.662119 1.967498 -2.54951
v 1.662119 1.037872 -2.54951
v 2.230682 1.263829 -2.819541
v 2.230682 1.741542 -2.819541
v 1.662119 1.967498 -2.819541
v 1.662119 1.037872 -2.819541
v 0.944268 2.119685 -0.293998
v 0.944268 2.119685 -0.895488
v 1.472264 2.119685 -0.895488
v 1.472264 2.119685 -0.293998
v 0.944268 2.444058 -0.293998
v 0.944268 2.444058 -0.895488
v 1.472264 2.267095 -0.895488
v 1.472264 2.267095 -0.293998
v 0.944268 2.119685 -1.726354
v 0.944268 2.119685 -2.327844
v 1.472264 2.119685 -2.327844
v 1.472264 2.119685 -1.726354
v 0.944268 2.444058 -1.726354
v 0.944268 2.444058 -2.327844
v 1.472264 2.267095 -2.327844
v 1.472264 2.267095 -1.726354
v 0.671139 2.941858 -0.912032
v 0.671139 2.941858 -0.79777
v 0.671139 3.171468 -0.912032
v 0.671139 3.171468 -0.79777
v 0.671139 2.941858 -1.611745
v 0.671139 2.941858 -1.497483
v 0.671139 3.171468 -1.611745
v 0.671139 3.171468 -1.497483
v -0.671139 2.941858 -0.179221
v -0.671139 2.941858 -0.064959
v -0.671139 3.171468 -0.179221
v -0.671139 3.171468 -0.064959
v 0 3.171468 -0.179221
v 0 2.941858 -0.179221
v 0 3.171468 -0.064959
v 0 2.941858 -0.064959
v -0.640274 2.931771 -2.533946
v -0.869665 2.931771 -2.533946
v -0.640274 3.543121 0.796601
v -0.640274 3.203907 -2.204841
v -0.869665 3.203907 -2.204841
v -0.869665 3.543121 0.796601
v -0.640274 3.543121 0.280709
v -0.640274 2.931771 1.004624
v -0.869665 3.543121 0.280709
v -0.869665 2.931771 1.004624
v -0.965437 1.281731 2.771417
v -0.965437 1.281731 2.437184
v -2.187639 1.460004 2.437184
v -2.187639 1.460004 2.54139
v -0.965437 1.97872 2.771417
v -0.965437 1.97872 2.437184
v -2.187639 1.800447 2.437184
v -2.187639 1.800447 2.54139
v -0.944268 2.119685 1.179742
v -0.944268 2.119685 0.578252
v -1.472264 2.119685 0.578252
v -1.472264 2.119685 1.179742
v -0.944268 2.444058 1.179742
v -0.944268 2.444058 0.578252
v -1.472264 2.267095 0.578252
v -1.472264 2.267095 1.179742
v -1 1.206206 -2.885676
v -1 2.746277 -2.885676
v 0 2.746277 -2.885673
v 0 2.976242 0.1237
v 0 0.976242 0.1237
v -1.000006 2.367131 2.861135
v 0 2.367131 1.100804
v 0 0.976242 1.813275
v -1 2.976242 -2.657943
v -1 0.976242 -2.657943
v 0 1.206205 -2.885673
v -0.523007 2.976242 0.1237
v -0.523011 0.976242 1.813272
v -0.523011 2.367131 1.100797
v 0 0.976242 -2.657935
v 0 2.976242 -2.657935
v -1 2.976242 1.171563
v -1.000006 1.225698 2.861135
v -0.523007 2.976242 1.171567
v -0.523011 1.225698 2.861138
v -1.000006 0.976242 2.644559
v -0.523011 2.367131 2.861142
v -0.523011 0.976242 2.644563
v -2.364853 1.151097 -2.54951
v -2.364853 1.151097 2.459867
v -2.364853 1.854273 -2.54951
v -2.364853 1.854273 2.459867
v 0 2.186874 -2.54951
v 0 0.818497 -2.54951
v 0 2.186873 2.459867
v 0 0.818496 2.459867
v -1.527949 2.186874 -2.54951
v -1.527949 0.818496 2.459867
v -1.527949 0.818497 -2.54951
v -1.527949 2.186873 2.459867
v -2.230682 1.263829 -2.54951
v -2.230682 1.741542 -2.54951
v -1.662119 1.967498 -2.54951
v -1.662119 1.037872 -2.54951
v -2.230682 1.263829 -2.819541
v -2.230682 1.741542 -2.819541
v -1.662119 1.967498 -2.819541
v -1.662119 1.037872 -2.819541
v -0.944268 2.119685 -0.293998
v -0.944268 2.119685 -0.895488
v -1.472264 2.119685 -0.895488
v -1.472264 2.119685 -0.293998
v -0.944268 2.444058 -0.293998
v -0.944268 2.444058 -0.895488
v -1.472264 2.267095 -0.895488
v -1.472264 2.267095 -0.293998
v -0.944268 2.119685 -1.726354
v -0.944268 2.119685 -2.327844
v -1.472264 2.119685 -2.327844
v -1.472264 2.119685 -1.726354
v -0.944268 2.444058 -1.726354
v -0.944268 2.444058 -2.327844
v -1.472264 2.267095 -2.327844
v -1.472264 2.267095 -1.726354
v -0.671139 2.941858 -0.912032
v -0.671139 2.941858 -0.79777
v -0.671139 3.171468 -0.912032
v -0.671139 3.171468 -0.79777
v 0 3.171468 -0.912032
v 0 2.941858 -0.912032
v 0 3.171468 -0.79777
v 0 2.941858 -0.79777
v -0.671139 2.941858 -1.611745
v -0.671139 2.941858 -1.497483
v -0.671139 3.171468 -1.611745
v -0.671139 3.171468 -1.497483
v 0 3.171468 -1.611745
v 0 2.941858 -1.611745
v 0 3.171468 -1.497483
v 0 2.941858 -1.497483
vt 0.371441 0.200351
vt 0.371441 0.090144
vt 0.446159 0.090144
vt 0.446159 0.200351
vt 0.371441 0.318345
vt 0.371441 0.200351
vt 0.446159 0.200351
vt 0.44616 0.318345
vt 0.44616 0.318345
vt 0.44616 0.428553
vt 0.371442 0.428553
vt 0.371441 0.318345
vt 0.446159 0.090144
vt 0.371441 0.090144
vt 0.371441 0.200351
vt 0.446159 0.200351
vt 0.446159 0.200351
vt 0.371441 0.200351
vt 0.371441 0.318345
vt 0.44616 0.318345
vt 0.44616 0.318345
vt 0.371441 0.318345
vt 0.371442 0.428553
vt 0.44616 0.428553
vt 0.061568 0.755166
vt 0.061567 0.692708
vt 0.082935 0.692707
vt 0.082935 0.755166
vt 0.050934 0.692708
vt 0.050936 0.755166
vt 0.029568 0.755166
vt 0.029566 0.692709
vt 0.050934 0.692708
vt 0.061567 0.692708
vt 0.061568 0.755166
vt 0.050936 0.755166
vt 0.861788 0.88434
vt 0.887719 0.694586
vt 0.908499 0.669464
vt 0.908453 0.939618
vt 0.861882 0.692604
vt 0.844349 0.692596
vt 0.844364 0.659954
vt 0.861898 0.659962
vt 0.844263 0.884334
vt 0.844349 0.692596
vt 0.861882 0.692604
vt 0.861788 0.88434
vt 0.818358 0.694524
vt 0.844263 0.884334
vt 0.797577 0.939616
vt 0.797576 0.669392
vt 0.844263 0.92373
vt 0.844263 0.884334
vt 0.861788 0.88434
vt 0.86178 0.92373
vt 0.844263 0.884334
vt 0.844263 0.92373
vt 0.797577 0.939616
vt 0.844263 0.92373
vt 0.86178 0.92373
vt 0.86178 0.973043
vt 0.844263 0.973043
vt 0.86178 0.92373
vt 0.861788 0.88434
vt 0.908453 0.939618
vt 0.361403 0.81408
vt 0.350949 0.81408
vt 0.350949 0.779927
vt 0.361403 0.779927
vt 0.350949 0.81408
vt 0.226185 0.831964
vt 0.226185 0.762042
vt 0.350949 0.779927
vt 0.226185 0.762042
vt 0.236939 0.730283
vt 0.354302 0.770025
vt 0.350949 0.779927
vt 0.350949 0.81408
vt 0.354302 0.823982
vt 0.236939 0.863723
vt 0.226185 0.831964
vt 0.5365 0.689098
vt 0.493973 0.689098
vt 0.490396 0.678424
vt 0.528628 0.66561
vt 0.493973 0.689098
vt 0.493973 0.735033
vt 0.482715 0.735033
vt 0.482715 0.689097
vt 0.493973 0.735033
vt 0.5365 0.735032
vt 0.528628 0.75852
vt 0.490396 0.745707
vt 0.493973 0.735033
vt 0.493973 0.689098
vt 0.5365 0.689098
vt 0.5365 0.735032
vt 0.005236 0.688172
vt 0.005238 0.663454
vt 0.08161 0.663459
vt 0.081608 0.688177
vt 0.0452 0.220765
vt 0.005262 0.220762
vt 0.005268 0.101426
vt 0.045207 0.101428
vt 0.045195 0.30869
vt 0.005257 0.308687
vt 0.005262 0.220762
vt 0.0452 0.220765
vt 0.09918 0.538514
vt 0.081618 0.521123
vt 0.234357 0.521123
vt 0.216795 0.538515
vt 0.806543 0.527042
vt 0.720538 0.545364
vt 0.594142 0.499577
vt 0.7313 0.499787
vt 0.594142 0.499577
vt 0.573515 0.605079
vt 0.564453 0.581534
vt 0.583263 0.081536
vt 0.370834 0.081535
vt 0.370834 0.005167
vt 0.775777 0.005168
vt 0.583263 0.081536
vt 0.775777 0.005168
vt 0.712293 0.041595
vt 0.712293 0.041595
vt 0.775777 0.005168
vt 0.775778 0.041595
vt 0.08162 0.228667
vt 0.081618 0.521123
vt 0.005248 0.521119
vt 0.045195 0.30869
vt 0.234357 0.116175
vt 0.128135 0.099636
vt 0.215306 0.099635
vt 0.081621 0.091513
vt 0.045196 0.091513
vt 0.045195 0.00435
vt 0.08162 0.004349
vt 0.775778 0.041595
vt 0.775777 0.005168
vt 0.801006 0.005167
vt 0.801007 0.041595
vt 0.08162 0.228667
vt 0.045194 0.228667
vt 0.045196 0.091513
vt 0.081621 0.091513
vt 0.08162 0.228667
vt 0.045195 0.30869
vt 0.045194 0.228667
vt 0.234357 0.116175
vt 0.08162 0.228667
vt 0.128135 0.099636
vt 0.720538 0.545364
vt 0.633204 0.626701
vt 0.573515 0.605079
vt 0.594142 0.499577
vt 0.081618 0.521123
vt 0.08162 0.228667
vt 0.234357 0.116175
vt 0.234357 0.521123
vt 0.005246 0.545836
vt 0.081617 0.54584
vt 0.08161 0.663459
vt 0.005238 0.663454
vt 0.045195 0.30869
vt 0.005248 0.521119
vt 0.005257 0.308687
vt 0.081618 0.521123
vt 0.081617 0.54584
vt 0.005246 0.545836
vt 0.005248 0.521119
vt 0.583263 0.081536
vt 0.712293 0.041595
vt 0.712293 0.081537
vt 0.814709 0.031873
vt 0.878618 0.006477
vt 0.868372 0.023228
vt 0.824955 0.040483
vt 0.809842 0.11097
vt 0.809837 0.493525
vt 0.756135 0.493525
vt 0.756142 0.110968
vt 0.687357 0.493524
vt 0.687366 0.110966
vt 0.756142 0.110968
vt 0.756135 0.493525
vt 0.878614 0.493523
vt 0.995303 0.493523
vt 0.995305 0.598026
vt 0.878614 0.598028
vt 0.878614 0.493523
vt 0.878617 0.110971
vt 0.995301 0.110972
vt 0.995303 0.493523
vt 0.995301 0.110972
vt 0.878617 0.110971
vt 0.878618 0.006477
vt 0.9953 0.006475
vt 0.570667 0.493523
vt 0.570679 0.110963
vt 0.687366 0.110966
vt 0.687357 0.493524
vt 0.814699 0.518925
vt 0.878614 0.493523
vt 0.878614 0.598028
vt 0.814699 0.572626
vt 0.809837 0.493525
vt 0.809842 0.11097
vt 0.878617 0.110971
vt 0.878614 0.493523
vt 0.878617 0.110971
vt 0.814708 0.085572
vt 0.824954 0.076964
vt 0.868371 0.094219
vt 0.814708 0.085572
vt 0.814709 0.031873
vt 0.824955 0.040483
vt 0.824954 0.076964
vt 0.878618 0.006477
vt 0.878617 0.110971
vt 0.868371 0.094219
vt 0.868372 0.023228
vt 0.279303 0.614142
vt 0.27931 0.577665
vt 0.299929 0.577669
vt 0.299923 0.614146
vt 0.27931 0.577665
vt 0.279318 0.53095
vt 0.299936 0.530953
vt 0.299929 0.577669
vt 0.279295 0.731865
vt 0.279295 0.660863
vt 0.299917 0.660865
vt 0.299919 0.731865
vt 0.279295 0.660863
vt 0.279303 0.614142
vt 0.299923 0.614146
vt 0.299917 0.660865
vt 0.299919 0.731865
vt 0.299917 0.660865
vt 0.343341 0.678121
vt 0.343342 0.714606
vt 0.5365 0.689098
vt 0.493973 0.689098
vt 0.490396 0.678424
vt 0.528628 0.66561
vt 0.493973 0.689098
vt 0.493973 0.735033
vt 0.482715 0.735033
vt 0.482715 0.689097
vt 0.493973 0.735033
vt 0.5365 0.735032
vt 0.528628 0.75852
vt 0.490396 0.745707
vt 0.493973 0.735033
vt 0.493973 0.689098
vt 0.5365 0.689098
vt 0.5365 0.735032
vt 0.5365 0.689098
vt 0.493973 0.689098
vt 0.490396 0.678424
vt 0.528628 0.66561
vt 0.493973 0.689098
vt 0.493973 0.735033
vt 0.482715 0.735033
vt 0.482715 0.689097
vt 0.493973 0.735033
vt 0.5365 0.735032
vt 0.528628 0.75852
vt 0.490396 0.745707
vt 0.493973 0.735033
vt 0.493973 0.689098
vt 0.5365 0.689098
vt 0.5365 0.735032
vt 0.061568 0.755166
vt 0.061567 0.692708
vt 0.082935 0.692707
vt 0.082935 0.755166
vt 0.050934 0.692708
vt 0.050936 0.755166
vt 0.029568 0.755166
vt 0.029566 0.692709
vt 0.050934 0.692708
vt 0.061567 0.692708
vt 0.061568 0.755166
vt 0.050936 0.755166
vt 0.061568 0.755166
vt 0.061567 0.692708
vt 0.082935 0.692707
vt 0.082935 0.755166
vt 0.050934 0.692708
vt 0.050936 0.755166
vt 0.029568 0.755166
vt 0.029566 0.692709
vt 0.050934 0.692708
vt 0.061567 0.692708
vt 0.061568 0.755166
vt 0.050936 0.755166
vt 0.061568 0.755166
vt 0.082935 0.755166
vt 0.082935 0.692707
vt 0.061567 0.692708
vt 0.050934 0.692708
vt 0.029566 0.692709
vt 0.029568 0.755166
vt 0.050936 0.755166
vt 0.050934 0.692708
vt 0.050936 0.755166
vt 0.061568 0.755166
vt 0.061567 0.692708
vt 0.861788 0.88434
vt 0.908453 0.939618
vt 0.908499 0.669464
vt 0.887719 0.694586
vt 0.861882 0.692604
vt 0.861898 0.659962
vt 0.844364 0.659954
vt 0.844349 0.692596
vt 0.844263 0.884334
vt 0.861788 0.88434
vt 0.861882 0.692604
vt 0.844349 0.692596
vt 0.818358 0.694524
vt 0.797576 0.669392
vt 0.797577 0.939616
vt 0.844263 0.884334
vt 0.844263 0.92373
vt 0.86178 0.92373
vt 0.861788 0.88434
vt 0.844263 0.884334
vt 0.844263 0.884334
vt 0.797577 0.939616
vt 0.844263 0.92373
vt 0.844263 0.92373
vt 0.844263 0.973043
vt 0.86178 0.973043
vt 0.86178 0.92373
vt 0.86178 0.92373
vt 0.908453 0.939618
vt 0.861788 0.88434
vt 0.361403 0.81408
vt 0.361403 0.779927
vt 0.350949 0.779927
vt 0.350949 0.81408
vt 0.350949 0.81408
vt 0.350949 0.779927
vt 0.226185 0.762042
vt 0.226185 0.831964
vt 0.226185 0.762042
vt 0.350949 0.779927
vt 0.354302 0.770025
vt 0.236939 0.730283
vt 0.350949 0.81408
vt 0.226185 0.831964
vt 0.236939 0.863723
vt 0.354302 0.823982
vt 0.5365 0.689098
vt 0.528628 0.66561
vt 0.490396 0.678424
vt 0.493973 0.689098
vt 0.493973 0.689098
vt 0.482715 0.689097
vt 0.482715 0.735033
vt 0.493973 0.735033
vt 0.493973 0.735033
vt 0.490396 0.745707
vt 0.528628 0.75852
vt 0.5365 0.735032
vt 0.493973 0.735033
vt 0.5365 0.735032
vt 0.5365 0.689098
vt 0.493973 0.689098
vt 0.005236 0.688172
vt 0.081608 0.688177
vt 0.08161 0.663459
vt 0.005238 0.663454
vt 0.0452 0.220765
vt 0.045207 0.101428
vt 0.005268 0.101426
vt 0.005262 0.220762
vt 0.045195 0.30869
vt 0.0452 0.220765
vt 0.005262 0.220762
vt 0.005257 0.308687
vt 0.09918 0.538514
vt 0.216795 0.538515
vt 0.234357 0.521123
vt 0.081618 0.521123
vt 0.806543 0.527042
vt 0.7313 0.499787
vt 0.594142 0.499577
vt 0.720538 0.545364
vt 0.594142 0.499577
vt 0.564453 0.581534
vt 0.573515 0.605079
vt 0.583263 0.081536
vt 0.775777 0.005168
vt 0.370834 0.005167
vt 0.370834 0.081535
vt 0.583263 0.081536
vt 0.712293 0.041595
vt 0.775777 0.005168
vt 0.712293 0.041595
vt 0.775778 0.041595
vt 0.775777 0.005168
vt 0.08162 0.228667
vt 0.045195 0.30869
vt 0.005248 0.521119
vt 0.081618 0.521123
vt 0.234357 0.116175
vt 0.215306 0.099635
vt 0.128135 0.099636
vt 0.081621 0.091513
vt 0.08162 0.004349
vt 0.045195 0.00435
vt 0.045196 0.091513
vt 0.775778 0.041595
vt 0.801007 0.041595
vt 0.801006 0.005167
vt 0.775777 0.005168
vt 0.08162 0.228667
vt 0.081621 0.091513
vt 0.045196 0.091513
vt 0.045194 0.228667
vt 0.08162 0.228667
vt 0.045194 0.228667
vt 0.045195 0.30869
vt 0.234357 0.116175
vt 0.128135 0.099636
vt 0.08162 0.228667
vt 0.720538 0.545364
vt 0.594142 0.499577
vt 0.573515 0.605079
vt 0.633204 0.626701
vt 0.081618 0.521123
vt 0.234357 0.521123
vt 0.234357 0.116175
vt 0.08162 0.228667
vt 0.005246 0.545836
vt 0.005238 0.663454
vt 0.08161 0.663459
vt 0.081617 0.54584
vt 0.045195 0.30869
vt 0.005257 0.308687
vt 0.005248 0.521119
vt 0.081618 0.521123
vt 0.005248 0.521119
vt 0.005246 0.545836
vt 0.081617 0.54584
vt 0.583263 0.081536
vt 0.712293 0.081537
vt 0.712293 0.041595
vt 0.814709 0.031873
vt 0.824955 0.040483
vt 0.868372 0.023228
vt 0.878618 0.006477
vt 0.809842 0.11097
vt 0.756142 0.110968
vt 0.756135 0.493525
vt 0.809837 0.493525
vt 0.687357 0.493524
vt 0.756135 0.493525
vt 0.756142 0.110968
vt 0.687366 0.110966
vt 0.878614 0.493523
vt 0.878614 0.598028
vt 0.995305 0.598026
vt 0.995303 0.493523
vt 0.878614 0.493523
vt 0.995303 0.493523
vt 0.995301 0.110972
vt 0.878617 0.110971
vt 0.995301 0.110972
vt 0.9953 0.006475
vt 0.878618 0.006477
vt 0.878617 0.110971
vt 0.570667 0.493523
vt 0.687357 0.493524
vt 0.687366 0.110966
vt 0.570679 0.110963
vt 0.814699 0.518925
vt 0.814699 0.572626
vt 0.878614 0.598028
vt 0.878614 0.493523
vt 0.809837 0.493525
vt 0.878614 0.493523
vt 0.878617 0.110971
vt 0.809842 0.11097
vt 0.878617 0.110971
vt 0.868371 0.094219
vt 0.824954 0.076964
vt 0.814708 0.085572
vt 0.814708 0.085572
vt 0.824954 0.076964
vt 0.824955 0.040483
vt 0.814709 0.031873
vt 0.878618 0.006477
vt 0.868372 0.023228
vt 0.868371 0.094219
vt 0.878617 0.110971
vt 0.279303 0.614142
vt 0.299923 0.614146
vt 0.299929 0.577669
vt 0.27931 0.577665
vt 0.27931 0.577665
vt 0.299929 0.577669
vt 0.299936 0.530953
vt 0.279318 0.53095
vt 0.279295 0.731865
vt 0.299919 0.731865
vt 0.299917 0.660865
vt 0.279295 0.660863
vt 0.279295 0.660863
vt 0.299917 0.660865
vt 0.299923 0.614146
vt 0.279303 0.614142
vt 0.299919 0.731865
vt 0.343342 0.714606
vt 0.343341 0.678121
vt 0.299917 0.660865
vt 0.5365 0.689098
vt 0.528628 0.66561
vt 0.490396 0.678424
vt 0.493973 0.689098
vt 0.493973 0.689098
vt 0.482715 0.689097
vt 0.482715 0.735033
vt 0.493973 0.735033
vt 0.493973 0.735033
vt 0.490396 0.745707
vt 0.528628 0.75852
vt 0.5365 0.735032
vt 0.493973 0.735033
vt 0.5365 0.735032
vt 0.5365 0.689098
vt 0.493973 0.689098
vt 0.5365 0.689098
vt 0.528628 0.66561
vt 0.490396 0.678424
vt 0.493973 0.689098
vt 0.493973 0.689098
vt 0.482715 0.689097
vt 0.482715 0.735033
vt 0.493973 0.735033
vt 0.493973 0.735033
vt 0.490396 0.745707
vt 0.528628 0.75852
vt 0.5365 0.735032
vt 0.493973 0.735033
vt 0.5365 0.735032
vt 0.5365 0.689098
vt 0.493973 0.689098
vt 0.061568 0.755166
vt 0.082935 0.755166
vt 0.082935 0.692707
vt 0.061567 0.692708
vt 0.050934 0.692708
vt 0.029566 0.692709
vt 0.029568 0.755166
vt 0.050936 0.755166
vt 0.050934 0.692708
vt 0.050936 0.755166
vt 0.061568 0.755166
vt 0.061567 0.692708
vt 0.061568 0.755166
vt 0.082935 0.755166
vt 0.082935 0.692707
vt 0.061567 0.692708
vt 0.050934 0.692708
vt 0.029566 0.692709
vt 0.029568 0.755166
vt 0.050936 0.755166
vt 0.050934 0.692708
vt 0.050936 0.755166
vt 0.061568 0.755166
vt 0.061567 0.692708
f 1/1 10/2 9/3 3/4
f 2/5 1/6 3/7 4/8
f 4/9 11/10 12/11 2/12
f 9/13 10/14 5/15 7/16
f 7/17 5/18 6/19 8/20
f 8/21 6/22 12/23 11/24
f 102/25 15/26 13/27 103/28
f 16/29 104/30 105/31 14/32
f 16/33 15/34 102/35 104/36
f 23/37 20/38 17/39 24/40
f 20/41 21/42 18/43 17/44
f 25/45 21/46 20/47 23/48
f 21/49 25/50 26/51 18/52
f 22/53 25/54 23/55 19/56
f 25/57 22/58 26/59
f 22/60 19/61 24/62 26/63
f 19/64 23/65 24/66
f 33/67 34/68 30/69 29/70
f 34/71 31/72 27/73 30/74
f 27/75 28/76 29/77 30/78
f 34/79 33/80 32/81 31/82
f 40/83 41/84 37/85 36/86
f 41/87 42/88 38/89 37/90
f 42/91 39/92 35/93 38/94
f 42/95 41/96 40/97 39/98
f 146/99 142/100 43/101 47/102
f 50/103 138/104 139/105 49/106
f 48/107 135/108 138/109 50/110
f 44/111 46/112 47/113 43/114
f 48/115 50/116 56/117 53/118
f 56/119 57/120 54/121
f 136/122 146/123 47/124 55/125
f 136/126 55/127 49/128
f 49/129 55/130 57/131
f 51/132 46/133 147/134 48/135
f 55/136 45/137 52/138
f 45/139 56/140 54/141 52/142
f 57/143 55/144 52/145 54/146
f 51/147 53/148 56/149 45/150
f 51/151 48/152 53/153
f 55/154 51/155 45/156
f 50/157 49/158 57/159 56/160
f 46/161 51/162 55/163 47/164
f 134/165 44/166 43/167 142/168
f 48/169 147/170 135/171
f 46/172 44/173 134/174 147/175
f 136/176 49/177 139/178
f 58/179 64/180 69/181 66/182
f 60/183 61/184 59/185 58/186
f 63/187 64/188 58/189 59/190
f 65/191 161/192 162/193 63/194
f 65/195 62/196 159/197 161/198
f 159/199 62/200 64/201 160/202
f 162/203 160/204 64/205 63/206
f 61/207 65/208 63/209 59/210
f 61/211 60/212 62/213 65/214
f 62/215 60/216 67/217 68/218
f 60/219 58/220 66/221 67/222
f 64/223 62/224 68/225 69/226
f 67/227 66/228 70/229 71/230
f 66/231 69/232 73/233 70/234
f 69/235 68/236 72/237 73/238
f 68/239 67/240 71/241 72/242
f 73/243 72/244 71/245 70/246
f 79/247 80/248 76/249 75/250
f 80/251 81/252 77/253 76/254
f 81/255 78/256 74/257 77/258
f 81/259 80/260 79/261 78/262
f 87/263 88/264 84/265 83/266
f 88/267 89/268 85/269 84/270
f 89/271 86/272 82/273 85/274
f 89/275 88/276 87/277 86/278
f 195/279 92/280 90/281 196/282
f 93/283 197/284 198/285 91/286
f 93/287 92/288 195/289 197/290
f 203/291 96/292 94/293 204/294
f 97/295 205/296 206/297 95/298
f 97/299 96/300 203/301 205/302
f 102/303 103/304 98/305 100/306
f 101/307 99/308 105/309 104/310
f 101/311 104/312 102/313 100/314
f 112/315 113/316 106/317 109/318
f 109/319 106/320 107/321 110/322
f 114/323 112/324 109/325 110/326
f 110/327 107/328 115/329 114/330
f 111/331 108/332 112/333 114/334
f 114/335 115/336 111/337
f 111/338 115/339 113/340 108/341
f 108/342 113/343 112/344
f 122/345 118/346 119/347 123/348
f 123/349 119/350 116/351 120/352
f 116/353 119/354 118/355 117/356
f 123/357 120/358 121/359 122/360
f 129/361 125/362 126/363 130/364
f 130/365 126/366 127/367 131/368
f 131/369 127/370 124/371 128/372
f 131/373 128/374 129/375 130/376
f 146/377 141/378 132/379 142/380
f 145/381 144/382 139/383 138/384
f 143/385 145/386 138/387 135/388
f 133/389 132/390 141/391 140/392
f 143/393 150/394 153/395 145/396
f 153/397 151/398 154/399
f 136/400 152/401 141/402 146/403
f 136/404 144/405 152/406
f 144/407 154/408 152/409
f 148/410 143/411 147/412 140/413
f 152/414 149/415 137/416
f 137/417 149/418 151/419 153/420
f 154/421 151/422 149/423 152/424
f 148/425 137/426 153/427 150/428
f 148/429 150/430 143/431
f 152/432 137/433 148/434
f 145/435 153/436 154/437 144/438
f 140/439 141/440 152/441 148/442
f 134/443 142/444 132/445 133/446
f 143/447 135/448 147/449
f 140/450 147/451 134/452 133/453
f 136/454 139/455 144/456
f 155/457 167/458 170/459 165/460
f 157/461 155/462 156/463 158/464
f 164/465 156/466 155/467 165/468
f 166/469 164/470 162/471 161/472
f 166/473 161/474 159/475 163/476
f 159/477 160/478 165/479 163/480
f 162/481 164/482 165/483 160/484
f 158/485 156/486 164/487 166/488
f 158/489 166/490 163/491 157/492
f 163/493 169/494 168/495 157/496
f 157/497 168/498 167/499 155/500
f 165/501 170/502 169/503 163/504
f 168/505 172/506 171/507 167/508
f 167/509 171/510 174/511 170/512
f 170/513 174/514 173/515 169/516
f 169/517 173/518 172/519 168/520
f 174/521 171/522 172/523 173/524
f 180/525 176/526 177/527 181/528
f 181/529 177/530 178/531 182/532
f 182/533 178/534 175/535 179/536
f 182/537 179/538 180/539 181/540
f 188/541 184/542 185/543 189/544
f 189/545 185/546 186/547 190/548
f 190/549 186/550 183/551 187/552
f 190/553 187/554 188/555 189/556
f 195/557 196/558 191/559 193/560
f 194/561 192/562 198/563 197/564
f 194/565 197/566 195/567 193/568
f 203/569 204/570 199/571 201/572
f 202/573 200/574 206/575 205/576
f 202/577 205/578 203/579 201/580
