# Converted from DestroyerHeavyTurretBarrel.fbx
o DestroyerHeavyTurretBarrel
v 0.071955 0.184644 3.6233
v 0.071955 0.184644 6.141934
v 0.071955 0.341129 3.6233
v 0.071955 0.430495 6.141934
v 0.071955 0.430495 4.163402
v 0.071955 0.211521 6.174443
v 0.071955 0.340109 6.174443
v 0.219324 -0.341979 -0.11686
v 0.219324 -0.341979 6.069289
v 0.460957 0.132589 -0.11686
v 0.460957 0.132589 6.069289
v 0.385801 0.095161 6.069291
v 0.249015 0.278554 -0.11686
v 0.249015 0.278553 6.069289
v 0.460957 -0.045374 -0.11686
v 0.460957 -0.045375 6.069289
v 0.20202 -0.2713 6.069291
v 0.242971 0.207875 6.069291
v 0.385801 -0.042262 6.069291
v 0.385801 0.095161 5.318181
v 0.20202 -0.2713 5.318181
v 0.242971 0.207875 5.318181
v 0.385801 -0.042262 5.318181
v 0.07336 -0.341979 6.069289
v 0.088077 0.207874 6.069295
v 0.090268 0.278552 6.069291
v 0.073232 -0.271302 6.069293
v 0.219328 -0.341979 6.466651
v 0.460961 0.132589 6.466651
v 0.385805 0.095161 6.466651
v 0.249019 0.278553 6.466651
v 0.460961 -0.045375 6.466651
v 0.202024 -0.2713 6.466651
v 0.242975 0.207875 6.466651
v 0.385805 -0.042262 6.466651
v 0.182546 -0.341979 6.466651
v 0.197262 0.207874 6.466657
v 0.199454 0.278552 6.466653
v 0.182418 -0.271302 6.466655
v -0.071955 0.184644 3.6233
v -0.071955 0.184644 6.141934
v -0.071955 0.341129 3.6233
v -0.071955 0.430495 6.141934
v 0 0.341125 3.623305
v 0 0.18464 3.623305
v 0 0.430494 6.141936
v 0 0.184644 6.141934
v -0.071955 0.430495 4.163402
v 0 0.43049 4.163405
v -0.071955 0.211521 6.174443
v -0.071955 0.340109 6.174443
v 0 0.340109 6.174443
v 0 0.211522 6.174441
v -0.219324 -0.341979 -0.11686
v -0.219324 -0.341979 6.069289
v -0.460957 0.132589 -0.11686
v -0.460957 0.132589 6.069289
v 0 -0.341979 -0.11686
v -0.385801 0.095161 6.069291
v 0 -0.341979 6.069289
v -0.249015 0.278554 -0.11686
v -0.249015 0.278553 6.069289
v 0 0.278552 6.069293
v -0.460957 -0.045374 -0.11686
v -0.460957 -0.045375 6.069289
v -0.20202 -0.2713 6.069291
v 0 -0.271302 6.069297
v -0.242971 0.207875 6.069291
v 0 0.207873 6.069299
v -0.385801 -0.042262 6.069291
v -0.385801 0.095161 5.318181
v -0.20202 -0.2713 5.318181
v 0 -0.271303 5.318189
v -0.242971 0.207875 5.318181
v 0 0.207872 5.318191
v -0.385801 -0.042262 5.318181
v -0.07336 -0.341979 6.069289
v -0.088077 0.207874 6.069295
v 0 0.278552 -0.116858
v -0.090268 0.278552 6.069291
v -0.073232 -0.271302 6.069293
v -0.219328 -0.341979 6.466651
v -0.460961 0.132589 6.466651
v -0.385805 0.095161 6.466651
v -0.249019 0.278553 6.466651
v -0.460961 -0.045375 6.466651
v -0.202024 -0.2713 6.466651
v -0.242975 0.207875 6.466651
v -0.385805 -0.042262 6.466651
v -0.182546 -0.341979 6.466651
v -0.197262 0.207874 6.466657
v -0.199454 0.278552 6.466653
v -0.182418 -0.271302 6.466655
vt 0.093915 0.800588
vt 0.08842 0.800589
vt 0.088419 0.788639
vt 0.093914 0.788638
vt 0.093924 0.992932
vt 0.112699 0.992931
vt 0.105797 0.995414
vt 0.095976 0.995415
vt 0.360147 0.342518
vt 0.360148 0.424271
vt 0.349402 0.42427
vt 0.349402 0.342517
vt 0.360148 0.047006
vt 0.360147 0.342518
vt 0.349402 0.342517
vt 0.3494 0.047006
vt 0.360148 0.03266
vt 0.3494 0.03266
vt 0.3494 0.013454
vt 0.360148 0.013454
vt 0.360148 0.047006
vt 0.3494 0.047006
vt 0.3494 0.03266
vt 0.360148 0.03266
vt 0.3494 0.007154
vt 0.360148 0.007153
vt 0.360148 0.013454
vt 0.3494 0.013454
vt 0.093924 0.992932
vt 0.093915 0.800588
vt 0.112692 0.841834
vt 0.112699 0.992931
vt 0.112692 0.841834
vt 0.093915 0.800588
vt 0.105866 0.800587
vt 0.093915 0.800588
vt 0.093924 0.992932
vt 0.088428 0.992932
vt 0.08842 0.800589
vt 0.288364 0.004186
vt 0.288361 0.476604
vt 0.259146 0.476603
vt 0.259148 0.004186
vt 0.671543 0.723167
vt 0.665951 0.723167
vt 0.671543 0.665807
vt 0.623195 0.723168
vt 0.63369 0.723167
vt 0.63369 0.753513
vt 0.623195 0.753513
vt 0.301952 0.476604
vt 0.301953 0.004187
vt 0.321606 0.004187
vt 0.321605 0.476603
vt 0.597471 0.723168
vt 0.590745 0.723169
vt 0.590744 0.665807
vt 0.321605 0.476603
vt 0.333728 0.476603
vt 0.325391 0.50695
vt 0.321606 0.50695
vt 0.301953 0.004187
vt 0.301952 0.476604
vt 0.288361 0.476604
vt 0.288364 0.004186
vt 0.288361 0.476604
vt 0.301952 0.476604
vt 0.301953 0.50695
vt 0.28836 0.50695
vt 0.597639 0.728566
vt 0.590745 0.728567
vt 0.590745 0.723169
vt 0.597471 0.723168
vt 0.247999 0.476603
vt 0.259146 0.476603
vt 0.259145 0.506949
vt 0.256336 0.506949
vt 0.656116 0.723167
vt 0.63369 0.723167
vt 0.63369 0.665807
vt 0.656115 0.665807
vt 0.623195 0.723168
vt 0.6093 0.723168
vt 0.6093 0.665806
vt 0.623195 0.665807
vt 0.63369 0.723167
vt 0.623195 0.723168
vt 0.623195 0.665807
vt 0.63369 0.665807
vt 0.671544 0.728564
vt 0.665941 0.728564
vt 0.665951 0.723167
vt 0.671543 0.723167
vt 0.665951 0.723167
vt 0.656116 0.723167
vt 0.656115 0.665807
vt 0.671543 0.665807
vt 0.321605 0.476603
vt 0.321606 0.004187
vt 0.340622 0.004187
vt 0.333728 0.476603
vt 0.313778 0.558402
vt 0.30838 0.558564
vt 0.30769 0.527098
vt 0.313089 0.526935
vt 0.620208 0.657197
vt 0.6093 0.665806
vt 0.590744 0.665807
vt 0.606171 0.629211
vt 0.620208 0.646702
vt 0.590742 0.629211
vt 0.620208 0.646702
vt 0.620208 0.657197
vt 0.590744 0.665807
vt 0.590742 0.629211
vt 0.265704 0.52825
vt 0.265702 0.525438
vt 0.271106 0.526756
vt 0.271108 0.528255
vt 0.301953 0.50695
vt 0.313092 0.523148
vt 0.307693 0.523606
vt 0.299092 0.51269
vt 0.28836 0.50695
vt 0.301953 0.50695
vt 0.299092 0.51269
vt 0.2886 0.512692
vt 0.265702 0.525438
vt 0.28836 0.50695
vt 0.2886 0.512692
vt 0.271106 0.526756
vt 0.313092 0.523148
vt 0.313089 0.526935
vt 0.30769 0.527098
vt 0.307693 0.523606
vt 0.271091 0.559766
vt 0.265687 0.55976
vt 0.265704 0.52825
vt 0.271108 0.528255
vt 0.656116 0.723167
vt 0.665951 0.723167
vt 0.657613 0.753513
vt 0.656116 0.753512
vt 0.6093 0.723168
vt 0.623195 0.723168
vt 0.623195 0.753513
vt 0.6093 0.753512
vt 0.259146 0.476603
vt 0.288361 0.476604
vt 0.28836 0.50695
vt 0.259145 0.506949
vt 0.63369 0.723167
vt 0.656116 0.723167
vt 0.656116 0.753512
vt 0.63369 0.753513
vt 0.301952 0.476604
vt 0.321605 0.476603
vt 0.321606 0.50695
vt 0.301953 0.50695
vt 0.597471 0.723168
vt 0.6093 0.723168
vt 0.6093 0.753512
vt 0.60581 0.753513
vt 0.247999 0.476603
vt 0.242398 0.004186
vt 0.259148 0.004186
vt 0.259146 0.476603
vt 0.333728 0.476603
vt 0.340622 0.004187
vt 0.340622 0.476604
vt 0.242393 0.476603
vt 0.242398 0.004186
vt 0.247999 0.476603
vt 0.6093 0.723168
vt 0.597471 0.723168
vt 0.590744 0.665807
vt 0.6093 0.665806
vt 0.088419 0.788639
vt 0.08842 0.800589
vt 0.093915 0.800588
vt 0.093914 0.788638
vt 0.093924 0.992932
vt 0.095976 0.995415
vt 0.105797 0.995414
vt 0.112699 0.992931
vt 0.360147 0.342518
vt 0.349402 0.342517
vt 0.349402 0.42427
vt 0.360148 0.424271
vt 0.360148 0.047006
vt 0.3494 0.047006
vt 0.349402 0.342517
vt 0.360147 0.342518
vt 0.360148 0.03266
vt 0.360148 0.013454
vt 0.3494 0.013454
vt 0.3494 0.03266
vt 0.360148 0.047006
vt 0.360148 0.03266
vt 0.3494 0.03266
vt 0.3494 0.047006
vt 0.3494 0.007154
vt 0.3494 0.013454
vt 0.360148 0.013454
vt 0.360148 0.007153
vt 0.112692 0.841834
vt 0.093915 0.800588
vt 0.093924 0.992932
vt 0.112699 0.992931
vt 0.105866 0.800587
vt 0.093915 0.800588
vt 0.112692 0.841834
vt 0.088428 0.992932
vt 0.093924 0.992932
vt 0.093915 0.800588
vt 0.08842 0.800589
vt 0.288364 0.004186
vt 0.259148 0.004186
vt 0.259146 0.476603
vt 0.288361 0.476604
vt 0.671543 0.723167
vt 0.671543 0.665807
vt 0.665951 0.723167
vt 0.623195 0.723168
vt 0.623195 0.753513
vt 0.63369 0.753513
vt 0.63369 0.723167
vt 0.301952 0.476604
vt 0.321605 0.476603
vt 0.321606 0.004187
vt 0.301953 0.004187
vt 0.597471 0.723168
vt 0.590744 0.665807
vt 0.590745 0.723169
vt 0.321605 0.476603
vt 0.321606 0.50695
vt 0.325391 0.50695
vt 0.333728 0.476603
vt 0.301953 0.004187
vt 0.288364 0.004186
vt 0.288361 0.476604
vt 0.301952 0.476604
vt 0.288361 0.476604
vt 0.28836 0.50695
vt 0.301953 0.50695
vt 0.301952 0.476604
vt 0.597639 0.728566
vt 0.597471 0.723168
vt 0.590745 0.723169
vt 0.590745 0.728567
vt 0.247999 0.476603
vt 0.256336 0.506949
vt 0.259145 0.506949
vt 0.259146 0.476603
vt 0.656116 0.723167
vt 0.656115 0.665807
vt 0.63369 0.665807
vt 0.63369 0.723167
vt 0.623195 0.723168
vt 0.623195 0.665807
vt 0.6093 0.665806
vt 0.6093 0.723168
vt 0.63369 0.723167
vt 0.63369 0.665807
vt 0.623195 0.665807
vt 0.623195 0.723168
vt 0.671544 0.728564
vt 0.671543 0.723167
vt 0.665951 0.723167
vt 0.665941 0.728564
vt 0.665951 0.723167
vt 0.671543 0.665807
vt 0.656115 0.665807
vt 0.656116 0.723167
vt 0.321605 0.476603
vt 0.333728 0.476603
vt 0.340622 0.004187
vt 0.321606 0.004187
vt 0.313778 0.558402
vt 0.313089 0.526935
vt 0.30769 0.527098
vt 0.30838 0.558564
vt 0.620208 0.657197
vt 0.590744 0.665807
vt 0.6093 0.665806
vt 0.606171 0.629211
vt 0.590742 0.629211
vt 0.620208 0.646702
vt 0.620208 0.646702
vt 0.590742 0.629211
vt 0.590744 0.665807
vt 0.620208 0.657197
vt 0.265704 0.52825
vt 0.271108 0.528255
vt 0.271106 0.526756
vt 0.265702 0.525438
vt 0.301953 0.50695
vt 0.299092 0.51269
vt 0.307693 0.523606
vt 0.313092 0.523148
vt 0.28836 0.50695
vt 0.2886 0.512692
vt 0.299092 0.51269
vt 0.301953 0.50695
vt 0.265702 0.525438
vt 0.271106 0.526756
vt 0.2886 0.512692
vt 0.28836 0.50695
vt 0.313092 0.523148
vt 0.307693 0.523606
vt 0.30769 0.527098
vt 0.313089 0.526935
vt 0.271091 0.559766
vt 0.271108 0.528255
vt 0.265704 0.52825
vt 0.265687 0.55976
vt 0.656116 0.723167
vt 0.656116 0.753512
vt 0.657613 0.753513
vt 0.665951 0.723167
vt 0.6093 0.723168
vt 0.6093 0.753512
vt 0.623195 0.753513
vt 0.623195 0.723168
vt 0.259146 0.476603
vt 0.259145 0.506949
vt 0.28836 0.50695
vt 0.288361 0.476604
vt 0.63369 0.723167
vt 0.63369 0.753513
vt 0.656116 0.753512
vt 0.656116 0.723167
vt 0.301952 0.476604
vt 0.301953 0.50695
vt 0.321606 0.50695
vt 0.321605 0.476603
vt 0.597471 0.723168
vt 0.60581 0.753513
vt 0.6093 0.753512
vt 0.6093 0.723168
vt 0.247999 0.476603
vt 0.259146 0.476603
vt 0.259148 0.004186
vt 0.242398 0.004186
vt 0.333728 0.476603
vt 0.340622 0.476604
vt 0.340622 0.004187
vt 0.242393 0.476603
vt 0.247999 0.476603
vt 0.242398 0.004186
vt 0.6093 0.723168
vt 0.6093 0.665806
vt 0.590744 0.665807
vt 0.597471 0.723168
f 1/1 45/2 44/3 3/4
f 2/5 4/6 7/7 6/8
f 5/9 3/10 44/11 49/12
f 4/13 5/14 49/15 46/16
f 7/17 52/18 53/19 6/20
f 4/21 46/22 52/23 7/24
f 47/25 2/26 6/27 53/28
f 2/29 1/30 5/31 4/32
f 5/33 1/34 3/35
f 1/36 2/37 47/38 45/39
f 15/40 16/41 9/42 8/43
f 67/44 27/45 73/46
f 12/47 19/48 35/49 30/50
f 11/51 10/52 13/53 14/54
f 25/55 69/56 75/57
f 14/58 26/59 38/60 31/61
f 10/62 11/63 16/64 15/65
f 16/66 11/67 29/68 32/69
f 26/70 63/71 69/72 25/73
f 24/74 9/75 28/76 36/77
f 17/78 19/79 23/80 21/81
f 12/82 18/83 22/84 20/85
f 19/86 12/87 20/88 23/89
f 60/90 24/91 27/92 67/93
f 27/94 17/95 21/96 73/97
f 14/98 13/99 79/100 26/101
f 26/102 25/103 37/104 38/105
f 20/106 22/107 75/108
f 21/109 23/110 73/111
f 23/112 20/113 75/114 73/115
f 36/116 28/117 33/118 39/119
f 29/120 31/121 34/122 30/123
f 32/124 29/125 30/126 35/127
f 28/128 32/129 35/130 33/131
f 31/132 38/133 37/134 34/135
f 27/136 24/137 36/138 39/139
f 17/140 27/141 39/142 33/143
f 18/144 12/145 30/146 34/147
f 9/148 16/149 32/150 28/151
f 19/152 17/153 33/154 35/155
f 11/156 14/157 31/158 29/159
f 25/160 18/161 34/162 37/163
f 24/164 58/165 8/166 9/167
f 26/168 79/169 63/170
f 60/171 58/172 24/173
f 18/174 25/175 75/176 22/177
f 44/178 45/179 40/180 42/181
f 41/182 50/183 51/184 43/185
f 48/186 49/187 44/188 42/189
f 43/190 46/191 49/192 48/193
f 51/194 50/195 53/196 52/197
f 43/198 51/199 52/200 46/201
f 47/202 53/203 50/204 41/205
f 48/206 40/207 41/208 43/209
f 42/210 40/211 48/212
f 47/213 41/214 40/215 45/216
f 64/217 54/218 55/219 65/220
f 67/221 73/222 81/223
f 59/224 84/225 89/226 70/227
f 57/228 62/229 61/230 56/231
f 78/232 75/233 69/234
f 62/235 85/236 92/237 80/238
f 56/239 64/240 65/241 57/242
f 65/243 86/244 83/245 57/246
f 80/247 78/248 69/249 63/250
f 77/251 90/252 82/253 55/254
f 66/255 72/256 76/257 70/258
f 59/259 71/260 74/261 68/262
f 70/263 76/264 71/265 59/266
f 60/267 67/268 81/269 77/270
f 81/271 73/272 72/273 66/274
f 62/275 80/276 79/277 61/278
f 80/279 92/280 91/281 78/282
f 71/283 75/284 74/285
f 72/286 73/287 76/288
f 76/289 73/290 75/291 71/292
f 90/293 93/294 87/295 82/296
f 83/297 84/298 88/299 85/300
f 86/301 89/302 84/303 83/304
f 82/305 87/306 89/307 86/308
f 85/309 88/310 91/311 92/312
f 81/313 93/314 90/315 77/316
f 66/317 87/318 93/319 81/320
f 68/321 88/322 84/323 59/324
f 55/325 82/326 86/327 65/328
f 70/329 89/330 87/331 66/332
f 57/333 83/334 85/335 62/336
f 78/337 91/338 88/339 68/340
f 77/341 55/342 54/343 58/344
f 80/345 63/346 79/347
f 60/348 77/349 58/350
f 68/351 74/352 75/353 78/354
