# Converted from SmallCorvetteMissile2.fbx
o SmallMissileI2
v 0 0.019586 -0.244171
v -0.016962 0.009793 -0.244171
v -0.016962 -0.009793 -0.244171
v 0 -0.019586 -0.244171
v 0.016962 -0.009793 -0.244171
v 0.016962 0.009793 -0.244171
v 0 0.019586 -0.20607
v -0.016962 0.009793 -0.20607
v -0.016962 -0.009793 -0.20607
v 0 -0.019586 -0.20607
v 0.016962 -0.009793 -0.20607
v 0.016962 0.009793 -0.20607
v 0 0.010043 -0.186241
v -0.008697 0.005021 -0.186241
v -0.008697 -0.005021 -0.186241
v 0 -0.010043 -0.186241
v 0.008697 -0.005021 -0.186241
v 0.008697 0.005021 -0.186241
v 0 0.010043 -0.136675
v -0.008697 0.005021 -0.136675
v -0.008697 -0.005021 -0.136675
v 0 -0.010043 -0.136675
v 0.008697 -0.005021 -0.136675
v 0.008697 0.005021 -0.136675
v 0 0.019387 -0.116392
v -0.01679 0.009694 -0.116392
v -0.01679 -0.009694 -0.116392
v 0 -0.019387 -0.116392
v 0.01679 -0.009694 -0.116392
v 0.01679 0.009694 -0.116392
v 0 0.019387 0.210621
v -0.01679 0.009694 0.210621
v -0.01679 -0.009694 0.210621
v 0 -0.019387 0.210621
v 0.01679 -0.009694 0.210621
v 0.01679 0.009694 0.210621
v 0 0.011157 0.230095
v -0.009662 0.005578 0.230095
v -0.009662 -0.005578 0.230095
v 0 -0.011157 0.230095
v 0.009662 -0.005578 0.230095
v 0.009662 0.005578 0.230095
v 0 0 0.244171
v 0 -0 -0.244171
vt 0.989869 0.344166
vt 0.936171 0.344167
vt 0.936166 0.239709
vt 0.989866 0.239707
vt 0.721389 0.344168
vt 0.66769 0.344167
vt 0.667694 0.239707
vt 0.721392 0.23971
vt 0.882475 0.344168
vt 0.828781 0.344169
vt 0.828785 0.239715
vt 0.882471 0.239716
vt 0.775086 0.344168
vt 0.721389 0.344168
vt 0.721392 0.23971
vt 0.775088 0.239712
vt 0.936171 0.344167
vt 0.882475 0.344168
vt 0.882471 0.239716
vt 0.936166 0.239709
vt 0.828781 0.344169
vt 0.775086 0.344168
vt 0.775088 0.239712
vt 0.828785 0.239715
vt 0.936166 0.239709
vt 0.882471 0.239716
vt 0.895546 0.18082
vt 0.923078 0.180817
vt 0.828785 0.239715
vt 0.775088 0.239712
vt 0.788172 0.180816
vt 0.815706 0.180817
vt 0.989866 0.239707
vt 0.936166 0.239709
vt 0.949246 0.180807
vt 0.976782 0.180806
vt 0.721392 0.23971
vt 0.667694 0.239707
vt 0.680779 0.18081
vt 0.708312 0.180812
vt 0.882471 0.239716
vt 0.828785 0.239715
vt 0.841876 0.180838
vt 0.86939 0.18084
vt 0.775088 0.239712
vt 0.721392 0.23971
vt 0.734476 0.180816
vt 0.762008 0.180817
vt 0.708312 0.180812
vt 0.680779 0.18081
vt 0.680788 0.044914
vt 0.708322 0.044916
vt 0.86939 0.18084
vt 0.841876 0.180838
vt 0.841899 0.045091
vt 0.869402 0.045096
vt 0.762008 0.180817
vt 0.734476 0.180816
vt 0.73448 0.044928
vt 0.762013 0.044929
vt 0.923078 0.180817
vt 0.895546 0.18082
vt 0.895533 0.044933
vt 0.923065 0.04493
vt 0.815706 0.180817
vt 0.788172 0.180816
vt 0.788179 0.044919
vt 0.815713 0.044921
vt 0.976782 0.180806
vt 0.949246 0.180807
vt 0.949245 0.044895
vt 0.976782 0.044895
vt 0.138447 0.999846
vt 0.112483 0.999846
vt 0.100403 0.943387
vt 0.150527 0.943386
vt 0.288818 0.999845
vt 0.262855 0.999845
vt 0.250776 0.943386
vt 0.3009 0.943387
vt 0.038198 0.999846
vt 0.012233 0.999846
vt 0.000154 0.943386
vt 0.050279 0.943386
vt 0.188572 0.999845
vt 0.162608 0.999846
vt 0.150527 0.943386
vt 0.200652 0.943386
vt 0.088323 0.999846
vt 0.062358 0.999846
vt 0.050279 0.943386
vt 0.100403 0.943387
vt 0.238696 0.999846
vt 0.212731 0.999846
vt 0.200652 0.943386
vt 0.250776 0.943386
vt 0.050279 0.943386
vt 0.000154 0.943386
vt 0.000154 0.097914
vt 0.050279 0.097914
vt 0.200652 0.943386
vt 0.150527 0.943386
vt 0.15053 0.097913
vt 0.200656 0.097913
vt 0.100403 0.943387
vt 0.050279 0.943386
vt 0.050279 0.097914
vt 0.100404 0.097913
vt 0.250776 0.943386
vt 0.200652 0.943386
vt 0.200656 0.097913
vt 0.250781 0.097913
vt 0.150527 0.943386
vt 0.100403 0.943387
vt 0.100404 0.097913
vt 0.15053 0.097913
vt 0.3009 0.943387
vt 0.250776 0.943386
vt 0.250781 0.097913
vt 0.300907 0.097914
vt 0.15053 0.097913
vt 0.100404 0.097913
vt 0.111044 0.044296
vt 0.13989 0.044296
vt 0.300907 0.097914
vt 0.250781 0.097913
vt 0.261422 0.044297
vt 0.290267 0.044297
vt 0.050279 0.097914
vt 0.000154 0.097914
vt 0.010793 0.044297
vt 0.039639 0.044297
vt 0.200656 0.097913
vt 0.15053 0.097913
vt 0.16117 0.044297
vt 0.190015 0.044296
vt 0.100404 0.097913
vt 0.050279 0.097914
vt 0.060919 0.044297
vt 0.089764 0.044297
vt 0.250781 0.097913
vt 0.200656 0.097913
vt 0.211297 0.044296
vt 0.240142 0.044296
vt 0.190015 0.044296
vt 0.16117 0.044297
vt 0.175591 0.000155
vt 0.089764 0.044297
vt 0.060919 0.044297
vt 0.075341 0.000155
vt 0.240142 0.044296
vt 0.211297 0.044296
vt 0.22572 0.000154
vt 0.13989 0.044296
vt 0.111044 0.044296
vt 0.125467 0.000154
vt 0.290267 0.044297
vt 0.261422 0.044297
vt 0.275845 0.000154
vt 0.039639 0.044297
vt 0.010793 0.044297
vt 0.025216 0.000155
vt 0.64084 0.390671
vt 0.66769 0.344167
vt 0.694539 0.390672
vt 0.66769 0.344167
vt 0.721389 0.344168
vt 0.694539 0.390672
vt 0.721388 0.437176
vt 0.667689 0.437176
vt 0.694539 0.390672
vt 0.721389 0.344168
vt 0.748237 0.390671
vt 0.694539 0.390672
vt 0.667689 0.437176
vt 0.64084 0.390671
vt 0.694539 0.390672
vt 0.748237 0.390671
vt 0.721388 0.437176
vt 0.694539 0.390672
f 4/1 5/2 11/3 10/4
f 3/5 4/6 10/7 9/8
f 6/9 1/10 7/11 12/12
f 2/13 3/14 9/15 8/16
f 5/17 6/18 12/19 11/20
f 1/21 2/22 8/23 7/24
f 11/25 12/26 18/27 17/28
f 7/29 8/30 14/31 13/32
f 10/33 11/34 17/35 16/36
f 9/37 10/38 16/39 15/40
f 12/41 7/42 13/43 18/44
f 8/45 9/46 15/47 14/48
f 15/49 16/50 22/51 21/52
f 18/53 13/54 19/55 24/56
f 14/57 15/58 21/59 20/60
f 17/61 18/62 24/63 23/64
f 13/65 14/66 20/67 19/68
f 16/69 17/70 23/71 22/72
f 19/73 20/74 26/75 25/76
f 22/77 23/78 29/79 28/80
f 21/81 22/82 28/83 27/84
f 24/85 19/86 25/87 30/88
f 20/89 21/90 27/91 26/92
f 23/93 24/94 30/95 29/96
f 27/97 28/98 34/99 33/100
f 30/101 25/102 31/103 36/104
f 26/105 27/106 33/107 32/108
f 29/109 30/110 36/111 35/112
f 25/113 26/114 32/115 31/116
f 28/117 29/118 35/119 34/120
f 31/121 32/122 38/123 37/124
f 34/125 35/126 41/127 40/128
f 33/129 34/130 40/131 39/132
f 36/133 31/134 37/135 42/136
f 32/137 33/138 39/139 38/140
f 35/141 36/142 42/143 41/144
f 42/145 37/146 43/147
f 38/148 39/149 43/150
f 41/151 42/152 43/153
f 37/154 38/155 43/156
f 40/157 41/158 43/159
f 39/160 40/161 43/162
f 5/163 4/164 44/165
f 4/166 3/167 44/168
f 1/169 6/170 44/171
f 3/172 2/173 44/174
f 6/175 5/176 44/177
f 2/178 1/179 44/180
