# Converted from SmallCorvetteMissile1.fbx
o SmallMissile1
v 0 0.019043 -0.156715
v 0.016492 0.009522 -0.156715
v 0.016492 -0.009522 -0.156715
v 0 -0.019043 -0.156715
v -0.016492 -0.009522 -0.156715
v -0.016492 0.009522 -0.156715
v -0 0.019043 0.129536
v 0.016492 0.009522 0.129536
v 0.016492 -0.009522 0.129536
v -0 -0.019043 0.129536
v -0.016492 -0.009522 0.129536
v -0.016492 0.009522 0.129536
v -0 0.011231 0.145672
v 0.009727 0.005616 0.145672
v 0.009727 -0.005616 0.145672
v -0 -0.011231 0.145672
v -0.009727 -0.005616 0.145672
v -0.009727 0.005616 0.145672
v -0 -0 0.156715
v 0.015156 -0.001062 -0.104883
v 0.015156 -0.001062 -0.151211
v 0.028606 -0.001062 -0.151211
v 0.028606 -0.001062 -0.124563
v 0.015156 0.001282 -0.104883
v 0.015156 0.001282 -0.151211
v 0.028606 0.001282 -0.151211
v 0.028606 0.001282 -0.124563
v -0.015156 -0.001062 -0.104883
v -0.015156 -0.001062 -0.151211
v -0.028606 -0.001062 -0.151211
v -0.028606 -0.001062 -0.124563
v -0.015156 0.001282 -0.104883
v -0.015156 0.001282 -0.151211
v -0.028606 0.001282 -0.151211
v -0.028606 0.001282 -0.124563
vt 0.481538 0.823527
vt 0.481544 0.083439
vt 0.530779 0.083439
vt 0.530773 0.823527
vt 0.333832 0.823525
vt 0.333841 0.083437
vt 0.383075 0.083437
vt 0.383067 0.823526
vt 0.580008 0.823528
vt 0.580014 0.083439
vt 0.629248 0.08344
vt 0.629243 0.823528
vt 0.481544 0.083439
vt 0.481538 0.823527
vt 0.432302 0.823526
vt 0.43231 0.083439
vt 0.530773 0.823527
vt 0.530779 0.083439
vt 0.580014 0.083439
vt 0.580008 0.823528
vt 0.383067 0.823526
vt 0.383075 0.083437
vt 0.43231 0.083439
vt 0.432302 0.823526
vt 0.43231 0.083439
vt 0.383075 0.083437
vt 0.393176 0.038201
vt 0.422214 0.038203
vt 0.530779 0.083439
vt 0.481544 0.083439
vt 0.491643 0.038203
vt 0.520681 0.038203
vt 0.383075 0.083437
vt 0.333841 0.083437
vt 0.343939 0.038201
vt 0.372977 0.038201
vt 0.629248 0.08344
vt 0.580014 0.083439
vt 0.590112 0.038203
vt 0.619151 0.038204
vt 0.481544 0.083439
vt 0.43231 0.083439
vt 0.442408 0.038203
vt 0.471446 0.038203
vt 0.580014 0.083439
vt 0.530779 0.083439
vt 0.540878 0.038203
vt 0.569916 0.038203
vt 0.619151 0.038204
vt 0.590112 0.038203
vt 0.604632 0.000157
vt 0.471446 0.038203
vt 0.442408 0.038203
vt 0.456927 0.000156
vt 0.569916 0.038203
vt 0.540878 0.038203
vt 0.555397 0.000156
vt 0.422214 0.038203
vt 0.393176 0.038201
vt 0.407698 0.000155
vt 0.520681 0.038203
vt 0.491643 0.038203
vt 0.506162 0.000157
vt 0.372977 0.038201
vt 0.343939 0.038201
vt 0.358458 0.000154
vt 0.407684 0.866165
vt 0.383066 0.908803
vt 0.333831 0.908803
vt 0.309214 0.866164
vt 0.333832 0.823525
vt 0.383067 0.823526
vt 0.407684 0.866165
vt 0.309214 0.866164
vt 0.97436 0.543908
vt 0.850183 0.543909
vt 0.850183 0.522265
vt 0.97436 0.522264
vt 0.850183 0.543909
vt 0.850187 0.789911
vt 0.828546 0.789913
vt 0.828538 0.543909
vt 0.850187 0.789911
vt 0.97436 0.971613
vt 0.956491 0.983825
vt 0.832318 0.802123
vt 0.70438 0.971622
vt 0.70436 0.543914
vt 0.828538 0.543909
vt 0.828546 0.789913
vt 0.850187 0.789911
vt 0.850183 0.543909
vt 0.97436 0.543908
vt 0.97436 0.971613
vt 0.97436 0.543908
vt 0.97436 0.522264
vt 0.850183 0.522265
vt 0.850183 0.543909
vt 0.850183 0.543909
vt 0.828538 0.543909
vt 0.828546 0.789913
vt 0.850187 0.789911
vt 0.850187 0.789911
vt 0.832318 0.802123
vt 0.956491 0.983825
vt 0.97436 0.971613
vt 0.70438 0.971622
vt 0.828546 0.789913
vt 0.828538 0.543909
vt 0.70436 0.543914
vt 0.850187 0.789911
vt 0.97436 0.971613
vt 0.97436 0.543908
vt 0.850183 0.543909
f 1/1 7/2 8/3 2/4
f 4/5 10/6 11/7 5/8
f 3/9 9/10 10/11 4/12
f 7/13 1/14 6/15 12/16
f 2/17 8/18 9/19 3/20
f 5/21 11/22 12/23 6/24
f 12/25 11/26 17/27 18/28
f 8/29 7/30 13/31 14/32
f 11/33 10/34 16/35 17/36
f 10/37 9/38 15/39 16/40
f 7/41 12/42 18/43 13/44
f 9/45 8/46 14/47 15/48
f 16/49 15/50 19/51
f 13/52 18/53 19/54
f 15/55 14/56 19/57
f 18/58 17/59 19/60
f 14/61 13/62 19/63
f 17/64 16/65 19/66
f 6/67 1/68 2/69 3/70
f 4/71 5/72 6/73 3/74
f 25/75 26/76 22/77 21/78
f 26/79 27/80 23/81 22/82
f 27/83 24/84 20/85 23/86
f 20/87 21/88 22/89 23/90
f 27/91 26/92 25/93 24/94
f 33/95 29/96 30/97 34/98
f 34/99 30/100 31/101 35/102
f 35/103 31/104 28/105 32/106
f 28/107 31/108 30/109 29/110
f 35/111 32/112 33/113 34/114
