# Converted from FrigateMissileMountLeft.fbx
o FrigateMissileMountLeft
v 0.425745 -0.036509 0.371465
v 0.180013 -0.036509 -0.764775
v 0.873338 -0.036509 -0.72701
v 0.801532 -0.036509 0.371465
v 0.425745 0.28893 0.371465
v 0.180013 0.28893 -0.764775
v 0.873338 0.28893 -0.72701
v 0.801532 0.28893 0.371465
v 0.180013 0.28893 -0.555875
v 0.180013 -0.036509 -0.555875
v 0.873338 0.28893 -0.555875
v 0.873338 -0.036509 -0.555875
v 0.285221 -0.036509 -0.797818
v 0.810129 -0.036509 -0.797818
v 0.285221 0.28893 -0.797818
v 0.810129 0.28893 -0.797818
v -0.011764 -0.466825 0.797818
v -0.011764 -0.466825 -0.74664
v 0.3983 -0.466825 -0.74664
v 0.3983 -0.466825 0.797818
v -0.011764 0.466825 0.797818
v -0.011764 0.466825 -0.74664
v 0.3983 0.466825 -0.74664
v 0.3983 0.466825 0.797818
v 0.761134 -0.090266 -0.74664
v 0.761134 -0.090266 0.797818
v 0.761134 0.337382 -0.74664
v 0.761134 0.337382 0.797818
v 0.168641 -0.372434 0.797818
v 0.393525 -0.372434 0.797818
v 0.168641 0.372434 0.797818
v 0.393525 0.372434 0.797818
v 0.682994 -0.072014 0.797818
v 0.682994 0.269164 0.797818
v 0.168641 -0.372434 0.711347
v 0.393525 -0.372434 0.711347
v 0.168641 0.372434 0.711347
v 0.393525 0.372434 0.711347
v 0.682994 -0.072014 0.711347
v 0.682994 0.269164 0.711347
vt 0.160404 0.425204
vt 0.160404 0.453056
vt 0.117014 0.453056
vt 0.117014 0.425204
vt 0.115252 0.550468
vt 0.022703 0.55258
vt 0.036347 0.547105
vt 0.106122 0.541706
vt 0.160402 0.573217
vt 0.160396 0.697224
vt 0.117007 0.697223
vt 0.117013 0.573216
vt 0.117006 0.747325
vt 0.117007 0.697223
vt 0.160396 0.697224
vt 0.160395 0.747326
vt 0.024851 0.580348
vt 0.022703 0.55258
vt 0.115252 0.550468
vt 0.117013 0.573216
vt 0.160402 0.573217
vt 0.162165 0.550469
vt 0.254715 0.55259
vt 0.252563 0.580358
vt 0.160403 0.5504
vt 0.160402 0.573217
vt 0.117013 0.573216
vt 0.117013 0.550399
vt 0.067055 0.701089
vt 0.024851 0.580348
vt 0.117013 0.573216
vt 0.117007 0.697223
vt 0.160396 0.697224
vt 0.160402 0.573217
vt 0.252563 0.580358
vt 0.210348 0.701094
vt 0.160404 0.467759
vt 0.160404 0.537745
vt 0.117013 0.537744
vt 0.117014 0.467759
vt 0.254715 0.55259
vt 0.162165 0.550469
vt 0.171297 0.541707
vt 0.241072 0.547114
vt 0.117014 0.453056
vt 0.160404 0.453056
vt 0.160404 0.467759
vt 0.117014 0.467759
vt 0.160403 0.5504
vt 0.117013 0.550399
vt 0.117013 0.537744
vt 0.160404 0.537745
vt 0.204658 0.005041
vt 0.204659 0.059713
vt 0.08018 0.059714
vt 0.080179 0.005042
vt 0.130385 0.314004
vt 0.187401 0.314005
vt 0.178305 0.324423
vt 0.132818 0.324421
vt 0.080175 0.417042
vt 0.080179 0.362373
vt 0.092763 0.36301
vt 0.092761 0.392992
vt 0.005995 0.314004
vt 0.005995 0.108088
vt 0.060667 0.108088
vt 0.060667 0.314004
vt 0.238763 0.314005
vt 0.238763 0.108088
vt 0.293436 0.108088
vt 0.293435 0.314006
vt 0.187402 0.108088
vt 0.187401 0.314005
vt 0.130385 0.314004
vt 0.130385 0.108088
vt 0.08018 0.059714
vt 0.204659 0.059713
vt 0.187402 0.108088
vt 0.130385 0.108088
vt 0.060667 0.314004
vt 0.060667 0.108088
vt 0.130385 0.108088
vt 0.130385 0.314004
vt 0.238763 0.108088
vt 0.238763 0.314005
vt 0.187401 0.314005
vt 0.187402 0.108088
vt 0.187401 0.314005
vt 0.204655 0.362381
vt 0.19207 0.363017
vt 0.178305 0.324423
vt 0.204655 0.362381
vt 0.20465 0.417051
vt 0.192068 0.392999
vt 0.19207 0.363017
vt 0.080179 0.362373
vt 0.130385 0.314004
vt 0.132818 0.324421
vt 0.092763 0.36301
vt 0.20465 0.417051
vt 0.080175 0.417042
vt 0.092761 0.392992
vt 0.192068 0.392999
vt 0.023083 0.405744
vt 0.053066 0.405744
vt 0.053066 0.417273
vt 0.023083 0.417273
vt 0.095533 0.513673
vt 0.05694 0.527441
vt 0.053066 0.516582
vt 0.091659 0.502814
vt 0.011555 0.516582
vt 0.011554 0.417273
vt 0.023083 0.417273
vt 0.023083 0.516582
vt 0.053066 0.528112
vt 0.023083 0.528111
vt 0.023083 0.516582
vt 0.053066 0.516582
vt 0.061369 0.409274
vt 0.099962 0.449328
vt 0.09166 0.457327
vt 0.053066 0.417273
vt 0.103188 0.457327
vt 0.103188 0.502814
vt 0.091659 0.502814
vt 0.09166 0.457327
vt 0.023083 0.417273
vt 0.053066 0.417273
vt 0.053066 0.516582
vt 0.023083 0.516582
vt 0.091659 0.502814
vt 0.053066 0.516582
vt 0.053066 0.417273
vt 0.09166 0.457327
f 9/1 6/2 2/3 10/4
f 3/5 2/6 13/7 14/8
f 11/9 8/10 4/11 12/12
f 1/13 4/14 8/15 5/16
f 10/17 2/18 3/19 12/20
f 11/21 7/22 6/23 9/24
f 7/25 11/26 12/27 3/28
f 1/29 10/30 12/31 4/32
f 8/33 11/34 9/35 5/36
f 15/37 16/38 14/39 13/40
f 6/41 7/42 16/43 15/44
f 2/45 6/46 15/47 13/48
f 7/49 3/50 14/51 16/52
f 22/53 23/54 19/55 18/56
f 26/57 28/58 34/59 33/60
f 17/61 20/62 30/63 29/64
f 17/65 18/66 19/67 20/68
f 24/69 23/70 22/71 21/72
f 27/73 28/74 26/75 25/76
f 19/77 23/78 27/79 25/80
f 20/81 19/82 25/83 26/84
f 23/85 24/86 28/87 27/88
f 28/89 24/90 32/91 34/92
f 24/93 21/94 31/95 32/96
f 20/97 26/98 33/99 30/100
f 21/101 17/102 29/103 31/104
f 29/105 30/106 36/107 35/108
f 34/109 32/110 38/111 40/112
f 31/113 29/114 35/115 37/116
f 32/117 31/118 37/119 38/120
f 30/121 33/122 39/123 36/124
f 33/125 34/126 40/127 39/128
f 35/129 36/130 38/131 37/132
f 40/133 38/134 36/135 39/136
