# Converted from FrigateLightTurretBody.fbx
o FrigateLightTurretBody
v 0.194865 -0.002095 0.112505
v 0.194865 -0.002095 -0.112505
v 0.194865 0.131297 0.112505
v 0.194865 0.131297 -0.112505
v 0 -0.002095 -0.225011
v -0 -0.002094 0.225011
v -0.194865 -0.002095 0.112505
v -0.194865 -0.002095 -0.112505
v 0 0.131297 -0.225011
v -0 0.131297 0.225011
v -0.194865 0.131297 0.112505
v -0.194865 0.131297 -0.112505
v 0.307684 0.051102 -0.306966
v 0.241513 0.349818 -0.306966
v 0.307684 0.129715 -0.306966
v 0.307684 0.129715 0.339858
v 0.118149 0.129715 0.242323
v 0.307684 0.051102 0.339858
v 0.118149 0.349818 0.201979
v 0.118149 0.129715 0.339858
v 0.118149 0.349818 0.104445
v 0.241513 0.349818 0.201979
v 0.11816 0.245079 -0.415689
v 0.208226 0.245079 -0.296087
v 0.11816 0.326182 -0.415689
v 0.208226 0.326182 -0.296087
v 0.225979 0.31955 0.176919
v 0.225979 0.31955 -0.283591
v 0.389634 0.31955 -0.246934
v 0.389634 0.31955 -0.012345
v 0.225979 0.334487 0.176919
v 0.225979 0.334487 -0.283591
v 0.389634 0.334487 -0.246934
v 0.389634 0.334487 -0.012345
v -0.307684 0.051102 -0.306966
v -0.241513 0.349818 -0.306966
v -0.307684 0.129715 -0.306966
v -0.307684 0.129715 0.339858
v 0 0.051102 -0.306965
v 0 0.129715 0.242323
v -0.118149 0.129715 0.242323
v 0 0.051102 0.339857
v -0.307684 0.051102 0.339858
v -0.118149 0.349818 0.201979
v 0 0.129715 0.339857
v -0.118149 0.129715 0.339858
v 0 0.349818 -0.306965
v 0 0.349818 0.104445
v -0.118149 0.349818 0.104445
v -0.241513 0.349818 0.201979
v -0.11816 0.245079 -0.415689
v -0.208226 0.245079 -0.296087
v -0.11816 0.326182 -0.415689
v -0.208226 0.326182 -0.296087
v 0 0.326182 -0.41569
v 0 0.245079 -0.41569
v 0 0.326182 -0.296087
v 0 0.245079 -0.296087
v -0.225979 0.31955 0.176919
v -0.225979 0.31955 -0.283591
v -0.389634 0.31955 -0.246934
v -0.389634 0.31955 -0.012345
v -0.225979 0.334487 0.176919
v -0.225979 0.334487 -0.283591
v -0.389634 0.334487 -0.246934
v -0.389634 0.334487 -0.012345
vt 0.947726 0.386904
vt 0.92083 0.386895
vt 0.920845 0.341525
vt 0.947742 0.341534
vt 0.92083 0.386895
vt 0.947726 0.386904
vt 0.947711 0.432273
vt 0.920815 0.432264
vt 0.920861 0.296154
vt 0.947758 0.296163
vt 0.947742 0.341534
vt 0.920845 0.341525
vt 0.920845 0.341525
vt 0.92083 0.386895
vt 0.947726 0.386904
vt 0.947742 0.341534
vt 0.92083 0.386895
vt 0.920815 0.432264
vt 0.947711 0.432273
vt 0.947726 0.386904
vt 0.920861 0.296154
vt 0.920845 0.341525
vt 0.947742 0.341534
vt 0.947758 0.296163
vt 0.03499 0.02952
vt 0.003217 0.02952
vt 0.003217 0.003291
vt 0.03499 0.003291
vt 0.03499 0.099365
vt 0.003217 0.099365
vt 0.003217 0.02952
vt 0.03499 0.02952
vt 0.331586 0.178768
vt 0.331594 0.163015
vt 0.342076 0.163021
vt 0.342053 0.204043
vt 0.428286 0.214571
vt 0.342048 0.214524
vt 0.342053 0.204043
vt 0.428292 0.20409
vt 0.373408 0.261631
vt 0.428269 0.245215
vt 0.428251 0.277415
vt 0.373399 0.277384
vt 0.468078 0.277439
vt 0.457621 0.23641
vt 0.468102 0.236416
vt 0.342076 0.163021
vt 0.428314 0.163068
vt 0.428292 0.20409
vt 0.342053 0.204043
vt 0.03499 0.099365
vt 0.03499 0.02952
vt 0.057218 0.015596
vt 0.057218 0.085441
vt 0.360415 0.245177
vt 0.428269 0.245215
vt 0.373408 0.261631
vt 0.428269 0.245215
vt 0.360415 0.245177
vt 0.342048 0.214524
vt 0.428286 0.214571
vt 0.428251 0.277415
vt 0.428269 0.245215
vt 0.457621 0.23641
vt 0.468078 0.277439
vt 0.331572 0.204038
vt 0.331586 0.178768
vt 0.342053 0.204043
vt 0.360415 0.245177
vt 0.360404 0.261623
vt 0.32578 0.2616
vt 0.325797 0.236332
vt 0.360415 0.245177
vt 0.373408 0.261631
vt 0.360404 0.261623
vt 0.996881 0.507885
vt 0.974032 0.507886
vt 0.974031 0.492202
vt 0.996881 0.492202
vt 0.974032 0.507886
vt 0.945079 0.507887
vt 0.945079 0.492203
vt 0.974031 0.492202
vt 0.99688 0.469073
vt 0.996881 0.492202
vt 0.974031 0.492202
vt 0.956614 0.469075
vt 0.956615 0.531014
vt 0.974032 0.507886
vt 0.996881 0.507885
vt 0.996881 0.531014
vt 0.278588 0.32314
vt 0.246264 0.33038
vt 0.245619 0.327501
vt 0.277943 0.320261
vt 0.246264 0.33038
vt 0.246263 0.376715
vt 0.243313 0.376715
vt 0.243313 0.33038
vt 0.246263 0.376715
vt 0.278588 0.414098
vt 0.276356 0.416028
vt 0.244032 0.378645
vt 0.210989 0.414098
vt 0.210989 0.323139
vt 0.243313 0.33038
vt 0.243313 0.376715
vt 0.246263 0.376715
vt 0.246264 0.33038
vt 0.278588 0.32314
vt 0.278588 0.414098
vt 0.03499 0.02952
vt 0.03499 0.003291
vt 0.003217 0.003291
vt 0.003217 0.02952
vt 0.03499 0.099365
vt 0.03499 0.02952
vt 0.003217 0.02952
vt 0.003217 0.099365
vt 0.331586 0.178768
vt 0.342053 0.204043
vt 0.342076 0.163021
vt 0.331594 0.163015
vt 0.428286 0.214571
vt 0.428292 0.20409
vt 0.342053 0.204043
vt 0.342048 0.214524
vt 0.373408 0.261631
vt 0.373399 0.277384
vt 0.428251 0.277415
vt 0.428269 0.245215
vt 0.468078 0.277439
vt 0.468102 0.236416
vt 0.457621 0.23641
vt 0.342076 0.163021
vt 0.342053 0.204043
vt 0.428292 0.20409
vt 0.428314 0.163068
vt 0.03499 0.099365
vt 0.057218 0.085441
vt 0.057218 0.015596
vt 0.03499 0.02952
vt 0.360415 0.245177
vt 0.373408 0.261631
vt 0.428269 0.245215
vt 0.428269 0.245215
vt 0.428286 0.214571
vt 0.342048 0.214524
vt 0.360415 0.245177
vt 0.428251 0.277415
vt 0.468078 0.277439
vt 0.457621 0.23641
vt 0.428269 0.245215
vt 0.331572 0.204038
vt 0.342053 0.204043
vt 0.331586 0.178768
vt 0.360415 0.245177
vt 0.325797 0.236332
vt 0.32578 0.2616
vt 0.360404 0.261623
vt 0.360415 0.245177
vt 0.360404 0.261623
vt 0.373408 0.261631
vt 0.996881 0.507885
vt 0.996881 0.492202
vt 0.974031 0.492202
vt 0.974032 0.507886
vt 0.974032 0.507886
vt 0.974031 0.492202
vt 0.945079 0.492203
vt 0.945079 0.507887
vt 0.99688 0.469073
vt 0.956614 0.469075
vt 0.974031 0.492202
vt 0.996881 0.492202
vt 0.956615 0.531014
vt 0.996881 0.531014
vt 0.996881 0.507885
vt 0.974032 0.507886
vt 0.278588 0.32314
vt 0.277943 0.320261
vt 0.245619 0.327501
vt 0.246264 0.33038
vt 0.246264 0.33038
vt 0.243313 0.33038
vt 0.243313 0.376715
vt 0.246263 0.376715
vt 0.246263 0.376715
vt 0.244032 0.378645
vt 0.276356 0.416028
vt 0.278588 0.414098
vt 0.210989 0.414098
vt 0.243313 0.376715
vt 0.243313 0.33038
vt 0.210989 0.323139
vt 0.246263 0.376715
vt 0.278588 0.414098
vt 0.278588 0.32314
vt 0.246264 0.33038
f 3/1 1/2 2/3 4/4
f 1/5 3/6 10/7 6/8
f 5/9 9/10 4/11 2/12
f 8/13 7/14 11/15 12/16
f 7/17 6/18 10/19 11/20
f 5/21 8/22 12/23 9/24
f 17/25 40/26 45/27 20/28
f 21/29 48/30 40/31 17/32
f 20/33 45/34 42/35 18/36
f 15/37 16/38 18/39 13/40
f 21/41 14/42 47/43 48/44
f 39/45 15/46 13/47
f 42/48 39/49 13/50 18/51
f 21/52 17/53 20/54 19/55
f 22/56 14/57 21/58
f 14/59 22/60 16/61 15/62
f 47/63 14/64 15/65 39/66
f 16/67 20/68 18/69
f 22/70 19/71 20/72 16/73
f 22/74 21/75 19/76
f 55/77 25/78 23/79 56/80
f 25/81 26/82 24/83 23/84
f 58/85 56/86 23/87 24/88
f 26/89 25/90 55/91 57/92
f 32/93 33/94 29/95 28/96
f 33/97 34/98 30/99 29/100
f 34/101 31/102 27/103 30/104
f 27/105 28/106 29/107 30/108
f 34/109 33/110 32/111 31/112
f 41/113 46/114 45/115 40/116
f 49/117 41/118 40/119 48/120
f 46/121 43/122 42/123 45/124
f 37/125 35/126 43/127 38/128
f 49/129 48/130 47/131 36/132
f 39/133 35/134 37/135
f 42/136 43/137 35/138 39/139
f 49/140 44/141 46/142 41/143
f 50/144 49/145 36/146
f 36/147 37/148 38/149 50/150
f 47/151 39/152 37/153 36/154
f 38/155 43/156 46/157
f 50/158 38/159 46/160 44/161
f 50/162 44/163 49/164
f 55/165 56/166 51/167 53/168
f 53/169 51/170 52/171 54/172
f 58/173 52/174 51/175 56/176
f 54/177 57/178 55/179 53/180
f 64/181 60/182 61/183 65/184
f 65/185 61/186 62/187 66/188
f 66/189 62/190 59/191 63/192
f 59/193 62/194 61/195 60/196
f 66/197 63/198 64/199 65/200
