# Converted from FrigateMissileMountRight.fbx
o FrigateMissileMountRight
v 0.016892 -0.466825 0.797818
v 0.016892 -0.466825 -0.74664
v -0.393171 -0.466825 -0.74664
v -0.393171 -0.466825 0.797818
v 0.016892 0.466825 0.797818
v 0.016892 0.466825 -0.74664
v -0.393171 0.466825 -0.74664
v -0.393171 0.466825 0.797818
v -0.756005 -0.090266 -0.74664
v -0.756005 -0.090266 0.797818
v -0.756005 0.337382 -0.74664
v -0.756005 0.337382 0.797818
v -0.163513 -0.372434 0.797818
v -0.388396 -0.372434 0.797818
v -0.163513 0.372434 0.797818
v -0.388396 0.372434 0.797818
v -0.677866 -0.072014 0.797818
v -0.677866 0.269164 0.797818
v -0.163513 -0.372434 0.711347
v -0.388396 -0.372434 0.711347
v -0.163513 0.372434 0.711347
v -0.388396 0.372434 0.711347
v -0.677866 -0.072014 0.711347
v -0.677866 0.269164 0.711347
v -0.420616 -0.036509 0.371465
v -0.174885 -0.036509 -0.764775
v -0.868209 -0.036509 -0.72701
v -0.796404 -0.036509 0.371465
v -0.420616 0.28893 0.371465
v -0.174885 0.28893 -0.764775
v -0.868209 0.28893 -0.72701
v -0.796404 0.28893 0.371465
v -0.174885 0.28893 -0.555875
v -0.174885 -0.036509 -0.555875
v -0.868209 0.28893 -0.555875
v -0.868209 -0.036509 -0.555875
v -0.280092 -0.036509 -0.797818
v -0.805001 -0.036509 -0.797818
v -0.280092 0.28893 -0.797818
v -0.805001 0.28893 -0.797818
vt 0.204658 0.005041
vt 0.080179 0.005042
vt 0.08018 0.059714
vt 0.204659 0.059713
vt 0.130385 0.314004
vt 0.132818 0.324421
vt 0.178305 0.324423
vt 0.187401 0.314005
vt 0.080175 0.417042
vt 0.092761 0.392992
vt 0.092763 0.36301
vt 0.080179 0.362373
vt 0.005995 0.314004
vt 0.060667 0.314004
vt 0.060667 0.108088
vt 0.005995 0.108088
vt 0.238763 0.314005
vt 0.293435 0.314006
vt 0.293436 0.108088
vt 0.238763 0.108088
vt 0.187402 0.108088
vt 0.130385 0.108088
vt 0.130385 0.314004
vt 0.187401 0.314005
vt 0.08018 0.059714
vt 0.130385 0.108088
vt 0.187402 0.108088
vt 0.204659 0.059713
vt 0.060667 0.314004
vt 0.130385 0.314004
vt 0.130385 0.108088
vt 0.060667 0.108088
vt 0.238763 0.108088
vt 0.187402 0.108088
vt 0.187401 0.314005
vt 0.238763 0.314005
vt 0.187401 0.314005
vt 0.178305 0.324423
vt 0.19207 0.363017
vt 0.204655 0.362381
vt 0.204655 0.362381
vt 0.19207 0.363017
vt 0.192068 0.392999
vt 0.20465 0.417051
vt 0.080179 0.362373
vt 0.092763 0.36301
vt 0.132818 0.324421
vt 0.130385 0.314004
vt 0.092761 0.392992
vt 0.080175 0.417042
vt 0.20465 0.417051
vt 0.192068 0.392999
vt 0.023083 0.405744
vt 0.023083 0.417273
vt 0.053066 0.417273
vt 0.053066 0.405744
vt 0.095533 0.513673
vt 0.091659 0.502814
vt 0.053066 0.516582
vt 0.05694 0.527441
vt 0.011555 0.516582
vt 0.023083 0.516582
vt 0.023083 0.417273
vt 0.011554 0.417273
vt 0.053066 0.528112
vt 0.053066 0.516582
vt 0.023083 0.516582
vt 0.023083 0.528111
vt 0.061369 0.409274
vt 0.053066 0.417273
vt 0.09166 0.457327
vt 0.099962 0.449328
vt 0.103188 0.457327
vt 0.09166 0.457327
vt 0.091659 0.502814
vt 0.103188 0.502814
vt 0.023083 0.417273
vt 0.023083 0.516582
vt 0.053066 0.516582
vt 0.053066 0.417273
vt 0.091659 0.502814
vt 0.09166 0.457327
vt 0.053066 0.417273
vt 0.053066 0.516582
vt 0.160404 0.425204
vt 0.117014 0.425204
vt 0.117014 0.453056
vt 0.160404 0.453056
vt 0.115252 0.550468
vt 0.106122 0.541706
vt 0.036347 0.547105
vt 0.022703 0.55258
vt 0.160402 0.573217
vt 0.117013 0.573216
vt 0.117007 0.697223
vt 0.160396 0.697224
vt 0.160396 0.697224
vt 0.117007 0.697223
vt 0.117006 0.747325
vt 0.160395 0.747326
vt 0.024851 0.580348
vt 0.117013 0.573216
vt 0.115252 0.550468
vt 0.022703 0.55258
vt 0.160402 0.573217
vt 0.252563 0.580358
vt 0.254715 0.55259
vt 0.162165 0.550469
vt 0.160403 0.5504
vt 0.117013 0.550399
vt 0.117013 0.573216
vt 0.160402 0.573217
vt 0.067055 0.701089
vt 0.117007 0.697223
vt 0.117013 0.573216
vt 0.024851 0.580348
vt 0.160396 0.697224
vt 0.210348 0.701094
vt 0.252563 0.580358
vt 0.160402 0.573217
vt 0.160404 0.467759
vt 0.117014 0.467759
vt 0.117013 0.537744
vt 0.160404 0.537745
vt 0.254715 0.55259
vt 0.241072 0.547114
vt 0.171297 0.541707
vt 0.162165 0.550469
vt 0.117014 0.453056
vt 0.117014 0.467759
vt 0.160404 0.467759
vt 0.160404 0.453056
vt 0.160403 0.5504
vt 0.160404 0.537745
vt 0.117013 0.537744
vt 0.117013 0.550399
f 6/1 2/2 3/3 7/4
f 10/5 17/6 18/7 12/8
f 1/9 13/10 14/11 4/12
f 1/13 4/14 3/15 2/16
f 8/17 5/18 6/19 7/20
f 11/21 9/22 10/23 12/24
f 3/25 9/26 11/27 7/28
f 4/29 10/30 9/31 3/32
f 7/33 11/34 12/35 8/36
f 12/37 18/38 16/39 8/40
f 8/41 16/42 15/43 5/44
f 4/45 14/46 17/47 10/48
f 13/49 1/50 5/51 15/52
f 13/53 19/54 20/55 14/56
f 18/57 24/58 22/59 16/60
f 15/61 21/62 19/63 13/64
f 16/65 22/66 21/67 15/68
f 14/69 20/70 23/71 17/72
f 17/73 23/74 24/75 18/76
f 19/77 21/78 22/79 20/80
f 24/81 23/82 20/83 22/84
f 33/85 34/86 26/87 30/88
f 27/89 38/90 37/91 26/92
f 35/93 36/94 28/95 32/96
f 32/97 28/98 25/99 29/100
f 34/101 36/102 27/103 26/104
f 35/105 33/106 30/107 31/108
f 31/109 27/110 36/111 35/112
f 25/113 28/114 36/115 34/116
f 32/117 29/118 33/119 35/120
f 39/121 37/122 38/123 40/124
f 30/125 39/126 40/127 31/128
f 26/129 37/130 39/131 30/132
f 31/133 40/134 38/135 27/136
