# Converted from FrigateLightTurretBarrel.fbx
o FrigateLightTurretBarrel
v 0.062534 -0.062533 -0.039719
v 0.032433 0.062534 -0.039719
v 0.03243 0.062533 0.732371
v 0.062534 0.025655 -0.039719
v 0.045527 -0.062533 0.671844
v 0.013979 0.062534 0.671844
v 0.062531 -0.062534 0.693137
v 0.062531 0.025654 0.732371
v 0.045525 -0.062534 0.693136
v 0.013977 0.062533 0.73237
v 0.045525 0.025654 0.732369
v 0.062534 -0.013803 -0.039719
v 0.062531 -0.013804 0.732371
v 0.045527 0.025655 0.671844
v 0.045525 -0.013804 0.73237
v 0.034453 -0.048072 0.671844
v 0.010646 0.048073 0.671844
v 0.034453 0.019723 0.671844
v 0.034453 -0.048072 0.61389
v 0.010646 0.048073 0.61389
v 0.034453 0.019723 0.613889
v -0.062534 -0.062533 -0.039719
v -0.032433 0.062534 -0.039719
v -0.03243 0.062533 0.732371
v 0 0.062534 -0.039719
v 0 -0.062533 -0.039719
v 0 0.062534 0.671844
v 0 -0.062533 0.671844
v -0.062534 0.025655 -0.039719
v 0 -0.048072 0.67184
v -0.045527 -0.062533 0.671844
v -0.013979 0.062534 0.671844
v -0.062531 -0.062534 0.693137
v -0.062531 0.025654 0.732371
v -0.045525 -0.062534 0.693136
v -0.013977 0.062533 0.73237
v -0.045525 0.025654 0.732369
v -0.062534 -0.013803 -0.039719
v -0.062531 -0.013804 0.732371
v 0 0.048073 0.67184
v -0.045527 0.025655 0.671844
v -0.045525 -0.013804 0.73237
v -0.034453 -0.048072 0.671844
v -0.010646 0.048073 0.671844
v -0.034453 0.019723 0.671844
v -0.034453 -0.048072 0.61389
v -0.010646 0.048073 0.61389
v -0.034453 0.019723 0.613889
v 0 -0.048072 0.613891
v 0 0.048073 0.613891
vt 0.684458 0.425325
vt 0.684299 0.409584
vt 0.689337 0.413362
vt 0.689458 0.425274
vt 0.714789 0.409275
vt 0.684299 0.409584
vt 0.684223 0.402222
vt 0.700934 0.388486
vt 0.72765 0.420052
vt 0.727699 0.424885
vt 0.7227 0.424936
vt 0.722662 0.421255
vt 0.756771 0.532999
vt 0.769571 0.532999
vt 0.769571 0.553038
vt 0.756771 0.553038
vt 0.721417 0.533
vt 0.733329 0.532999
vt 0.733329 0.553037
vt 0.721417 0.553037
vt 0.956254 0.17697
vt 0.956254 0.004017
vt 0.967754 0.004017
vt 0.967754 0.186229
vt 0.956254 0.004017
vt 0.956254 0.17697
vt 0.95224 0.171945
vt 0.941496 0.004017
vt 0.992655 0.171943
vt 0.995954 0.004016
vt 0.995954 0.171943
vt 0.9883 0.004017
vt 0.9883 0.186228
vt 0.977066 0.186229
vt 0.977066 0.004016
vt 0.714789 0.409275
vt 0.72765 0.420052
vt 0.722662 0.421255
vt 0.712777 0.413125
vt 0.941496 0.171945
vt 0.941496 0.004017
vt 0.95224 0.171945
vt 0.73157 0.409104
vt 0.714789 0.409275
vt 0.714577 0.388348
vt 0.731357 0.388177
vt 0.9883 0.186228
vt 0.9883 0.004017
vt 0.995954 0.004016
vt 0.992655 0.171943
vt 0.9883 0.186228
vt 0.992655 0.171943
vt 0.992655 0.186228
vt 0.967754 0.186229
vt 0.965237 0.189355
vt 0.953736 0.180096
vt 0.956254 0.17697
vt 0.9883 0.186228
vt 0.991054 0.189602
vt 0.979604 0.189338
vt 0.977066 0.186229
vt 0.95224 0.171945
vt 0.956254 0.17697
vt 0.95224 0.17697
vt 0.977066 0.004016
vt 0.977066 0.186229
vt 0.967754 0.186229
vt 0.967754 0.004017
vt 0.977066 0.186229
vt 0.977066 0.190243
vt 0.967754 0.190243
vt 0.967754 0.186229
vt 0.714789 0.409275
vt 0.700934 0.388486
vt 0.714577 0.388348
vt 0.684299 0.409584
vt 0.714789 0.409275
vt 0.712777 0.413125
vt 0.689337 0.413362
vt 0.733329 0.532999
vt 0.756771 0.532999
vt 0.756771 0.553038
vt 0.733329 0.553037
vt 0.733329 0.553037
vt 0.756771 0.553038
vt 0.766573 0.56495
vt 0.733329 0.56495
vt 0.756771 0.553038
vt 0.766573 0.561269
vt 0.766573 0.56495
vt 0.769571 0.532999
vt 0.773252 0.533
vt 0.773252 0.553037
vt 0.769571 0.553038
vt 0.684458 0.425325
vt 0.689458 0.425274
vt 0.689337 0.413362
vt 0.684299 0.409584
vt 0.714789 0.409275
vt 0.700934 0.388486
vt 0.684223 0.402222
vt 0.684299 0.409584
vt 0.72765 0.420052
vt 0.722662 0.421255
vt 0.7227 0.424936
vt 0.727699 0.424885
vt 0.756771 0.532999
vt 0.756771 0.553038
vt 0.769571 0.553038
vt 0.769571 0.532999
vt 0.721417 0.533
vt 0.721417 0.553037
vt 0.733329 0.553037
vt 0.733329 0.532999
vt 0.967754 0.004017
vt 0.956254 0.004017
vt 0.956254 0.17697
vt 0.967754 0.186229
vt 0.95224 0.171945
vt 0.956254 0.17697
vt 0.956254 0.004017
vt 0.941496 0.004017
vt 0.992655 0.171943
vt 0.995954 0.171943
vt 0.995954 0.004016
vt 0.9883 0.004017
vt 0.977066 0.004016
vt 0.977066 0.186229
vt 0.9883 0.186228
vt 0.714789 0.409275
vt 0.712777 0.413125
vt 0.722662 0.421255
vt 0.72765 0.420052
vt 0.941496 0.171945
vt 0.95224 0.171945
vt 0.941496 0.004017
vt 0.73157 0.409104
vt 0.731357 0.388177
vt 0.714577 0.388348
vt 0.714789 0.409275
vt 0.9883 0.186228
vt 0.992655 0.171943
vt 0.995954 0.004016
vt 0.9883 0.004017
vt 0.9883 0.186228
vt 0.992655 0.186228
vt 0.992655 0.171943
vt 0.967754 0.186229
vt 0.956254 0.17697
vt 0.953736 0.180096
vt 0.965237 0.189355
vt 0.9883 0.186228
vt 0.977066 0.186229
vt 0.979604 0.189338
vt 0.991054 0.189602
vt 0.95224 0.171945
vt 0.95224 0.17697
vt 0.956254 0.17697
vt 0.977066 0.004016
vt 0.967754 0.004017
vt 0.967754 0.186229
vt 0.977066 0.186229
vt 0.977066 0.186229
vt 0.967754 0.186229
vt 0.967754 0.190243
vt 0.977066 0.190243
vt 0.714789 0.409275
vt 0.714577 0.388348
vt 0.700934 0.388486
vt 0.684299 0.409584
vt 0.689337 0.413362
vt 0.712777 0.413125
vt 0.714789 0.409275
vt 0.733329 0.532999
vt 0.733329 0.553037
vt 0.756771 0.553038
vt 0.756771 0.532999
vt 0.733329 0.553037
vt 0.733329 0.56495
vt 0.766573 0.56495
vt 0.756771 0.553038
vt 0.756771 0.553038
vt 0.766573 0.56495
vt 0.766573 0.561269
vt 0.769571 0.532999
vt 0.769571 0.553038
vt 0.773252 0.553037
vt 0.773252 0.533
f 28/1 5/2 16/3 30/4
f 14/5 5/6 9/7 15/8
f 6/9 27/10 40/11 17/12
f 18/13 17/14 20/15 21/16
f 30/17 16/18 19/19 49/20
f 7/21 1/22 12/23 13/24
f 1/25 7/26 5/27 26/28
f 6/29 25/30 27/31
f 2/32 3/33 8/34 4/35
f 14/36 6/37 17/38 18/39
f 28/40 26/41 5/42
f 6/43 14/44 11/45 10/46
f 3/47 2/48 25/49 6/50
f 3/51 6/52 10/53
f 13/54 15/55 9/56 7/57
f 3/58 10/59 11/60 8/61
f 5/62 7/63 9/64
f 4/65 8/66 13/67 12/68
f 8/69 11/70 15/71 13/72
f 14/73 15/74 11/75
f 5/76 14/77 18/78 16/79
f 16/80 18/81 21/82 19/83
f 19/84 21/85 50/86 49/87
f 21/88 20/89 50/90
f 17/91 40/92 50/93 20/94
f 28/95 30/96 43/97 31/98
f 41/99 42/100 35/101 31/102
f 32/103 44/104 40/105 27/106
f 45/107 48/108 47/109 44/110
f 30/111 49/112 46/113 43/114
f 38/115 22/116 33/117 39/118
f 31/119 33/120 22/121 26/122
f 32/123 27/124 25/125
f 23/126 29/127 34/128 24/129
f 41/130 45/131 44/132 32/133
f 28/134 31/135 26/136
f 32/137 36/138 37/139 41/140
f 24/141 32/142 25/143 23/144
f 24/145 36/146 32/147
f 39/148 33/149 35/150 42/151
f 24/152 34/153 37/154 36/155
f 31/156 35/157 33/158
f 29/159 38/160 39/161 34/162
f 34/163 39/164 42/165 37/166
f 41/167 37/168 42/169
f 31/170 43/171 45/172 41/173
f 43/174 46/175 48/176 45/177
f 46/178 49/179 50/180 48/181
f 48/182 50/183 47/184
f 44/185 47/186 50/187 40/188
